<svg width="1280" height="195" viewBox="0 0 1280 195" fill="none" xmlns="http://www.w3.org/2000/svg">
<g opacity="0.6">
<path d="M1416.75 27.6541C1412.42 26.4723 682.269 27.1561 493.281 27.6497C492.146 27.6526 491.198 28.1373 490.442 28.9834L347.138 189.29C346.379 190.138 345.294 190.624 344.156 190.624L-99.5055 190.624" stroke="#159E09"/>
<path d="M1417.34 13.8263L491.136 13.8262L404.75 13.8262C403.093 13.8262 401.75 15.1694 401.75 16.8262L401.75 58.7295C401.75 60.3863 400.407 61.7295 398.75 61.7295L-99.9992 61.7294" stroke="#FF0F00"/>
<path d="M1418.52 2.46779L490.148 2.46771L400.762 2.46771L386.477 2.4677C384.82 2.4677 383.477 3.81085 383.477 5.4677L383.477 111.065C383.477 113.274 381.686 115.065 379.477 115.065L-99.9998 115.065" stroke="#AFA800"/>
<circle cx="383.62" cy="102.96" r="2.94172" transform="rotate(-180 383.62 102.96)" fill="#AFA800"/>
<circle cx="384.797" cy="2.94165" r="2.94172" transform="rotate(-180 384.797 2.94165)" fill="#AFA800"/>
<circle cx="681.323" cy="2.94167" r="2.94172" transform="rotate(-180 681.323 2.94167)" fill="#AFA800"/>
<circle cx="37.6735" cy="114.727" r="2.94172" transform="rotate(-180 37.6735 114.727)" fill="#FFF617"/>
<circle cx="424.804" cy="13.5317" r="2.94172" transform="rotate(-180 424.804 13.5317)" fill="#FF0F00"/>
<circle cx="715.447" cy="13.5317" r="2.94172" transform="rotate(-180 715.447 13.5317)" fill="#FF0F00"/>
<circle cx="746.04" cy="13.5317" r="2.94172" transform="rotate(-180 746.04 13.5317)" fill="#FF0F00"/>
<circle cx="776.634" cy="13.5317" r="2.94172" transform="rotate(-180 776.634 13.5317)" fill="#FF0F00"/>
<circle cx="807.229" cy="13.5318" r="2.94172" transform="rotate(-180 807.229 13.5318)" fill="#FF0F00"/>
<circle cx="1037.86" cy="13.5317" r="2.94172" transform="rotate(-180 1037.86 13.5317)" fill="#FF0F00"/>
<circle cx="1164.94" cy="13.5318" r="2.94172" transform="rotate(-180 1164.94 13.5318)" fill="#FF0F00"/>
<circle cx="401.271" cy="60.5993" r="2.94172" transform="rotate(-180 401.271 60.5993)" fill="#FF0F00"/>
<circle cx="271.835" cy="61.7763" r="2.94172" transform="rotate(-180 271.835 61.7763)" fill="#FF0F00"/>
<circle cx="105.922" cy="61.7763" r="2.94172" transform="rotate(-180 105.922 61.7763)" fill="#FF0F00"/>
<circle cx="493.053" cy="27.6521" r="2.94172" transform="rotate(-180 493.053 27.6521)" fill="#159E09"/>
<circle cx="689.56" cy="27.6521" r="2.94172" transform="rotate(-180 689.56 27.6521)" fill="#159E09"/>
<circle cx="866.063" cy="27.6522" r="2.94172" transform="rotate(-180 866.063 27.6522)" fill="#159E09"/>
<circle cx="1055.51" cy="27.6522" r="2.94172" transform="rotate(-180 1055.51 27.6522)" fill="#159E09"/>
<circle cx="458.928" cy="64.1297" r="2.94172" transform="rotate(-180 458.928 64.1297)" fill="#159E09"/>
<circle cx="416.567" cy="111.197" r="2.94172" transform="rotate(-180 416.567 111.197)" fill="#159E09"/>
<circle cx="288.308" cy="191.212" r="2.94172" transform="rotate(-180 288.308 191.212)" fill="#159E09"/>
<circle cx="149.459" cy="191.212" r="2.94172" transform="rotate(-180 149.459 191.212)" fill="#159E09"/>
</g>
</svg>
