<svg width="33" height="22" viewBox="0 0 33 22" fill="none" xmlns="http://www.w3.org/2000/svg">
<path d="M27.2923 17.2083H30.3757C31.3007 17.2083 31.9173 16.5917 31.9173 15.6667V11.0417C31.9173 9.65416 30.8382 8.42082 29.6048 8.11249C26.8298 7.34166 22.6673 6.41666 22.6673 6.41666C22.6673 6.41666 20.6632 4.25832 19.2757 2.87082C18.5048 2.25416 17.5798 1.79166 16.5007 1.79166H5.70898C4.78398 1.79166 4.01315 2.40832 3.55065 3.17916L1.39232 7.64999C1.18817 8.24542 1.08398 8.87054 1.08398 9.49999V15.6667C1.08398 16.5917 1.70065 17.2083 2.62565 17.2083H5.70898" stroke="#FFE600" stroke-width="2" stroke-linecap="round" stroke-linejoin="round"/>
<path d="M8.79232 20.2917C10.4952 20.2917 11.8757 18.9112 11.8757 17.2083C11.8757 15.5055 10.4952 14.125 8.79232 14.125C7.08944 14.125 5.70898 15.5055 5.70898 17.2083C5.70898 18.9112 7.08944 20.2917 8.79232 20.2917Z" stroke="#FFE600" stroke-width="2" stroke-linecap="round" stroke-linejoin="round"/>
<path d="M11.875 17.2083H21.125" stroke="#FFE600" stroke-width="2" stroke-linecap="round" stroke-linejoin="round"/>
<path d="M24.2083 20.2917C25.9112 20.2917 27.2917 18.9112 27.2917 17.2083C27.2917 15.5055 25.9112 14.125 24.2083 14.125C22.5055 14.125 21.125 15.5055 21.125 17.2083C21.125 18.9112 22.5055 20.2917 24.2083 20.2917Z" stroke="#FFE600" stroke-width="2" stroke-linecap="round" stroke-linejoin="round"/>
</svg>
