<svg width="114" height="119" viewBox="0 0 114 119" fill="none" xmlns="http://www.w3.org/2000/svg">
<path d="M65.2466 22.824C58.1575 23.2389 52.5097 24.9792 48.303 28.0451C41.062 33.3223 39.6775 41.5644 44.1494 52.7713L69.3894 34.3762L71.6107 44.1612L48.4395 61.0484L51.5025 65.4684L73.5358 49.4105L75.7571 59.1954L57.758 72.3132C67.9059 81.6009 76.9795 83.3296 84.9791 77.4995C90.1513 73.7301 93.8782 67.6878 96.1598 59.3726L107.44 75.0679C104.78 81.1248 100.45 86.3396 94.4502 90.7122C85.761 97.0449 76.7258 99.3533 67.3447 97.6374C58.8484 96.1213 50.5842 91.374 42.5519 83.3955L34.5868 89.2004L32.3655 79.4155L36.5032 76.3999L34.5431 73.7104C33.8395 72.7449 33.4719 72.1681 33.4403 71.9799L25.889 77.4834L23.6677 67.6984L28.9433 63.8535C24.5169 54.3029 23.1308 45.2292 24.7847 36.6324C26.413 27.4208 31.3303 19.8245 39.5368 13.8436C45.3296 9.62179 52.8616 6.77221 62.1329 5.29485L65.2466 22.824Z" fill="#53B10A"/>
</svg>
