<svg width="122" height="144" viewBox="0 0 122 144" fill="none" xmlns="http://www.w3.org/2000/svg">
<path d="M120.767 17.3559L120.857 18.8332L120.889 19.6678L120.792 20.4776L120.579 21.3719L120.138 22.5154L120.061 22.9338L120.084 23.5548L120.203 23.8849L120.354 24.1559L120.47 24.6092L120.76 28.3207L120.712 30.1763L120.425 31.826L119.749 33.557L117.193 37.595L116.953 38.271L116.942 38.2519L116.77 37.956L116.205 37.2524L115.882 36.9883L115.262 36.7729L115.92 35.0412L115.935 34.8359L115.896 34.6146L115.677 34.5634L114.152 32.6515L112.696 30.6738L111.493 29.3952L110.409 28.2525L109.82 27.6905L109.081 26.9594L107.718 25.4508L106.625 24.2743L106.447 24.1453L106.152 23.9846L105.321 23.9066L103.396 24.545L103.227 24.6013L103.169 24.499L103.111 24.4189L102.778 23.6198L101.716 22.1924L101.391 21.9241L101.222 21.8622L101.125 21.779L100.618 20.8821L100.087 20.1541L99.7477 20.1972L99.1774 19.9527L98.1477 19.4639L97.0178 20.4874L96.4462 20.8498L96.031 21.2741L95.5628 21.8702L95.3549 22.3801L95.3312 22.5035L95.2391 22.7718L94.8478 23.601L94.7226 23.9362L94.5906 24.4567L94.0884 25.3655L93.8422 25.5103L93.1998 25.3038L92.9277 25.1511L91.8072 24.4139L91.2712 24.2206L89.9418 24.0921L89.6712 24.0036L89.2592 23.6306L88.9696 23.2579L88.8242 22.1443L89.0416 21.0275L89.3601 20.3854L90.5157 18.8377L90.5981 18.6281L90.5884 18.4859L90.5546 18.3379L90.5014 18.1793L90.4388 18.05L90.4099 17.8322L90.347 17.5875L90.7334 16.8127L91.1969 16.016L91.3527 15.3433L91.4688 15.1091L91.8935 14.6213L92.4151 14.1337L92.502 14.0287V13.9751L92.2944 13.8942L92.2123 13.8458L92.1591 13.7837L92.1734 13.2743L92.2458 12.6222L92.1926 12.3338L92.0816 12.1609L91.5074 11.9669L91.4059 11.9751L91.3192 12.0126L91.1434 12.1313L91.0325 12.1747L90.9358 12.18L90.8492 12.153L90.7431 12.0909L90.6127 11.9455L90.4343 11.6838L90.3133 11.5704L90.2023 11.503L89.6132 11.333L89.1678 11.1364L88.8631 10.0005L89.0176 9.3717L89.3527 8.69975L92.0913 8.61255L92.4154 8.72301L92.9633 9.21627L93.2625 9.32677L93.5285 9.23768L94.322 8.61255L98.9581 7.25123L106.304 6.10428L109.383 6.63002L110.027 6.92793L110.559 7.48302L111.609 11.7911L111.771 11.8593L112.527 12.4026L112.585 12.5321L112.734 12.6465L112.889 12.8908L113.104 13.1326L114.088 13.4615L115.33 14.1723L115.883 13.9899L116.146 14.2909L116.521 14.3909L116.889 14.2867L117.155 13.9899H117.368V14.3464L117.119 14.5627L116.995 14.7197L117.002 14.9446L117.155 15.3813L117.22 16.2224L118.166 16.767L120.417 17.3516L120.767 17.3559ZM97.3 1.07666L97.7335 1L99.447 1.75943L99.3075 1.75071L99.1933 1.81468L99.0969 1.94896L99.021 2.14721L97.908 1.77185L97.3581 1.42426L97.3 1.07666Z" fill="#F37021" stroke="#222831" stroke-width="0.5" stroke-linejoin="round"/>
<path d="M116.953 38.2709L116.636 39.163L116.365 40.886L116.076 46.4392L115.847 48.2494L115.28 49.3475L114.17 48.9985L113.7 48.7996L112.164 49.029L110.513 48.5278L107.558 48.5758L106.515 48.9005L105.956 49.3076L105.934 49.294L105.606 49.0925L105.528 48.6656L105.543 48.289L105.427 48.1485L105.248 48.0029L102.999 46.9677L102.594 46.9544L101.684 47.1185L100.168 47.9123L99.7802 48.326L99.7124 48.5647L99.8045 50.0921L98.515 49.4666L98.3265 49.4319H98.0932L97.9576 49.5805L97.702 49.742L97.5236 49.7634L97.3594 49.6839L97.2381 49.5542L97.0885 49.3209L96.9922 49.257L96.9195 49.2437L96.7554 49.3894L96.5328 49.5088L95.8071 49.7339L95.5995 49.7313L95.474 49.6755L95.4399 49.596L95.1888 48.9144L94.9377 48.5375L94.395 47.986L93.9223 47.5957L93.6806 47.2006L93.5648 47.1769L92.0612 47.1954L91.8007 47.1049L90.8382 46.4389L90.3454 46.253L90.1283 46.3088L89.9496 46.4707L89.6985 46.6329L89.5149 46.6433L89.267 46.5745L89.1366 46.4684L89.0549 46.3779L88.8421 46.0064L88.6922 45.8841L87.6139 43.0517L87.9149 42.5278L88.7357 42.1259L89.8623 41.008L90.0025 40.5687L89.7176 40.1243L89.3926 39.7515L89.1558 39.5358L87.5898 37.6468L90.2292 35.6069L91.269 34.4059L91.4863 34.1843L91.8244 33.9173L92.6548 33.9147L93.3514 34.0961L94.3946 34.8088L95.8834 33.8051L96.0764 33.5939L96.9328 32.1759L97.0152 31.8899L97.0681 31.6602L96.6915 30.872L95.0045 28.5981L94.8887 28.0174L94.72 27.5006L94.7486 27.2167L94.6743 26.9278L94.6023 26.7777L93.7238 26.4002L93.2355 26.1081L93.1392 26.0117L93.1969 25.304L93.8393 25.5105L94.0855 25.3656L94.5877 24.4568L94.72 23.9364L94.8452 23.6012L95.2365 22.772L95.3283 22.5037L95.3523 22.3802L95.5599 21.8704L96.028 21.2743L96.4436 20.85L97.0152 20.4876L98.1448 19.4641L99.1748 19.9529L99.7448 20.1974L100.084 20.1543L100.616 20.8823L101.123 21.7792L101.219 21.8624L101.388 21.9243L101.713 22.1926L102.775 23.62L103.109 24.419L103.166 24.4991L103.224 24.6014L103.393 24.5451L105.318 23.9068L106.149 23.9848L106.444 24.1455L106.622 24.2744L107.715 25.451L109.078 26.9595L109.818 27.6907L110.407 28.2527L111.49 29.3954L112.694 30.674L114.149 32.6517L115.675 34.5636L115.894 34.6145L115.932 34.8361L115.917 35.0414L115.259 36.7728L115.879 36.9885L116.202 37.2526L116.767 37.9562L116.939 38.2521L116.953 38.2709Z" fill="#F37021" stroke="#222831" stroke-width="0.5" stroke-linejoin="round"/>
<path d="M105.957 49.3078L105.418 49.7003L105.679 50.2369L105.618 50.6969L105.476 51.1222L105.485 51.5485L105.704 51.8787L106.725 52.7459L104.996 53.6234L104.481 53.6698L104.864 54.4727L104.973 55.3869L105.018 56.2881L105.208 57.0508L105.823 57.7697L106.644 58.1723L109.11 58.522L110.719 59.14L111.598 59.284L112.416 59.2298L113.195 59.0001L113.485 58.7254L113.678 58.3822L113.874 58.2897L115.77 61.3842L116.208 62.6961L115.944 64.555L115.32 66.0113L115.095 66.7795L115.075 67.7122L115.352 68.7992L115.535 69.1373L115.613 69.282L115.526 69.5434L114.142 70.3898L113.807 70.7827L113.076 71.9746L112.455 72.5283L111.119 73.1162L110.514 73.7523L109.825 75.1629L109.432 75.5236L107.591 75.7312L107.57 75.7147L107.216 75.4422L104.175 74.7917L104.484 74.0287L104.494 73.7614L104.46 73.255L104.407 73.0503L104.325 72.9063L104.218 72.8352L103.914 72.7016L103.668 72.6331L102.56 72.903L102.435 72.8823L102.3 72.8326V72.6701L102.271 72.4547L102.165 72.2159L101.991 72.1504L101.803 72.1397L100.927 72.3236L99.728 72.1767L98.9841 72.2607L98.0699 71.3838L96.5926 69.219L96.5588 69.148L96.3739 68.8349L95.4464 68.7224L94.3778 69.1587L93.9142 69.5107L93.6051 69.6028L91.6336 69.6343L89.4526 69.1979L89.1532 69.1846L89.0569 69.2239L88.762 69.4714L88.5397 69.8127L88.4723 69.8234L88.3659 69.8L88.1099 69.5606L88.023 69.4318L87.9795 69.316V69.245L87.9892 69.195L88.1054 68.8664L88.047 68.6195L87.8925 68.4933L87.5432 68.3305L87.4228 68.2413L87.3696 68.0755L87.4228 67.9201L87.4371 67.4942L86.8768 66.0288L86.2394 65.731L86.0801 65.5389L85.7596 65.0783L85.6778 64.9047L85.7164 64.5355L85.9886 63.416L86.2783 62.9839L86.2543 62.7652L86.0999 62.4146L86.1625 62.3432L86.2591 62.2669L87.2973 61.9163L87.7576 60.6871L87.8014 60.1171L87.7576 59.9591L87.6934 59.8267L87.0462 58.8817L86.8048 58.256L86.5297 57.4449L86.3318 57.1439L86.0999 56.9431L85.5477 56.3455L85.3161 55.8699L85.1036 55.5316L84.8911 55.4018L84.5145 55.2406L83.61 55.722L82.6154 56.5732L81.672 56.8616L81.4209 56.7955L81.2227 56.6209L80.5645 55.3518L80.1781 54.7621L79.8521 54.7228L79.4151 54.6888L78.7786 51.8252L78.342 51.4382V50.8299L78.678 50.4429L78.7076 50.4088L80.2894 49.6831L80.7001 49.6565L80.8756 49.7597L81.3823 49.8447L81.6769 49.8259L83.1802 49.3091L84.1748 48.7521L83.489 47.9193L82.8808 47.5845L81.6233 47.2131L81.358 47.0856L81.271 47.0032L81.3291 46.9159L81.5562 46.7005L81.6814 46.4008L81.8553 46.1247L81.6185 44.8047L81.174 43.4973L80.957 43.1275L80.5934 42.6438L79.1494 41.4626L76.8672 40.2114L78.0279 39.6284L78.3948 39.9502L78.5103 40.0063L79.3911 40.153L79.565 40.1423L79.8018 40.0972L80.7238 39.5431L80.8753 39.3912L81.0154 39.1807L81.1264 38.9809L81.2032 38.808L81.3142 38.6827L81.4689 38.587L82.0963 38.4349L82.2125 38.3551L82.2897 38.2594L82.3714 38.2753L82.5375 38.3528L82.9044 38.8965L83.1893 39.1522L83.344 39.2264L84.567 39.3173L85.0115 38.8031L85.0403 38.7204L85.0692 38.4969L85.103 38.4381L85.1756 38.3768L85.6827 38.2331L86.2828 38.1689L87.5915 37.6492L89.1574 39.5382L89.3942 39.7539L89.7196 40.127L90.0041 40.5711L89.864 41.0107L88.7376 42.1283L87.9169 42.5302L87.6158 43.0541L88.6942 45.8866L88.8437 46.0089L89.0565 46.3806L89.1386 46.4708L89.2687 46.5769L89.5169 46.646L89.7002 46.6353L89.9513 46.4734L90.1303 46.3112L90.3474 46.2554L90.8401 46.4413L91.8023 47.1073L92.0632 47.1978L93.5665 47.1793L93.6823 47.203L93.924 47.5981L94.397 47.9884L94.9397 48.5402L95.1908 48.9172L95.4419 49.5985L95.4756 49.6779L95.6012 49.7337L95.8091 49.7363L96.5348 49.5112L96.757 49.3918L96.9212 49.2461L96.9939 49.2598L97.0905 49.3234L97.2401 49.5566L97.3611 49.6864L97.5252 49.7662L97.7037 49.7448L97.9596 49.5829L98.0949 49.4343H98.3285L98.5166 49.469L99.8061 50.0948L99.7143 48.5675L99.7821 48.3287L100.17 47.9148L101.686 47.1213L102.596 46.9568L103.001 46.9701L105.25 48.0053L105.429 48.1509L105.545 48.2917L105.53 48.668L105.607 49.0953L105.936 49.2968L105.957 49.3078Z" fill="#F37021" stroke="#222831" stroke-width="0.5" stroke-linejoin="round"/>
<path d="M107.591 75.7309L107.413 75.7511L106.914 76.0313L106.386 76.5832L106.222 76.8716L105.968 77.5168L105.717 77.8351L105.343 78.0235L105.015 78.0472L104.735 78.1806L104.519 78.7084L104.584 79.4801L105.079 79.8321L105.762 80.0349L107.796 81.1778L108.601 82.0326L108.762 82.2772L108.839 82.6182L108.81 83.2358L108.653 83.3902L108.415 83.4318L108.16 83.7127L107.449 85.0077L106.724 85.8752L105.881 86.3326L103.124 86.4215L100.023 87.4856L98.4916 88.6661L97.9765 88.9007H97.3426L95.3465 88.308L95.6012 89.4453L95.4724 89.9478L94.3035 90.2748L94.2101 89.4898L93.705 89.1939L92.5105 89.0116L92.3687 88.838L92.0242 88.2181L91.802 88.0014L91.5444 87.9703L90.5722 88.185L89.5195 87.7513L88.5183 86.936L87.514 86.4604L86.4548 87.0369L86.8411 87.3315L88.0032 88.5568L88.4217 89.2186L87.9195 89.0934L87.1857 88.9045L86.1748 88.6337L84.9067 88.9762L84.459 89.216L83.8151 89.6968L83.2133 89.9543L81.9419 90.1808L81.4235 90.5493L81.3171 90.9986L82.0256 91.5439L82.4405 92.5185L82.386 93.5352L81.8787 94.0419L81.8339 94.0568L81.734 94.0906L80.9375 93.5498L80.8263 93.4456L80.2693 92.6758L80.1294 92.4808L80.0376 92.4523L79.8881 92.4494L79.5789 92.5146L79.2986 92.7073L79.2844 93.383L76.0811 93.2221L73.9066 91.7052L73.3048 91.5465L73.0083 91.3279L72.6242 90.3566L72.4452 90.1379L71.0531 89.8252L69.0619 90.1328L68.6081 89.9816L68.0108 89.5728L67.4103 89.8152L66.8004 90.2758L66.1614 90.513L64.9027 90.4189L64.2814 90.7524L64.016 91.7337L63.8584 92.5769L63.4574 93.2221L62.9085 93.685L62.3145 93.9838L56.613 94.6184L56.3363 94.522L56.6841 93.698L56.6889 92.8867L55.5379 92.1035L55.1902 92.2158L54.4353 92.1895L53.2765 91.2971L52.7869 90.7608L52.7243 90.3543L52.7003 90.0679L52.6617 89.5809L52.7438 89.1745L52.7487 89.0755L52.5508 88.7709L53.45 88.7161L55.8422 87.7023L56.1657 87.4963L56.1945 87.387V87.2332L56.1365 87.0061L56.0836 86.7245L57.1762 84.7622L57.3212 84.5169L58.0969 82.9186L58.5588 82.9812L59.3072 82.8378L59.8691 82.4014L60.3327 82.3019L62.0822 83.2793L62.7278 83.1122L63.6433 82.404L64.334 82.2444L65.1518 82.5426L65.5038 82.5581L65.7938 82.4196L66.4105 81.9752L66.7998 81.8681L68.1419 82.153L70.5419 83.6031L71.5881 83.859L71.6993 83.6212L71.7136 82.8271L71.6701 82.5656L71.6124 82.3645L71.482 82.1345L71.2692 81.68L70.6272 80.9844L70.2346 80.2782L69.9592 78.7424L70.0024 77.5301L69.9397 77.2343L69.9109 76.9592L69.6455 75.9324L69.1336 76.0528L69.2689 76.4278L69.2501 76.6289L69.2063 76.8284L69.0759 77.0743L68.9555 77.2161L68.8299 77.2998L68.7044 77.3105L68.598 77.3498L68.2733 77.6067L67.9884 77.7085L67.119 77.2738L67.0564 77.1846L67.0081 77.0743L67.2446 76.8703L67.3944 76.6944L67.4862 76.5267L67.6699 75.982L67.9109 75.4685L68.2493 75.4945L68.259 75.437V75.34L68.2298 75.1616L68.2249 74.8213L68.3797 74.517L68.3845 74.3389L68.3021 74.2234L68.0608 73.9506L67.8097 73.791L67.6841 73.67L67.4087 73.2583L67.1917 73.088L66.5477 72.941L65.8087 72.6971L65.6206 72.3509L65.6443 72.251L65.7026 72.1826L65.9054 72.0171L66.0112 71.8072L66.0744 71.3083L64.9477 70.3892L64.7739 70.0924L64.8462 69.5377L64.9588 68.6682L65.1427 67.6859L65.1479 67.6577L65.6799 67.8507L67.8966 67.5763L69.0051 67.1922L69.6095 66.0941L69.9453 64.9956L70.4491 63.7317L71.1209 63.0719L71.9605 62.3565L72.7997 61.8618L73.8748 61.4213L75.2513 60.7611L76.427 60.2106L77.199 59.5498L77.8041 58.8335L78.509 57.7314L79.0466 56.7939L79.3823 55.5255L79.4161 54.6976L79.4144 54.6895L79.8514 54.7235L80.1775 54.7624L80.5638 55.3525L81.222 56.6216L81.4199 56.7962L81.671 56.8623L82.6147 56.5739L83.6094 55.7227L84.5138 55.2413L84.8905 55.4022L85.1026 55.5319L85.3154 55.8703L85.5471 56.3462L86.0992 56.9438L86.3312 57.1446L86.5291 57.4456L86.8042 58.2567L87.0455 58.8824L87.6927 59.8274L87.7569 59.9598L87.8004 60.1178L87.7569 60.6878L87.2966 61.9166L86.2585 62.2676L86.1618 62.3439L86.0992 62.4149L86.2536 62.7659L86.2776 62.9843L85.9879 63.4167L85.7158 64.5362L85.6772 64.9054L85.7589 65.079L86.0794 65.5393L86.2387 65.7317L86.8762 66.0292L87.4364 67.4949L87.4222 67.9208L87.3689 68.0762L87.4222 68.2416L87.5425 68.3312L87.8919 68.494L88.0463 68.6202L88.1044 68.8671L87.9886 69.1957L87.9788 69.2457V69.3167L88.0223 69.4325L88.1093 69.5613L88.3652 69.8004L88.4716 69.8241L88.5391 69.8134L88.7613 69.4718L89.0562 69.2246L89.1526 69.185L89.452 69.1986L91.633 69.6347L93.6044 69.6032L93.9136 69.5114L94.3772 69.1594L95.4458 68.7227L96.3732 68.8356L96.5582 69.1487L96.5919 69.2197L98.0693 71.3845L98.9834 72.2611L99.7273 72.177L100.927 72.324L101.802 72.1404L101.99 72.1511L102.164 72.2166L102.27 72.4551L102.299 72.6708V72.8333L102.434 72.883L102.56 72.9037L103.667 72.6335L103.913 72.7023L104.218 72.8359L104.324 72.907L104.406 73.051L104.459 73.2557L104.493 73.7621L104.483 74.0294L104.174 74.7924L107.215 75.4429L107.569 75.7154L107.591 75.7309Z" fill="#F37021" stroke="#222831" stroke-width="0.5" stroke-linejoin="round"/>
<path d="M81.8788 94.0411L81.6939 94.2251L81.6682 94.7652L81.9771 94.8914L82.8818 94.871L83.239 95.0423L83.9342 95.571L84.2431 95.8906L83.8249 97.3134L84.5392 98.2273L86.6479 99.1574L86.2842 100.28L86.1168 100.997L86.2521 101.613L88.3257 104.474L89.5809 105.93L89.8031 107.569L89.9543 108.477L89.8417 109.466L89.6036 110.528L89.5614 111.448L90.0318 112.011L89.8518 112.45L89.7548 113.543L89.5874 114.164L89.2782 114.603L88.4863 115.157L88.1616 115.478L86.5649 118.433L85.9083 119.237L85.589 119.786L85.322 120.777L85.2322 121.886L85.4541 122.804L86.185 123.213L87.7366 122.143L88.4513 122.39L88.2035 122.535L87.492 123.119L88.1454 123.731L87.6821 124.348L85.9083 125.314L83.0269 127.58L82.6084 128.064L82.0098 129.324L81.6264 129.747L81.0538 129.808L80.6382 129.427L80.2684 128.944L79.8369 128.701L78.9646 129.162L79.1414 130.321L79.6212 131.745L79.6533 132.993L80.0783 132.906L80.8861 132.504L81.3078 132.384L81.7389 132.443L82.5568 132.714L83.6737 132.579L83.738 132.837L83.5485 133.254L83.4291 133.665L83.4742 134.378L83.5543 134.771L83.7928 135.034L84.5269 135.496L85.5443 135.851L85.483 136.05L85.3188 136.318L85.2607 136.645L85.5245 137.66L85.5151 138.053L85.325 138.56L84.9775 138.978L84.2755 138.917L83.8473 139.162L83.5738 139.657L83.6027 140.082L83.6702 140.535L83.506 141.121L83.0583 141.541L82.5853 141.422L82.717 142.053L82.9555 142.466L83.2643 142.682L83.4671 142.982L83.3993 143.623L82.7722 143.74L80.5127 143.666L80.173 143.558L79.8175 143.445L77.1164 143.514L76.7979 143.29L76.1604 142.585L75.848 142.465L75.5713 142.679L75.2355 143.184L75.0821 143.415L74.7567 143.481L74.4187 143.412L73.8522 143.086L74.1741 141.956L74.2286 141.376L73.7426 141.23L73.0698 140.907L72.8884 140.78L72.3677 140.415L71.8623 139.664L71.7948 138.56L74.042 136.042L74.4024 135.897L74.7629 135.767L74.9111 135.647L75.3134 135.039L75.8509 133.89L76.2084 133.287L75.9057 133.105L75.6063 133.098L74.9111 133.287L76.1374 131.321L76.6302 130.113L76.2084 129.537L76.2824 128.881L76.4404 128.401L76.6944 128.243L77.0584 128.555L77.2932 128.234L77.4639 127.882L77.6958 127.202L77.6089 127.002L77.5606 126.851L77.483 126.492L77.8243 126.529L78.1588 126.478L78.4744 126.35L78.7612 126.156L78.0527 125.395L78.1526 124.828L78.5906 124.393L78.513 124.155L78.236 123.522L77.7049 123.48L76.7489 123.723L76.3336 123.373L75.6835 122.472L75.1749 122.167L74.7758 122.124L73.472 122.394L72.9374 122.399L72.5994 122.156L72.2999 121.811L71.8782 121.513L70.1141 120.978L69.5859 120.525L69.5927 120.523L70.1141 120.317L70.8596 120.091L71.1298 120.116L71.3618 120.014L71.5788 119.769L71.7527 119.417L72.0346 117.742L72.5848 116.765L72.7976 116.425L73.4587 115.568L76.4897 114.64L78.7031 113.934L79.6657 113.687L80.3849 113.086L81.5167 112.15L80.7586 110.53L79.6948 109.055L78.988 106.192L78.5052 103.04L79.6219 103.152L80.8118 103.555L81.179 103.561L82.0189 103.421L83.5466 102.893L83.8512 102.973L84.6106 103.499L85.0933 103.069L85.0998 102.665L84.9146 102.243L84.5331 100.75L84.4027 100.53L84.3689 100.351L83.7542 99.3163L83.4739 99.0338L83.1599 98.8417L83.0054 98.5851L83.2131 98.0998L82.7268 97.5574L82.3115 95.7446L81.8304 95.355L80.5733 95.2252L80.076 94.9109L79.8103 94.2945L79.9054 93.6888L79.2841 93.3819L79.2987 92.7062L79.579 92.5138L79.8879 92.4486L80.0374 92.4515L80.1292 92.4801L80.2694 92.675L80.8264 93.4449L80.9373 93.549L81.7341 94.0898L81.834 94.0557L81.8788 94.0411Z" fill="#F37021" stroke="#222831" stroke-width="0.5" stroke-linejoin="round"/>
<path d="M2.53789 119.136L2.31559 119.033L1.55907 118.201L1.11816 116.95L1.14089 115.79L1.26962 114.553L1 112.632L6.03025 110.999L6.49178 110.617L6.97843 110.56L8.95035 111.842L11.987 112.713L12.9857 113.602L13.6497 113.887H14.9071L16.0934 114.228L16.8462 114.118L19.8879 112.805L20.3061 112.312L20.4734 111.316L20.77 110.873L21.4417 110.906L22.1694 111.186L22.6177 111.471L22.8233 111.784L23.1731 112.561L23.4493 112.866L23.7966 112.986L24.5495 113.087L24.8613 113.343L25.0617 113.424L26.1392 113.513L26.6736 112.708L26.8713 112.522L27.4798 112.592L28.1629 112.993L28.1465 113.202L27.9144 114.362L27.7405 114.858L26.514 116.539L24.969 117.757L21.1089 119.706L19.6894 120.823L18.9908 121.048L15.3046 121.094L14.9182 120.923L14.4548 120.371L14.4033 119.852L14.4548 119.299L14.2939 118.647L13.7047 118.259L9.89665 116.989L9.10156 116.859L8.3318 116.904L7.09236 117.183L6.59329 117.213L6.13626 117.327L5.79502 117.68L5.73711 118.255L5.81773 118.885L5.72761 119.355L4.25287 119.587L3.2582 119.47L2.53789 119.136ZM30.0201 112.945L29.3955 112.924L29.2717 112.768L29.0209 112.183L28.9371 111.574L28.9522 111.059L28.8914 110.671L28.5744 110.446L28.2091 110.921L27.5251 111.128L24.7242 111.047L24.0776 110.832L23.449 110.446L21.7354 108.951L21.2257 108.742L19.9255 108.608L19.492 108.878L18.5668 110.633L18.2144 111.149L17.7355 111.405L16.6147 111.526L16.2142 111.783L15.8796 111.841L15.5449 111.689L14.693 110.787L12.8146 109.856L11.5979 108.683L11.1089 108.628L9.8187 109.112L9.11661 109.145L7.35244 108.742L6.79206 108.437L6.31839 107.729L5.90259 106.931L5.52725 106.351L4.50322 105.447L4.16353 104.909L4.03932 104.096L4.36655 103.639L7.57028 101.657L15.9327 100.749L16.6247 100.848L17.0913 101.117L17.5933 101.584L18.0392 102.2L18.3284 102.93L18.0014 103.063L17.4714 103.424L17.2636 103.615V103.925L20.2448 104.239L21.7581 104.854L23.043 105.979L23.4538 106.761L24.067 108.486L24.5283 109.112L25.2737 109.33L26.8959 109.104L27.5068 109.421L28.1227 109.22L29.1367 109.271L29.4801 109.175L29.4816 109.178L29.4914 109.198L29.6313 109.931L29.5202 110.133L29.4864 110.301L29.4285 110.453L29.4481 111.023L29.5686 111.988L29.8633 112.238L29.9791 112.556L30.0177 112.927L30.0201 112.945ZM28.4426 105.419L27.3273 105.217L26.0395 104.643L25.5605 104.602L24.5746 104.72L24.108 104.643L23.3578 104.194L20.894 101.876L22.5466 101.087L23.3732 100.854L26.1611 100.993L26.975 101.242L27.7053 101.862L27.7275 101.912L28.5454 102.847L28.6466 102.995L28.8639 103.629L28.8591 104.227L28.8205 104.429L28.4426 105.419ZM27.0614 100.545L25.832 100.492L25.5 100.364L25.1881 100.149L24.9399 99.8494L24.7826 99.4124L24.7183 99.0312L24.7242 99.0238L24.808 98.9144L25.3332 98.4632L26.0313 98.7357L26.6964 99.2187L27.3982 99.4961L27.4238 99.4883L27.4111 99.5253L27.0614 100.545ZM22.4047 97.0793L23.7052 97.4429L24.296 97.864L24.3594 98.6731L24.0374 99.1798L23.5257 99.5373L22.9727 99.7514L20.58 100.221L20.0272 100.192L18.8689 99.7595L18.1973 99.2817L17.898 98.6037L17.7003 97.9578L17.2087 97.5694L15.9866 97.0793L15.7789 96.8765L15.5838 96.6066L15.3226 96.3922L14.9068 96.3613L14.1384 97.2814L13.9563 97.453L12.5596 97.5328L11.9209 97.3427L11.5051 96.7354L11.5913 95.1094L12.724 94.3704L15.3478 93.9899L15.477 93.9429L15.9864 93.9899L16.3969 94.2147L19.383 94.2988L20.0725 94.4522L20.5794 94.8454L21.743 96.2812L21.895 96.545L22.0925 96.8149L22.4047 97.0793Z" fill="#F37021" stroke="#222831" stroke-width="0.5" stroke-linejoin="round"/>
<path d="M30.0215 112.945L30.0196 112.927L29.981 112.555L29.8652 112.238L29.5705 111.988L29.45 111.023L29.4304 110.453L29.4883 110.3L29.5221 110.132L29.6332 109.931L29.4933 109.198L29.4835 109.178L29.4819 109.175L30.0867 109.013L30.5076 107.872L30.2538 106.791L29.6051 105.983L28.7331 105.471L28.4439 105.418L28.8222 104.428L28.8608 104.226L28.8655 103.629L28.6482 102.994L28.547 102.847L27.7292 101.911L27.707 101.862L27.7088 101.863L27.7215 101.876L27.5769 100.931L27.1815 100.551L27.0625 100.545L27.4125 99.5242L27.4252 99.4873L28.7069 99.0772L29.9911 98.9682L31.6582 98.5325L32.8749 97.6972L33.8208 95.9525L37.0425 96.6068L38.2367 96.5708L39.3179 96.2435L40.6019 95.6255L41.3228 95.4075L42.3067 95.3945L43.8665 93.5071L44.3125 92.6254L44.9915 91.8893L45.8833 91.2022L47.5991 91.1759L48.3735 90.9284L49.577 89.8299L50.3803 89.817L51.9627 90.1371L52.7014 90.0667L52.7254 90.3532L52.7884 90.76L53.2779 91.2963L54.4367 92.1887L55.1916 92.2147L55.539 92.1027L56.69 92.8855L56.6852 93.6972L56.3377 94.5212L56.6144 94.6172L62.3159 93.983L62.9099 93.6839L63.4588 93.221L63.8595 92.5757L64.0175 91.7326L64.2828 90.7513L64.9041 90.4181L66.1628 90.5118L66.8019 90.2747L67.4117 89.814L68.0122 89.572L68.6095 89.9805L69.0633 90.132L71.0545 89.8244L72.4466 90.1368L72.6253 90.3558L73.0097 91.3267L73.3059 91.5454L73.908 91.704L76.0822 93.221L79.2854 93.3819L79.9067 93.6891L79.812 94.2944L80.0773 94.9108L80.5746 95.2252L81.8317 95.3549L82.3128 95.7446L82.7281 97.5573L83.2143 98.0998L83.0067 98.5851L83.1611 98.8417L83.4752 99.0337L83.7555 99.3163L84.3702 100.351L84.404 100.53L84.5344 100.75L84.9159 102.243L85.1011 102.665L85.0946 103.069L84.6122 103.499L83.8525 102.973L83.5478 102.893L82.0202 103.421L81.1806 103.561L80.8137 103.556L79.6238 103.152L78.5072 103.041L78.9896 106.193L79.6965 109.056L80.7605 110.53L81.5187 112.151L80.3868 113.086L79.6676 113.687L78.7051 113.935L76.4916 114.641L73.4607 115.568L72.7992 116.426L72.5867 116.766L72.0365 117.743L71.7546 119.418L71.5807 119.77L71.3637 120.015L71.1317 120.117L70.8615 120.091L70.116 120.318L69.5944 120.523L69.5876 120.526L69.4046 120.368L69.3047 119.237L69.0828 118.273L68.5066 117.517L67.7757 117.054L67.1026 116.976L66.4878 117.274L65.1811 118.199L64.5307 118.439L60.8447 118.283L59.8712 118.527L59.6697 118.577L59.1224 118.437L59.1066 116.664L58.5593 115.967L57.9831 115.909L56.7792 116.015L56.2414 115.716L56.0902 115.39L55.7713 114.29L55.6075 113.858L54.535 112.666L54.3355 112.182L54.4448 111.101L54.7926 110.302L54.9019 109.471L54.2904 108.3L53.3567 107.677L53.2695 107.558L52.79 107.682L52.6034 107.983L52.497 108.448L52.2816 109.063L51.7953 109.871L51.0778 110.847L50.292 111.614L49.6192 111.8L48.415 111.244L47.8424 111.089L45.6627 111.014L45.0029 110.728L45.1797 110.128L45.5304 110.076L46.8893 110.712L46.6638 109.844L46.8024 109.087L46.9951 108.37L46.9276 107.616L46.6061 107.192L46.0841 106.847L45.5177 106.63L45.0671 106.586L44.04 107.117L41.6323 110.087L41.3104 110.327L40.8923 110.487L40.4089 110.519L39.4143 110.267L38.5163 110.432L38.1043 110.394L37.509 109.966L37.5668 109.477L37.8308 108.855L37.8724 108.019L37.6245 107.602L37.2317 107.53L36.3113 107.682L34.6403 108.3L33.0114 109.255L33.3884 109.669L33.3241 110.025L33.1211 110.415L33.0984 110.92L33.34 111.37L34.0385 112.205L34.2286 112.695L34.0739 113.555L33.4815 113.871L32.0299 113.777L31.4277 113.571L30.3011 112.956L30.0215 112.945Z" fill="#F37021" stroke="#222831" stroke-width="0.5" stroke-linejoin="round"/>
<path d="M24.7166 99.0312L24.6841 98.8366L24.6764 98.2624L24.7702 97.8355L25.1757 97.392L25.7131 97.1649L26.7726 97.0789L26.4429 96.7357L25.6571 96.1713L23.4898 95.5046L23.041 94.8457L22.8432 93.175L22.3188 92.1304L21.5657 91.4423L20.6839 90.8338L20.0958 91.2766L19.3046 91.5221L18.5013 91.5205L17.8928 91.6925L17.7789 91.8975L17.5581 91.938L17.2616 91.928L16.9727 90.5282L17.8775 89.9131L19.832 89.3142L20.0981 88.9512L20.7064 88.9038L21.7484 89.142L22.6148 89.6136L22.7444 89.6402L22.9749 89.6136L23.2997 89.468L23.6796 89.142L23.4441 88.6803L22.6508 87.5825L22.4404 87.4099L22.2604 87.2026L22.1893 86.8886L22.2577 86.4941L22.4023 86.2164L22.5469 86.0172L22.6154 85.857L22.5141 85.0804L21.921 83.0963L21.5739 82.2466L21.7489 81.8642L21.9617 81.5261L23.4116 81.8515L24.6156 81.652L25.6801 80.9581L30.1285 75.5203L33.9357 69.9084L37.0893 64.1595L36.8051 64.6854L38.1699 65.3041L38.3484 65.3751L38.9057 65.499L39.5526 65.1594L40.2526 65.3281L38.944 67.5146L38.9008 67.6382L38.8622 67.8591L38.833 68.3353L38.6815 69.0211L38.2903 69.6888L38.3341 70.0644L38.6861 70.0385L38.992 70.3353L39.1419 70.4086L39.354 70.4479L40.1216 70.4294L41.4513 70.0722L42.1125 69.7543L43.3842 69.3417L43.5434 69.4494L43.6206 69.5259L43.7559 70.2747L43.862 70.5163L44.1923 70.6792L45.1772 70.0226L45.5827 70.7369L45.7377 70.9579L45.9278 71.147L46.6133 71.4201L48.1316 72.7272L47.8513 72.9582L47.9768 73.5197L48.1747 74.078L48.223 74.2487L48.2182 74.3719L48.1504 74.4586L48.0203 74.4949L47.5067 74.2487L47.3523 74.2117L47.2462 74.1621L47.1447 74.0858L46.9757 74.1225L46.8261 74.1724L46.0823 74.9643L45.8944 75.1768L46.3243 75.5541L46.7973 75.7276L47.1927 77.6164L48.6 77.6264L48.3758 77.9703L47.1499 78.5815L46.1608 80.0926L46.299 80.4137L47.7231 80.2207L47.8616 80.8316L47.4681 81.0778L47.2414 81.1849L47.0386 81.2507L46.9374 81.4019L47.2177 81.883L48.214 83.1605L48.8998 84.2155L49.1074 83.894L49.8139 83.9362L50.128 83.8058L51.0019 82.9016L52.0014 82.3216L52.0657 82.2431L53.3565 82.5383L53.6705 82.3998L54.1227 81.8197L54.3998 81.6056L55.1109 81.4093L55.3863 81.1949L55.676 81.0483L56.1055 81.1424L56.4857 81.4405L56.9153 82.1905L57.2085 82.5561L57.796 82.8698L58.0951 82.9165L57.3198 84.5149L57.1745 84.7605L56.0818 86.7225L56.135 87.0044L56.1928 87.2312V87.385L56.1639 87.4943L55.8408 87.7013L53.4489 88.7154L52.5494 88.7702L52.7472 89.0745L52.7424 89.1734L52.6603 89.5799L52.6989 90.0668L51.9602 90.1372L50.3778 89.8171L49.5745 89.83L48.371 90.9285L47.5966 91.176L45.8808 91.2023L44.9887 91.8894L44.3097 92.6255L43.864 93.5072L42.3039 95.3946L41.3203 95.4076L40.5994 95.6256L39.3151 96.2436L38.2342 96.5709L37.0397 96.6069L33.818 95.9526L32.8723 97.697L31.6556 98.5326L29.9884 98.9683L28.7043 99.0773L27.4226 99.4874L27.3969 99.4955L26.6951 99.2178L26.03 98.7347L25.3319 98.4622L24.8067 98.9135L24.7229 99.0231L24.7166 99.0312Z" fill="#F37021" stroke="#222831" stroke-width="0.5" stroke-linejoin="round"/>
<path d="M37.0938 64.1595L38.9773 58.602L39.2485 57.1545V56.7775L39.8593 55.4663L41.18 45.5118L41.7325 42.9648L41.8188 42.1882L42.1179 40.5769L43.4337 37.1472L43.7351 35.4522L43.7681 34.4942L43.8924 33.264L44.126 32.2L44.4861 31.7496L46.4024 32.0485L46.7112 31.7496L46.9444 32.1347L46.4783 33.7143L47.2053 34.658L48.4828 35.0382L49.7074 34.9542L50.4146 34.551L51.7376 33.3987L52.3838 33.1589L53.6256 32.9948L54.8477 32.4521L58.0136 29.6074L58.0243 29.6597L58.0869 29.8205L58.2079 30.3259L58.252 30.5114L58.2546 30.5209L60.5187 37.0308L63.949 40.898L63.9454 40.9509L63.5925 46.1116L62.0301 45.6127L61.0724 46.2777L60.5686 48.1888L55.3781 51.5919L56.134 54.9897L57.6457 57.2246L58.4522 59.4568H57.394L55.6298 61.1097L55.6801 62.7606L57.394 64.5757L58.3513 64.8232L59.5104 64.7408H60.1654L61.2236 65.0704L63.8637 66.8624L63.8173 66.8709L62.761 67.0623L61.0167 67.0645L60.7701 67.1593L60.63 67.2407L60.0652 68.1925L59.4309 69.7698L59.3249 70.3664L59.151 70.7443L58.9339 71.2773L58.7069 71.7396L58.0934 72.1649L56.363 72.0702L55.187 72.2898L54.6336 72.548L53.8161 72.72L53.6578 71.6449L53.4732 70.8705L53.7087 69.8379L54.2251 69.1995L54.0756 68.8864L53.9935 68.7735L53.9309 68.6765L53.8582 68.5844L53.7525 68.4874L53.6655 68.44L53.5977 68.3667L53.5494 68.2561L53.5157 68.067L53.4673 67.9113L53.3609 67.6855L53.5108 67.4461L54.462 67.0701L53.2016 66.9517L52.6978 67.1748L52.5531 66.9517L52.4036 66.8303L52.2151 66.7541L51.988 66.7512L51.2153 67.1804L50.6197 67.2858L50.33 67.2618L50.1853 67.349L50.0837 67.4383L49.649 68.2717L48.4114 68.4452L47.7305 68.782L47.2607 69.2705L46.633 69.594L45.1826 70.0219L44.1977 70.6788L43.8674 70.5156L43.7613 70.2739L43.6261 69.5252L43.5488 69.4486L43.3896 69.3413L42.1179 69.7536L41.4567 70.0715L40.127 70.429L39.3594 70.4475L39.1473 70.4079L38.9974 70.3346L38.6915 70.0378L38.3395 70.064L38.2957 69.6884L38.6869 69.0204L38.8384 68.3346L38.8676 67.8587L38.9062 67.6375L38.9494 67.5142L40.258 65.3273L39.558 65.1586L38.9111 65.4983L38.3538 65.3747L38.1753 65.3037L36.8105 64.6847L37.0938 64.1595ZM49.068 24.3194V24.6424H49.7068L49.4888 25.322L49.0833 26.1301L48.2161 27.4734L46.7485 28.6878L46.0491 30.057L44.9999 30.3668L43.9047 29.914L43.3091 28.5995L43.5015 27.244L44.1175 25.7106L44.8906 24.4529L46.3608 23.1793L47.0963 21.6216L47.8771 20.3362L48.8552 20.3891L48.9821 20.6936L49.0528 20.96L49.0304 21.2074L48.8552 21.4551L49.2964 22.1757L49.6156 23.0971L49.6078 23.9144L49.068 24.3194Z" fill="#F37021" stroke="#222831" stroke-width="0.5" stroke-linejoin="round"/>
<path d="M58.0115 29.6078L61.1164 26.8141L61.5755 26.2699L62.1532 25.7827L63.5904 25.4449L64.2239 25.0288L64.8627 23.7473L65.7146 20.2007L66.3482 18.6116L67.4434 17.3282L68.1175 16.7308L69.2633 16.2331L69.7879 15.6376L70.2748 14.927L70.8373 14.3463L71.4686 14.1214L72.9593 13.8689L74.0464 12.925L79.0348 10.9036L80.1576 10.0961L80.8726 10.0369L82.9612 8.95705L85.9671 8.80799L89.353 8.69986L89.0175 9.37181L88.8634 10.0006L89.1678 11.1365L89.6132 11.3332L90.2023 11.5031L90.3136 11.5705L90.4342 11.6839L90.613 11.9456L90.7434 12.091L90.8492 12.1531L90.9361 12.1801L91.0328 12.1748L91.1437 12.1315L91.3192 12.0128L91.4058 11.9752L91.5074 11.967L92.0819 12.161L92.1929 12.3339L92.2461 12.6223L92.1737 13.2744L92.1594 13.7838L92.2123 13.8459L92.2947 13.8943L92.502 13.9752V14.0288L92.4151 14.1338L91.8938 14.6215L91.4688 15.1091L91.353 15.3434L91.1972 16.0161L90.7333 16.8128L90.347 17.5875L90.4102 17.8323L90.4391 18.0501L90.5017 18.1794L90.5549 18.338L90.5887 18.486L90.5981 18.6282L90.516 18.8378L89.3601 20.3855L89.0419 21.0276L88.8245 22.1444L88.9699 23.258L89.2592 23.6307L89.6712 24.0037L89.9418 24.0923L91.2715 24.2207L91.8075 24.4139L92.9277 25.1512L93.1998 25.304L93.1421 26.0116L93.2384 26.1081L93.7267 26.4002L94.6052 26.7776L94.6772 26.9278L94.7515 27.2167L94.7229 27.5006L94.8916 28.0174L95.0074 28.5981L96.6944 30.8719L97.071 31.6601L97.0181 31.8898L96.9357 32.1759L96.0793 33.5941L95.8863 33.805L94.3975 34.809L93.3542 34.096L92.6577 33.9146L91.8273 33.9172L91.4892 34.1842L91.2719 34.4058L90.2321 35.6067L87.5927 37.6466L86.2841 38.1663L85.6836 38.2302L85.1765 38.3743L85.1039 38.4356L85.0705 38.4943L85.0413 38.7178L85.0124 38.8005L84.5683 39.3147L83.3453 39.2239L83.1905 39.1496L82.9057 38.894L82.5388 38.3503L82.3727 38.2727L82.2906 38.2568L82.2134 38.3525L82.0976 38.4323L81.4698 38.5845L81.3154 38.6802L81.2042 38.8054L81.1273 38.9783L81.0163 39.1782L80.8762 39.3887L80.7247 39.5405L79.8027 40.0946L79.5659 40.1397L79.392 40.1501L78.5116 40.0038L78.3957 39.9477L78.0288 39.6258L76.8681 40.2088L76.5541 39.4208L75.7771 38.5926L75.4757 38.4031L74.8386 38.5044L74.7565 38.5203L74.3247 38.4489H73.6195L72.8636 38.6156L72.1074 38.9494L71.0995 39.7835L69.7892 40.7837L63.9939 40.9504L63.9472 40.8975L60.5169 37.0299L58.2529 30.5203L58.2503 30.5108L58.2061 30.3252L58.0851 29.8198L58.0225 29.6591L58.0115 29.6078ZM48.6406 18.6116L49.9584 16.9024L51.9918 15.014L54.1082 13.7735L55.6771 13.99V14.3466H54.8456L54.4557 14.5712L53.5483 14.9191L51.0893 17.3285L50.4103 18.347L49.6142 19.0498L48.6406 18.6116ZM65.6056 7.68748L66.0238 7.36816L70.6424 6.4726L69.9173 7.48129L69.0349 7.79187L67.2199 7.86616L67.2808 8.04511L67.3542 8.42814L67.4151 8.61318L67.007 8.82992L65.7117 8.93856L64.3255 9.55286L63.2179 9.83782L58.901 11.7453L58.0138 11.7244L57.6339 10.934L57.9839 10.0356L59.6517 9.44662L60.2042 8.93856L60.9137 8.95761L65.0963 8.0964L65.6056 7.68748ZM73.405 5.72296L80.8755 5.41237L82.1453 6.08084L79.0627 6.79613H75.8589L75.0576 7.00921L73.5595 7.70042L72.7685 7.51116L72.2239 6.73031L72.4068 5.96192L72.9337 5.51702L73.405 5.72296ZM90.1552 3.58027L93.2401 3.30298L94.1095 3.58027V3.9379H93.6838L88.3301 5.67588L87.7115 6.47234L87.5288 6.14219L87.5191 5.97593L87.7115 5.7227L87.3845 5.0053L88.1676 4.31301L89.3338 3.78882L90.1552 3.58027Z" fill="#F37021" stroke="#222831" stroke-width="0.5" stroke-linejoin="round"/>
<path d="M63.9452 40.8981L63.992 40.951L69.7872 40.7842L71.0975 39.7841L72.1054 38.95L72.8613 38.6165L73.6175 38.4498H74.3228L74.7542 38.5212L74.8366 38.5053L75.4738 38.4041L75.7748 38.5932L76.5521 39.4217L76.8661 40.2097L79.1483 41.4606L80.5923 42.6418L80.9559 43.1258L81.173 43.4953L81.6174 44.8027L81.8542 46.1227L81.6803 46.3991L81.5551 46.6989L81.328 46.914L81.27 47.0015L81.3569 47.0839L81.6226 47.2114L82.8797 47.5826L83.488 47.9173L84.1738 48.7501L83.1791 49.3071L81.6758 49.8239L81.3812 49.8427L80.8745 49.758L80.699 49.6546L80.2883 49.6812L78.7065 50.4072L78.677 50.4413L78.3409 50.8283V51.4365L78.7775 51.8236L79.414 54.6868L79.4157 54.6952L79.3819 55.5231L79.0461 56.7916L78.5086 57.7288L77.8037 58.8311L77.199 59.5471L76.4265 60.2079L75.2509 60.7587L73.8744 61.4189L72.7997 61.8595L71.9601 62.3542L71.1205 63.0695L70.4487 63.7294L69.9449 64.9929L69.6091 66.0917L69.0047 67.1895L67.8965 67.5736L65.6795 67.8484L65.1475 67.655L65.0752 67.6288L63.8142 66.8696L63.8606 66.8612L61.2205 65.0692L60.1623 64.7396H59.5073L58.3482 64.822L57.3909 64.5745L55.677 62.7594L55.6267 61.1085L57.3909 59.4556H58.4491L57.6426 57.2233L56.1309 54.9885L55.375 51.5906L60.5655 48.1876L61.0693 46.2765L62.027 45.6114L63.5894 46.1104L63.9423 40.9497L63.9452 40.8981Z" fill="#F37021" stroke="#222831" stroke-width="0.5" stroke-linejoin="round"/>
<path d="M65.1471 67.6564L65.1415 67.6846L64.9576 68.6669L64.845 69.5366L64.773 70.0911L64.9469 70.3879L66.0736 71.3073L66.0103 71.8059L65.9042 72.0161L65.7015 72.1815L65.6434 72.2497L65.6197 72.3496L65.8079 72.6961L66.5469 72.94L67.1905 73.087L67.4079 73.257L67.683 73.669L67.8085 73.7896L68.0596 73.9492L68.3013 74.2221L68.3834 74.3376L68.3788 74.516L68.2241 74.82L68.2289 75.1606L68.2578 75.339V75.4357L68.2481 75.4934L67.91 75.4672L67.6687 75.9807L67.4851 76.5257L67.3936 76.6934L67.2437 76.8693L67.0072 77.0733L67.0556 77.1836L67.1182 77.2725L67.9876 77.7075L68.2721 77.6053L68.5971 77.3487L68.7032 77.3095L68.8288 77.2988L68.9543 77.2151L69.075 77.0733L69.2054 76.8271L69.2489 76.6279L69.268 76.4264L69.1324 76.0517L69.6447 75.9314L69.91 76.9581L69.9389 77.2329L70.0015 77.5291L69.958 78.7411L70.2335 80.2772L70.626 80.9834L71.268 81.6786L71.4808 82.1331L71.6112 82.3634L71.669 82.5646L71.7124 82.8261L71.6982 83.6199L71.5872 83.858L70.541 83.6017L68.1407 82.1519L66.7986 81.8671L66.4093 81.9742L65.7926 82.4183L65.5026 82.5568L65.1506 82.5412L64.3331 82.2434L63.6424 82.4027L62.7266 83.1109L62.0811 83.278L60.3315 82.3008L59.8679 82.4001L59.3064 82.8364L58.558 82.9801L58.0957 82.9175L57.7966 82.8705L57.2091 82.5568L56.9158 82.1912L56.4863 81.4412L56.1061 81.1433L55.6766 81.0493L55.3869 81.1956L55.1115 81.4103L54.4004 81.6063L54.1233 81.8204L53.6711 82.4008L53.3571 82.5393L52.0666 82.2441L52.0023 82.3226L51.0025 82.9023L50.1285 83.8064L49.8145 83.9368L49.108 83.895L48.9003 84.2165L48.2145 83.1615L47.2183 81.8836L46.938 81.4029L47.0392 81.2514L47.242 81.1858L47.4687 81.0785L47.8622 80.8322L47.7237 80.2214L46.2999 80.4144L46.1613 80.0932L47.1505 78.5821L48.3764 77.9709L48.6009 77.6274L47.1933 77.617L46.7978 75.7283L46.3248 75.5551L45.895 75.1775L46.0828 74.9653L46.8267 74.1734L46.9763 74.1235L47.1453 74.0865L47.2468 74.1627L47.3529 74.2123L47.5073 74.2493L48.0209 74.4959L48.1509 74.4592L48.2187 74.3726L48.2236 74.2493L48.1753 74.079L47.9774 73.5204L47.8518 72.9588L48.1321 72.7279L46.6139 71.4208L45.9284 71.1477L45.7383 70.9588L45.5832 70.7376L45.1777 70.0233L46.6282 69.5954L47.2559 69.2719L47.7256 68.7834L48.4066 68.4466L49.6442 68.2731L50.0789 67.4397L50.1804 67.3504L50.3251 67.2635L50.6148 67.2872L51.2104 67.1818L51.9832 66.7526L52.2103 66.7555L52.3988 66.8317L52.5483 66.953L52.693 67.1762L53.1971 66.953L54.4575 67.0715L53.506 67.4474L53.3561 67.6869L53.4625 67.913L53.5108 68.0684L53.5446 68.2575L53.5929 68.3681L53.6607 68.4414L53.7476 68.4888L53.8534 68.5858L53.9261 68.6779L53.9887 68.7749L54.0708 68.8878L54.2203 69.2009L53.7039 69.8393L53.4683 70.8719L53.6529 71.6463L53.8112 72.7214L54.6287 72.5494L55.1825 72.2912L56.3582 72.0716L58.0886 72.1663L58.702 71.741L58.9291 71.2787L59.1465 70.7457L59.32 70.3678L59.4261 69.7715L60.0603 68.1942L60.6251 67.2421L60.7653 67.1607L61.0118 67.0659L62.7562 67.0637L63.8124 66.8723L65.0734 67.6314L65.1471 67.6564Z" fill="#F37021" stroke="#222831" stroke-width="0.5" stroke-linejoin="round"/>
</svg>
