<svg width="35" height="21" viewBox="0 0 35 21" fill="none" xmlns="http://www.w3.org/2000/svg">
<path d="M34.458 6.36834C34.5546 5.97222 34.4996 5.55432 34.3039 5.19667C33.8042 4.3297 33.1383 3.56993 32.3443 2.96094C31.5503 2.35195 30.6439 1.90575 29.6771 1.64792C28.7102 1.39009 27.702 1.32572 26.7102 1.4585C25.7184 1.59128 24.7626 1.9186 23.8976 2.42167L20.583 4.33334L12.8747 0.71042C12.6556 0.596886 12.4123 0.537628 12.1655 0.537628C11.9187 0.537628 11.6755 0.596886 11.4564 0.71042L6.83137 3.3775C6.6028 3.50935 6.41189 3.69765 6.27693 3.92439C6.14196 4.15114 6.06745 4.40872 6.06053 4.6725C6.05307 4.93824 6.11445 5.20139 6.23871 5.4364C6.36297 5.67142 6.54589 5.8703 6.7697 6.01375L11.8572 9.22042L9.1747 10.7621L1.80553 11.6563C1.5093 11.6929 1.23007 11.8148 1.00175 12.007C0.773423 12.1993 0.605829 12.4537 0.519308 12.7394C0.432788 13.0251 0.431062 13.3297 0.514341 13.6164C0.59762 13.903 0.762322 14.1593 0.988451 14.3542L6.44595 19.0717C7.16444 19.7574 8.08459 20.1936 9.07025 20.3158C10.0559 20.4379 11.0547 20.2396 11.9189 19.75L33.6872 7.30875C33.8727 7.21245 34.0367 7.07942 34.1693 6.91775C34.3018 6.75609 34.4 6.56916 34.458 6.36834ZM10.516 17.16C10.2198 17.323 9.87832 17.3841 9.54405 17.3339C9.20978 17.2838 8.90125 17.1252 8.66595 16.8825L5.73678 14.3696L9.94553 13.8608C10.1524 13.8343 10.3517 13.7662 10.5314 13.6604L15.7114 10.685C15.9421 10.5518 16.1345 10.3611 16.2695 10.1314C16.4046 9.90176 16.4779 9.641 16.4822 9.37459C16.4854 9.10999 16.4204 8.84902 16.2935 8.61682C16.1666 8.38461 15.982 8.18898 15.7576 8.04875L10.6701 4.82667L12.366 3.85542L20.0743 7.43209C20.2934 7.54562 20.5366 7.60488 20.7835 7.60488C21.0303 7.60488 21.2735 7.54562 21.4926 7.43209L25.4393 5.15042C26.2481 4.69717 27.1744 4.49745 28.0981 4.57718C29.0217 4.6569 29.9001 5.01238 30.6193 5.5975L10.516 17.16Z" fill="#FFE600"/>
</svg>
