<svg width="328" height="328" viewBox="0 0 328 328" fill="none" xmlns="http://www.w3.org/2000/svg">
<path d="M0.878906 0.879395H6.60244V6.60292H0.878906V0.879395ZM6.60244 0.879395H12.326V6.60292H6.60244V0.879395ZM12.326 0.879395H18.0495V6.60292H12.326V0.879395ZM18.0495 0.879395H23.773V6.60292H18.0495V0.879395ZM23.773 0.879395H29.4966V6.60292H23.773V0.879395ZM29.4966 0.879395H35.2201V6.60292H29.4966V0.879395ZM35.2201 0.879395H40.9436V6.60292H35.2201V0.879395ZM69.5613 0.879395H75.2848V6.60292H69.5613V0.879395ZM75.2848 0.879395H81.0083V6.60292H75.2848V0.879395ZM86.7318 0.879395H92.4554V6.60292H86.7318V0.879395ZM98.1789 0.879395H103.902V6.60292H98.1789V0.879395ZM103.902 0.879395H109.626V6.60292H103.902V0.879395ZM109.626 0.879395H115.349V6.60292H109.626V0.879395ZM126.797 0.879395H132.52V6.60292H126.797V0.879395ZM184.032 0.879395H189.755V6.60292H184.032V0.879395ZM195.479 0.879395H201.202V6.60292H195.479V0.879395ZM206.926 0.879395H212.649V6.60292H206.926V0.879395ZM218.373 0.879395H224.097V6.60292H218.373V0.879395ZM224.097 0.879395H229.82V6.60292H224.097V0.879395ZM229.82 0.879395H235.544V6.60292H229.82V0.879395ZM241.267 0.879395H246.991V6.60292H241.267V0.879395ZM252.714 0.879395H258.438V6.60292H252.714V0.879395ZM258.438 0.879395H264.161V6.60292H258.438V0.879395ZM264.161 0.879395H269.885V6.60292H264.161V0.879395ZM269.885 0.879395H275.608V6.60292H269.885V0.879395ZM287.055 0.879395H292.779V6.60292H287.055V0.879395ZM292.779 0.879395H298.502V6.60292H292.779V0.879395ZM298.502 0.879395H304.226V6.60292H298.502V0.879395ZM304.226 0.879395H309.949V6.60292H304.226V0.879395ZM309.949 0.879395H315.673V6.60292H309.949V0.879395ZM315.673 0.879395H321.397V6.60292H315.673V0.879395ZM321.397 0.879395H327.12V6.60292H321.397V0.879395ZM0.878906 6.60292H6.60244V12.3265H0.878906V6.60292ZM35.2201 6.60292H40.9436V12.3265H35.2201V6.60292ZM46.6671 6.60292H52.3907V12.3265H46.6671V6.60292ZM63.8377 6.60292H69.5613V12.3265H63.8377V6.60292ZM69.5613 6.60292H75.2848V12.3265H69.5613V6.60292ZM81.0083 6.60292H86.7318V12.3265H81.0083V6.60292ZM92.4554 6.60292H98.1789V12.3265H92.4554V6.60292ZM98.1789 6.60292H103.902V12.3265H98.1789V6.60292ZM121.073 6.60292H126.797V12.3265H121.073V6.60292ZM126.797 6.60292H132.52V12.3265H126.797V6.60292ZM132.52 6.60292H138.244V12.3265H132.52V6.60292ZM143.967 6.60292H149.691V12.3265H143.967V6.60292ZM155.414 6.60292H161.138V12.3265H155.414V6.60292ZM184.032 6.60292H189.755V12.3265H184.032V6.60292ZM195.479 6.60292H201.202V12.3265H195.479V6.60292ZM201.202 6.60292H206.926V12.3265H201.202V6.60292ZM206.926 6.60292H212.649V12.3265H206.926V6.60292ZM212.649 6.60292H218.373V12.3265H212.649V6.60292ZM224.097 6.60292H229.82V12.3265H224.097V6.60292ZM252.714 6.60292H258.438V12.3265H252.714V6.60292ZM258.438 6.60292H264.161V12.3265H258.438V6.60292ZM269.885 6.60292H275.608V12.3265H269.885V6.60292ZM287.055 6.60292H292.779V12.3265H287.055V6.60292ZM321.397 6.60292H327.12V12.3265H321.397V6.60292ZM0.878906 12.3265H6.60244V18.05H0.878906V12.3265ZM12.326 12.3265H18.0495V18.05H12.326V12.3265ZM18.0495 12.3265H23.773V18.05H18.0495V12.3265ZM23.773 12.3265H29.4966V18.05H23.773V12.3265ZM35.2201 12.3265H40.9436V18.05H35.2201V12.3265ZM52.3907 12.3265H58.1142V18.05H52.3907V12.3265ZM58.1142 12.3265H63.8377V18.05H58.1142V12.3265ZM75.2848 12.3265H81.0083V18.05H75.2848V12.3265ZM81.0083 12.3265H86.7318V18.05H81.0083V12.3265ZM92.4554 12.3265H98.1789V18.05H92.4554V12.3265ZM98.1789 12.3265H103.902V18.05H98.1789V12.3265ZM138.244 12.3265H143.967V18.05H138.244V12.3265ZM155.414 12.3265H161.138V18.05H155.414V12.3265ZM172.585 12.3265H178.308V18.05H172.585V12.3265ZM178.308 12.3265H184.032V18.05H178.308V12.3265ZM195.479 12.3265H201.202V18.05H195.479V12.3265ZM218.373 12.3265H224.097V18.05H218.373V12.3265ZM224.097 12.3265H229.82V18.05H224.097V12.3265ZM235.544 12.3265H241.267V18.05H235.544V12.3265ZM252.714 12.3265H258.438V18.05H252.714V12.3265ZM258.438 12.3265H264.161V18.05H258.438V12.3265ZM264.161 12.3265H269.885V18.05H264.161V12.3265ZM269.885 12.3265H275.608V18.05H269.885V12.3265ZM287.055 12.3265H292.779V18.05H287.055V12.3265ZM298.502 12.3265H304.226V18.05H298.502V12.3265ZM304.226 12.3265H309.949V18.05H304.226V12.3265ZM309.949 12.3265H315.673V18.05H309.949V12.3265ZM321.397 12.3265H327.12V18.05H321.397V12.3265ZM0.878906 18.05H6.60244V23.7735H0.878906V18.05ZM12.326 18.05H18.0495V23.7735H12.326V18.05ZM18.0495 18.05H23.773V23.7735H18.0495V18.05ZM23.773 18.05H29.4966V23.7735H23.773V18.05ZM35.2201 18.05H40.9436V23.7735H35.2201V18.05ZM46.6671 18.05H52.3907V23.7735H46.6671V18.05ZM63.8377 18.05H69.5613V23.7735H63.8377V18.05ZM75.2848 18.05H81.0083V23.7735H75.2848V18.05ZM86.7318 18.05H92.4554V23.7735H86.7318V18.05ZM103.902 18.05H109.626V23.7735H103.902V18.05ZM115.349 18.05H121.073V23.7735H115.349V18.05ZM121.073 18.05H126.797V23.7735H121.073V18.05ZM161.138 18.05H166.861V23.7735H161.138V18.05ZM166.861 18.05H172.585V23.7735H166.861V18.05ZM172.585 18.05H178.308V23.7735H172.585V18.05ZM178.308 18.05H184.032V23.7735H178.308V18.05ZM184.032 18.05H189.755V23.7735H184.032V18.05ZM195.479 18.05H201.202V23.7735H195.479V18.05ZM201.202 18.05H206.926V23.7735H201.202V18.05ZM206.926 18.05H212.649V23.7735H206.926V18.05ZM212.649 18.05H218.373V23.7735H212.649V18.05ZM218.373 18.05H224.097V23.7735H218.373V18.05ZM224.097 18.05H229.82V23.7735H224.097V18.05ZM229.82 18.05H235.544V23.7735H229.82V18.05ZM235.544 18.05H241.267V23.7735H235.544V18.05ZM246.991 18.05H252.714V23.7735H246.991V18.05ZM252.714 18.05H258.438V23.7735H252.714V18.05ZM258.438 18.05H264.161V23.7735H258.438V18.05ZM269.885 18.05H275.608V23.7735H269.885V18.05ZM287.055 18.05H292.779V23.7735H287.055V18.05ZM298.502 18.05H304.226V23.7735H298.502V18.05ZM304.226 18.05H309.949V23.7735H304.226V18.05ZM309.949 18.05H315.673V23.7735H309.949V18.05ZM321.397 18.05H327.12V23.7735H321.397V18.05ZM0.878906 23.7735H6.60244V29.497H0.878906V23.7735ZM12.326 23.7735H18.0495V29.497H12.326V23.7735ZM18.0495 23.7735H23.773V29.497H18.0495V23.7735ZM23.773 23.7735H29.4966V29.497H23.773V23.7735ZM35.2201 23.7735H40.9436V29.497H35.2201V23.7735ZM46.6671 23.7735H52.3907V29.497H46.6671V23.7735ZM52.3907 23.7735H58.1142V29.497H52.3907V23.7735ZM58.1142 23.7735H63.8377V29.497H58.1142V23.7735ZM63.8377 23.7735H69.5613V29.497H63.8377V23.7735ZM69.5613 23.7735H75.2848V29.497H69.5613V23.7735ZM75.2848 23.7735H81.0083V29.497H75.2848V23.7735ZM81.0083 23.7735H86.7318V29.497H81.0083V23.7735ZM86.7318 23.7735H92.4554V29.497H86.7318V23.7735ZM109.626 23.7735H115.349V29.497H109.626V23.7735ZM115.349 23.7735H121.073V29.497H115.349V23.7735ZM121.073 23.7735H126.797V29.497H121.073V23.7735ZM132.52 23.7735H138.244V29.497H132.52V23.7735ZM138.244 23.7735H143.967V29.497H138.244V23.7735ZM143.967 23.7735H149.691V29.497H143.967V23.7735ZM149.691 23.7735H155.414V29.497H149.691V23.7735ZM155.414 23.7735H161.138V29.497H155.414V23.7735ZM161.138 23.7735H166.861V29.497H161.138V23.7735ZM166.861 23.7735H172.585V29.497H166.861V23.7735ZM172.585 23.7735H178.308V29.497H172.585V23.7735ZM206.926 23.7735H212.649V29.497H206.926V23.7735ZM218.373 23.7735H224.097V29.497H218.373V23.7735ZM241.267 23.7735H246.991V29.497H241.267V23.7735ZM246.991 23.7735H252.714V29.497H246.991V23.7735ZM269.885 23.7735H275.608V29.497H269.885V23.7735ZM287.055 23.7735H292.779V29.497H287.055V23.7735ZM298.502 23.7735H304.226V29.497H298.502V23.7735ZM304.226 23.7735H309.949V29.497H304.226V23.7735ZM309.949 23.7735H315.673V29.497H309.949V23.7735ZM321.397 23.7735H327.12V29.497H321.397V23.7735ZM0.878906 29.497H6.60244V35.2206H0.878906V29.497ZM35.2201 29.497H40.9436V35.2206H35.2201V29.497ZM75.2848 29.497H81.0083V35.2206H75.2848V29.497ZM81.0083 29.497H86.7318V35.2206H81.0083V29.497ZM92.4554 29.497H98.1789V35.2206H92.4554V29.497ZM103.902 29.497H109.626V35.2206H103.902V29.497ZM109.626 29.497H115.349V35.2206H109.626V29.497ZM115.349 29.497H121.073V35.2206H115.349V29.497ZM121.073 29.497H126.797V35.2206H121.073V29.497ZM126.797 29.497H132.52V35.2206H126.797V29.497ZM143.967 29.497H149.691V35.2206H143.967V29.497ZM149.691 29.497H155.414V35.2206H149.691V29.497ZM172.585 29.497H178.308V35.2206H172.585V29.497ZM201.202 29.497H206.926V35.2206H201.202V29.497ZM206.926 29.497H212.649V35.2206H206.926V29.497ZM212.649 29.497H218.373V35.2206H212.649V29.497ZM218.373 29.497H224.097V35.2206H218.373V29.497ZM229.82 29.497H235.544V35.2206H229.82V29.497ZM246.991 29.497H252.714V35.2206H246.991V29.497ZM252.714 29.497H258.438V35.2206H252.714V29.497ZM264.161 29.497H269.885V35.2206H264.161V29.497ZM287.055 29.497H292.779V35.2206H287.055V29.497ZM321.397 29.497H327.12V35.2206H321.397V29.497ZM0.878906 35.2206H6.60244V40.9441H0.878906V35.2206ZM6.60244 35.2206H12.326V40.9441H6.60244V35.2206ZM12.326 35.2206H18.0495V40.9441H12.326V35.2206ZM18.0495 35.2206H23.773V40.9441H18.0495V35.2206ZM23.773 35.2206H29.4966V40.9441H23.773V35.2206ZM29.4966 35.2206H35.2201V40.9441H29.4966V35.2206ZM35.2201 35.2206H40.9436V40.9441H35.2201V35.2206ZM46.6671 35.2206H52.3907V40.9441H46.6671V35.2206ZM58.1142 35.2206H63.8377V40.9441H58.1142V35.2206ZM69.5613 35.2206H75.2848V40.9441H69.5613V35.2206ZM81.0083 35.2206H86.7318V40.9441H81.0083V35.2206ZM92.4554 35.2206H98.1789V40.9441H92.4554V35.2206ZM103.902 35.2206H109.626V40.9441H103.902V35.2206ZM115.349 35.2206H121.073V40.9441H115.349V35.2206ZM126.797 35.2206H132.52V40.9441H126.797V35.2206ZM138.244 35.2206H143.967V40.9441H138.244V35.2206ZM149.691 35.2206H155.414V40.9441H149.691V35.2206ZM161.138 35.2206H166.861V40.9441H161.138V35.2206ZM172.585 35.2206H178.308V40.9441H172.585V35.2206ZM184.032 35.2206H189.755V40.9441H184.032V35.2206ZM195.479 35.2206H201.202V40.9441H195.479V35.2206ZM206.926 35.2206H212.649V40.9441H206.926V35.2206ZM218.373 35.2206H224.097V40.9441H218.373V35.2206ZM229.82 35.2206H235.544V40.9441H229.82V35.2206ZM241.267 35.2206H246.991V40.9441H241.267V35.2206ZM252.714 35.2206H258.438V40.9441H252.714V35.2206ZM264.161 35.2206H269.885V40.9441H264.161V35.2206ZM275.608 35.2206H281.332V40.9441H275.608V35.2206ZM287.055 35.2206H292.779V40.9441H287.055V35.2206ZM292.779 35.2206H298.502V40.9441H292.779V35.2206ZM298.502 35.2206H304.226V40.9441H298.502V35.2206ZM304.226 35.2206H309.949V40.9441H304.226V35.2206ZM309.949 35.2206H315.673V40.9441H309.949V35.2206ZM315.673 35.2206H321.397V40.9441H315.673V35.2206ZM321.397 35.2206H327.12V40.9441H321.397V35.2206ZM46.6671 40.9441H52.3907V46.6676H46.6671V40.9441ZM58.1142 40.9441H63.8377V46.6676H58.1142V40.9441ZM63.8377 40.9441H69.5613V46.6676H63.8377V40.9441ZM81.0083 40.9441H86.7318V46.6676H81.0083V40.9441ZM103.902 40.9441H109.626V46.6676H103.902V40.9441ZM109.626 40.9441H115.349V46.6676H109.626V40.9441ZM149.691 40.9441H155.414V46.6676H149.691V40.9441ZM172.585 40.9441H178.308V46.6676H172.585V40.9441ZM201.202 40.9441H206.926V46.6676H201.202V40.9441ZM206.926 40.9441H212.649V46.6676H206.926V40.9441ZM224.097 40.9441H229.82V46.6676H224.097V40.9441ZM229.82 40.9441H235.544V46.6676H229.82V40.9441ZM241.267 40.9441H246.991V46.6676H241.267V40.9441ZM246.991 40.9441H252.714V46.6676H246.991V40.9441ZM252.714 40.9441H258.438V46.6676H252.714V40.9441ZM269.885 40.9441H275.608V46.6676H269.885V40.9441ZM6.60244 46.6676H12.326V52.3912H6.60244V46.6676ZM18.0495 46.6676H23.773V52.3912H18.0495V46.6676ZM23.773 46.6676H29.4966V52.3912H23.773V46.6676ZM29.4966 46.6676H35.2201V52.3912H29.4966V46.6676ZM35.2201 46.6676H40.9436V52.3912H35.2201V46.6676ZM46.6671 46.6676H52.3907V52.3912H46.6671V46.6676ZM52.3907 46.6676H58.1142V52.3912H52.3907V46.6676ZM58.1142 46.6676H63.8377V52.3912H58.1142V46.6676ZM69.5613 46.6676H75.2848V52.3912H69.5613V46.6676ZM81.0083 46.6676H86.7318V52.3912H81.0083V46.6676ZM98.1789 46.6676H103.902V52.3912H98.1789V46.6676ZM103.902 46.6676H109.626V52.3912H103.902V46.6676ZM115.349 46.6676H121.073V52.3912H115.349V46.6676ZM132.52 46.6676H138.244V52.3912H132.52V46.6676ZM143.967 46.6676H149.691V52.3912H143.967V46.6676ZM149.691 46.6676H155.414V52.3912H149.691V46.6676ZM155.414 46.6676H161.138V52.3912H155.414V46.6676ZM161.138 46.6676H166.861V52.3912H161.138V46.6676ZM166.861 46.6676H172.585V52.3912H166.861V46.6676ZM172.585 46.6676H178.308V52.3912H172.585V46.6676ZM178.308 46.6676H184.032V52.3912H178.308V46.6676ZM206.926 46.6676H212.649V52.3912H206.926V46.6676ZM212.649 46.6676H218.373V52.3912H212.649V46.6676ZM218.373 46.6676H224.097V52.3912H218.373V46.6676ZM229.82 46.6676H235.544V52.3912H229.82V46.6676ZM252.714 46.6676H258.438V52.3912H252.714V46.6676ZM269.885 46.6676H275.608V52.3912H269.885V46.6676ZM281.332 46.6676H287.055V52.3912H281.332V46.6676ZM287.055 46.6676H292.779V52.3912H287.055V46.6676ZM298.502 46.6676H304.226V52.3912H298.502V46.6676ZM304.226 46.6676H309.949V52.3912H304.226V46.6676ZM315.673 46.6676H321.397V52.3912H315.673V46.6676ZM12.326 52.3912H18.0495V58.1147H12.326V52.3912ZM23.773 52.3912H29.4966V58.1147H23.773V52.3912ZM29.4966 52.3912H35.2201V58.1147H29.4966V52.3912ZM69.5613 52.3912H75.2848V58.1147H69.5613V52.3912ZM75.2848 52.3912H81.0083V58.1147H75.2848V52.3912ZM92.4554 52.3912H98.1789V58.1147H92.4554V52.3912ZM103.902 52.3912H109.626V58.1147H103.902V52.3912ZM115.349 52.3912H121.073V58.1147H115.349V52.3912ZM121.073 52.3912H126.797V58.1147H121.073V52.3912ZM126.797 52.3912H132.52V58.1147H126.797V52.3912ZM132.52 52.3912H138.244V58.1147H132.52V52.3912ZM143.967 52.3912H149.691V58.1147H143.967V52.3912ZM161.138 52.3912H166.861V58.1147H161.138V52.3912ZM172.585 52.3912H178.308V58.1147H172.585V52.3912ZM184.032 52.3912H189.755V58.1147H184.032V52.3912ZM195.479 52.3912H201.202V58.1147H195.479V52.3912ZM201.202 52.3912H206.926V58.1147H201.202V52.3912ZM206.926 52.3912H212.649V58.1147H206.926V52.3912ZM212.649 52.3912H218.373V58.1147H212.649V52.3912ZM229.82 52.3912H235.544V58.1147H229.82V52.3912ZM235.544 52.3912H241.267V58.1147H235.544V52.3912ZM241.267 52.3912H246.991V58.1147H241.267V52.3912ZM264.161 52.3912H269.885V58.1147H264.161V52.3912ZM269.885 52.3912H275.608V58.1147H269.885V52.3912ZM275.608 52.3912H281.332V58.1147H275.608V52.3912ZM281.332 52.3912H287.055V58.1147H281.332V52.3912ZM287.055 52.3912H292.779V58.1147H287.055V52.3912ZM298.502 52.3912H304.226V58.1147H298.502V52.3912ZM304.226 52.3912H309.949V58.1147H304.226V52.3912ZM0.878906 58.1147H6.60244V63.8382H0.878906V58.1147ZM6.60244 58.1147H12.326V63.8382H6.60244V58.1147ZM35.2201 58.1147H40.9436V63.8382H35.2201V58.1147ZM40.9436 58.1147H46.6671V63.8382H40.9436V58.1147ZM46.6671 58.1147H52.3907V63.8382H46.6671V58.1147ZM52.3907 58.1147H58.1142V63.8382H52.3907V58.1147ZM63.8377 58.1147H69.5613V63.8382H63.8377V58.1147ZM69.5613 58.1147H75.2848V63.8382H69.5613V58.1147ZM98.1789 58.1147H103.902V63.8382H98.1789V58.1147ZM103.902 58.1147H109.626V63.8382H103.902V58.1147ZM109.626 58.1147H115.349V63.8382H109.626V58.1147ZM121.073 58.1147H126.797V63.8382H121.073V58.1147ZM132.52 58.1147H138.244V63.8382H132.52V58.1147ZM143.967 58.1147H149.691V63.8382H143.967V58.1147ZM149.691 58.1147H155.414V63.8382H149.691V58.1147ZM166.861 58.1147H172.585V63.8382H166.861V58.1147ZM189.755 58.1147H195.479V63.8382H189.755V58.1147ZM195.479 58.1147H201.202V63.8382H195.479V58.1147ZM201.202 58.1147H206.926V63.8382H201.202V58.1147ZM206.926 58.1147H212.649V63.8382H206.926V58.1147ZM218.373 58.1147H224.097V63.8382H218.373V58.1147ZM229.82 58.1147H235.544V63.8382H229.82V58.1147ZM235.544 58.1147H241.267V63.8382H235.544V58.1147ZM246.991 58.1147H252.714V63.8382H246.991V58.1147ZM258.438 58.1147H264.161V63.8382H258.438V58.1147ZM275.608 58.1147H281.332V63.8382H275.608V58.1147ZM298.502 58.1147H304.226V63.8382H298.502V58.1147ZM309.949 58.1147H315.673V63.8382H309.949V58.1147ZM315.673 58.1147H321.397V63.8382H315.673V58.1147ZM321.397 58.1147H327.12V63.8382H321.397V58.1147ZM0.878906 63.8382H6.60244V69.5617H0.878906V63.8382ZM6.60244 63.8382H12.326V69.5617H6.60244V63.8382ZM18.0495 63.8382H23.773V69.5617H18.0495V63.8382ZM40.9436 63.8382H46.6671V69.5617H40.9436V63.8382ZM69.5613 63.8382H75.2848V69.5617H69.5613V63.8382ZM75.2848 63.8382H81.0083V69.5617H75.2848V63.8382ZM92.4554 63.8382H98.1789V69.5617H92.4554V63.8382ZM98.1789 63.8382H103.902V69.5617H98.1789V63.8382ZM115.349 63.8382H121.073V69.5617H115.349V63.8382ZM138.244 63.8382H143.967V69.5617H138.244V63.8382ZM166.861 63.8382H172.585V69.5617H166.861V63.8382ZM184.032 63.8382H189.755V69.5617H184.032V63.8382ZM189.755 63.8382H195.479V69.5617H189.755V63.8382ZM195.479 63.8382H201.202V69.5617H195.479V63.8382ZM212.649 63.8382H218.373V69.5617H212.649V63.8382ZM218.373 63.8382H224.097V69.5617H218.373V63.8382ZM241.267 63.8382H246.991V69.5617H241.267V63.8382ZM246.991 63.8382H252.714V69.5617H246.991V63.8382ZM252.714 63.8382H258.438V69.5617H252.714V63.8382ZM264.161 63.8382H269.885V69.5617H264.161V63.8382ZM292.779 63.8382H298.502V69.5617H292.779V63.8382ZM309.949 63.8382H315.673V69.5617H309.949V63.8382ZM315.673 63.8382H321.397V69.5617H315.673V63.8382ZM0.878906 69.5617H6.60244V75.2853H0.878906V69.5617ZM12.326 69.5617H18.0495V75.2853H12.326V69.5617ZM23.773 69.5617H29.4966V75.2853H23.773V69.5617ZM35.2201 69.5617H40.9436V75.2853H35.2201V69.5617ZM46.6671 69.5617H52.3907V75.2853H46.6671V69.5617ZM58.1142 69.5617H63.8377V75.2853H58.1142V69.5617ZM63.8377 69.5617H69.5613V75.2853H63.8377V69.5617ZM69.5613 69.5617H75.2848V75.2853H69.5613V69.5617ZM86.7318 69.5617H92.4554V75.2853H86.7318V69.5617ZM92.4554 69.5617H98.1789V75.2853H92.4554V69.5617ZM98.1789 69.5617H103.902V75.2853H98.1789V69.5617ZM109.626 69.5617H115.349V75.2853H109.626V69.5617ZM126.797 69.5617H132.52V75.2853H126.797V69.5617ZM143.967 69.5617H149.691V75.2853H143.967V69.5617ZM155.414 69.5617H161.138V75.2853H155.414V69.5617ZM161.138 69.5617H166.861V75.2853H161.138V69.5617ZM189.755 69.5617H195.479V75.2853H189.755V69.5617ZM195.479 69.5617H201.202V75.2853H195.479V69.5617ZM206.926 69.5617H212.649V75.2853H206.926V69.5617ZM212.649 69.5617H218.373V75.2853H212.649V69.5617ZM229.82 69.5617H235.544V75.2853H229.82V69.5617ZM241.267 69.5617H246.991V75.2853H241.267V69.5617ZM252.714 69.5617H258.438V75.2853H252.714V69.5617ZM298.502 69.5617H304.226V75.2853H298.502V69.5617ZM304.226 69.5617H309.949V75.2853H304.226V69.5617ZM6.60244 75.2853H12.326V81.0088H6.60244V75.2853ZM23.773 75.2853H29.4966V81.0088H23.773V75.2853ZM46.6671 75.2853H52.3907V81.0088H46.6671V75.2853ZM52.3907 75.2853H58.1142V81.0088H52.3907V75.2853ZM75.2848 75.2853H81.0083V81.0088H75.2848V75.2853ZM81.0083 75.2853H86.7318V81.0088H81.0083V75.2853ZM98.1789 75.2853H103.902V81.0088H98.1789V75.2853ZM109.626 75.2853H115.349V81.0088H109.626V75.2853ZM115.349 75.2853H121.073V81.0088H115.349V75.2853ZM121.073 75.2853H126.797V81.0088H121.073V75.2853ZM138.244 75.2853H143.967V81.0088H138.244V75.2853ZM143.967 75.2853H149.691V81.0088H143.967V75.2853ZM149.691 75.2853H155.414V81.0088H149.691V75.2853ZM155.414 75.2853H161.138V81.0088H155.414V75.2853ZM178.308 75.2853H184.032V81.0088H178.308V75.2853ZM201.202 75.2853H206.926V81.0088H201.202V75.2853ZM218.373 75.2853H224.097V81.0088H218.373V75.2853ZM224.097 75.2853H229.82V81.0088H224.097V75.2853ZM235.544 75.2853H241.267V81.0088H235.544V75.2853ZM241.267 75.2853H246.991V81.0088H241.267V75.2853ZM252.714 75.2853H258.438V81.0088H252.714V75.2853ZM269.885 75.2853H275.608V81.0088H269.885V75.2853ZM275.608 75.2853H281.332V81.0088H275.608V75.2853ZM281.332 75.2853H287.055V81.0088H281.332V75.2853ZM287.055 75.2853H292.779V81.0088H287.055V75.2853ZM304.226 75.2853H309.949V81.0088H304.226V75.2853ZM315.673 75.2853H321.397V81.0088H315.673V75.2853ZM12.326 81.0088H18.0495V86.7323H12.326V81.0088ZM35.2201 81.0088H40.9436V86.7323H35.2201V81.0088ZM52.3907 81.0088H58.1142V86.7323H52.3907V81.0088ZM58.1142 81.0088H63.8377V86.7323H58.1142V81.0088ZM63.8377 81.0088H69.5613V86.7323H63.8377V81.0088ZM75.2848 81.0088H81.0083V86.7323H75.2848V81.0088ZM81.0083 81.0088H86.7318V86.7323H81.0083V81.0088ZM98.1789 81.0088H103.902V86.7323H98.1789V81.0088ZM103.902 81.0088H109.626V86.7323H103.902V81.0088ZM121.073 81.0088H126.797V86.7323H121.073V81.0088ZM132.52 81.0088H138.244V86.7323H132.52V81.0088ZM138.244 81.0088H143.967V86.7323H138.244V81.0088ZM143.967 81.0088H149.691V86.7323H143.967V81.0088ZM172.585 81.0088H178.308V86.7323H172.585V81.0088ZM178.308 81.0088H184.032V86.7323H178.308V81.0088ZM189.755 81.0088H195.479V86.7323H189.755V81.0088ZM206.926 81.0088H212.649V86.7323H206.926V81.0088ZM218.373 81.0088H224.097V86.7323H218.373V81.0088ZM252.714 81.0088H258.438V86.7323H252.714V81.0088ZM269.885 81.0088H275.608V86.7323H269.885V81.0088ZM275.608 81.0088H281.332V86.7323H275.608V81.0088ZM281.332 81.0088H287.055V86.7323H281.332V81.0088ZM287.055 81.0088H292.779V86.7323H287.055V81.0088ZM298.502 81.0088H304.226V86.7323H298.502V81.0088ZM0.878906 86.7323H6.60244V92.4559H0.878906V86.7323ZM6.60244 86.7323H12.326V92.4559H6.60244V86.7323ZM12.326 86.7323H18.0495V92.4559H12.326V86.7323ZM23.773 86.7323H29.4966V92.4559H23.773V86.7323ZM46.6671 86.7323H52.3907V92.4559H46.6671V86.7323ZM75.2848 86.7323H81.0083V92.4559H75.2848V86.7323ZM81.0083 86.7323H86.7318V92.4559H81.0083V86.7323ZM86.7318 86.7323H92.4554V92.4559H86.7318V86.7323ZM92.4554 86.7323H98.1789V92.4559H92.4554V86.7323ZM132.52 86.7323H138.244V92.4559H132.52V86.7323ZM138.244 86.7323H143.967V92.4559H138.244V86.7323ZM184.032 86.7323H189.755V92.4559H184.032V86.7323ZM189.755 86.7323H195.479V92.4559H189.755V86.7323ZM195.479 86.7323H201.202V92.4559H195.479V86.7323ZM212.649 86.7323H218.373V92.4559H212.649V86.7323ZM235.544 86.7323H241.267V92.4559H235.544V86.7323ZM264.161 86.7323H269.885V92.4559H264.161V86.7323ZM269.885 86.7323H275.608V92.4559H269.885V86.7323ZM281.332 86.7323H287.055V92.4559H281.332V86.7323ZM292.779 86.7323H298.502V92.4559H292.779V86.7323ZM304.226 86.7323H309.949V92.4559H304.226V86.7323ZM309.949 86.7323H315.673V92.4559H309.949V86.7323ZM315.673 86.7323H321.397V92.4559H315.673V86.7323ZM321.397 86.7323H327.12V92.4559H321.397V86.7323ZM12.326 92.4559H18.0495V98.1794H12.326V92.4559ZM23.773 92.4559H29.4966V98.1794H23.773V92.4559ZM35.2201 92.4559H40.9436V98.1794H35.2201V92.4559ZM40.9436 92.4559H46.6671V98.1794H40.9436V92.4559ZM46.6671 92.4559H52.3907V98.1794H46.6671V92.4559ZM52.3907 92.4559H58.1142V98.1794H52.3907V92.4559ZM58.1142 92.4559H63.8377V98.1794H58.1142V92.4559ZM109.626 92.4559H115.349V98.1794H109.626V92.4559ZM115.349 92.4559H121.073V98.1794H115.349V92.4559ZM138.244 92.4559H143.967V98.1794H138.244V92.4559ZM155.414 92.4559H161.138V98.1794H155.414V92.4559ZM172.585 92.4559H178.308V98.1794H172.585V92.4559ZM206.926 92.4559H212.649V98.1794H206.926V92.4559ZM212.649 92.4559H218.373V98.1794H212.649V92.4559ZM241.267 92.4559H246.991V98.1794H241.267V92.4559ZM252.714 92.4559H258.438V98.1794H252.714V92.4559ZM258.438 92.4559H264.161V98.1794H258.438V92.4559ZM264.161 92.4559H269.885V98.1794H264.161V92.4559ZM269.885 92.4559H275.608V98.1794H269.885V92.4559ZM287.055 92.4559H292.779V98.1794H287.055V92.4559ZM304.226 92.4559H309.949V98.1794H304.226V92.4559ZM6.60244 98.1794H12.326V103.903H6.60244V98.1794ZM12.326 98.1794H18.0495V103.903H12.326V98.1794ZM23.773 98.1794H29.4966V103.903H23.773V98.1794ZM40.9436 98.1794H46.6671V103.903H40.9436V98.1794ZM46.6671 98.1794H52.3907V103.903H46.6671V98.1794ZM63.8377 98.1794H69.5613V103.903H63.8377V98.1794ZM75.2848 98.1794H81.0083V103.903H75.2848V98.1794ZM81.0083 98.1794H86.7318V103.903H81.0083V98.1794ZM86.7318 98.1794H92.4554V103.903H86.7318V98.1794ZM109.626 98.1794H115.349V103.903H109.626V98.1794ZM126.797 98.1794H132.52V103.903H126.797V98.1794ZM143.967 98.1794H149.691V103.903H143.967V98.1794ZM166.861 98.1794H172.585V103.903H166.861V98.1794ZM178.308 98.1794H184.032V103.903H178.308V98.1794ZM184.032 98.1794H189.755V103.903H184.032V98.1794ZM189.755 98.1794H195.479V103.903H189.755V98.1794ZM195.479 98.1794H201.202V103.903H195.479V98.1794ZM201.202 98.1794H206.926V103.903H201.202V98.1794ZM212.649 98.1794H218.373V103.903H212.649V98.1794ZM224.097 98.1794H229.82V103.903H224.097V98.1794ZM235.544 98.1794H241.267V103.903H235.544V98.1794ZM241.267 98.1794H246.991V103.903H241.267V98.1794ZM246.991 98.1794H252.714V103.903H246.991V98.1794ZM258.438 98.1794H264.161V103.903H258.438V98.1794ZM264.161 98.1794H269.885V103.903H264.161V98.1794ZM275.608 98.1794H281.332V103.903H275.608V98.1794ZM281.332 98.1794H287.055V103.903H281.332V98.1794ZM292.779 98.1794H298.502V103.903H292.779V98.1794ZM298.502 98.1794H304.226V103.903H298.502V98.1794ZM321.397 98.1794H327.12V103.903H321.397V98.1794ZM29.4966 103.903H35.2201V109.626H29.4966V103.903ZM35.2201 103.903H40.9436V109.626H35.2201V103.903ZM46.6671 103.903H52.3907V109.626H46.6671V103.903ZM52.3907 103.903H58.1142V109.626H52.3907V103.903ZM58.1142 103.903H63.8377V109.626H58.1142V103.903ZM63.8377 103.903H69.5613V109.626H63.8377V103.903ZM69.5613 103.903H75.2848V109.626H69.5613V103.903ZM75.2848 103.903H81.0083V109.626H75.2848V103.903ZM81.0083 103.903H86.7318V109.626H81.0083V103.903ZM86.7318 103.903H92.4554V109.626H86.7318V103.903ZM103.902 103.903H109.626V109.626H103.902V103.903ZM109.626 103.903H115.349V109.626H109.626V103.903ZM126.797 103.903H132.52V109.626H126.797V103.903ZM132.52 103.903H138.244V109.626H132.52V103.903ZM138.244 103.903H143.967V109.626H138.244V103.903ZM172.585 103.903H178.308V109.626H172.585V103.903ZM184.032 103.903H189.755V109.626H184.032V103.903ZM189.755 103.903H195.479V109.626H189.755V103.903ZM201.202 103.903H206.926V109.626H201.202V103.903ZM206.926 103.903H212.649V109.626H206.926V103.903ZM212.649 103.903H218.373V109.626H212.649V103.903ZM224.097 103.903H229.82V109.626H224.097V103.903ZM229.82 103.903H235.544V109.626H229.82V103.903ZM252.714 103.903H258.438V109.626H252.714V103.903ZM258.438 103.903H264.161V109.626H258.438V103.903ZM275.608 103.903H281.332V109.626H275.608V103.903ZM281.332 103.903H287.055V109.626H281.332V103.903ZM298.502 103.903H304.226V109.626H298.502V103.903ZM304.226 103.903H309.949V109.626H304.226V103.903ZM321.397 103.903H327.12V109.626H321.397V103.903ZM12.326 109.626H18.0495V115.35H12.326V109.626ZM18.0495 109.626H23.773V115.35H18.0495V109.626ZM23.773 109.626H29.4966V115.35H23.773V109.626ZM40.9436 109.626H46.6671V115.35H40.9436V109.626ZM52.3907 109.626H58.1142V115.35H52.3907V109.626ZM58.1142 109.626H63.8377V115.35H58.1142V109.626ZM69.5613 109.626H75.2848V115.35H69.5613V109.626ZM81.0083 109.626H86.7318V115.35H81.0083V109.626ZM86.7318 109.626H92.4554V115.35H86.7318V109.626ZM103.902 109.626H109.626V115.35H103.902V109.626ZM109.626 109.626H115.349V115.35H109.626V109.626ZM121.073 109.626H126.797V115.35H121.073V109.626ZM143.967 109.626H149.691V115.35H143.967V109.626ZM149.691 109.626H155.414V115.35H149.691V109.626ZM155.414 109.626H161.138V115.35H155.414V109.626ZM161.138 109.626H166.861V115.35H161.138V109.626ZM189.755 109.626H195.479V115.35H189.755V109.626ZM229.82 109.626H235.544V115.35H229.82V109.626ZM235.544 109.626H241.267V115.35H235.544V109.626ZM241.267 109.626H246.991V115.35H241.267V109.626ZM246.991 109.626H252.714V115.35H246.991V109.626ZM264.161 109.626H269.885V115.35H264.161V109.626ZM298.502 109.626H304.226V115.35H298.502V109.626ZM304.226 109.626H309.949V115.35H304.226V109.626ZM309.949 109.626H315.673V115.35H309.949V109.626ZM12.326 115.35H18.0495V121.074H12.326V115.35ZM18.0495 115.35H23.773V121.074H18.0495V115.35ZM23.773 115.35H29.4966V121.074H23.773V115.35ZM29.4966 115.35H35.2201V121.074H29.4966V115.35ZM35.2201 115.35H40.9436V121.074H35.2201V115.35ZM46.6671 115.35H52.3907V121.074H46.6671V115.35ZM58.1142 115.35H63.8377V121.074H58.1142V115.35ZM63.8377 115.35H69.5613V121.074H63.8377V115.35ZM69.5613 115.35H75.2848V121.074H69.5613V115.35ZM75.2848 115.35H81.0083V121.074H75.2848V115.35ZM81.0083 115.35H86.7318V121.074H81.0083V115.35ZM98.1789 115.35H103.902V121.074H98.1789V115.35ZM121.073 115.35H126.797V121.074H121.073V115.35ZM126.797 115.35H132.52V121.074H126.797V115.35ZM132.52 115.35H138.244V121.074H132.52V115.35ZM143.967 115.35H149.691V121.074H143.967V115.35ZM161.138 115.35H166.861V121.074H161.138V115.35ZM178.308 115.35H184.032V121.074H178.308V115.35ZM189.755 115.35H195.479V121.074H189.755V115.35ZM195.479 115.35H201.202V121.074H195.479V115.35ZM201.202 115.35H206.926V121.074H201.202V115.35ZM206.926 115.35H212.649V121.074H206.926V115.35ZM218.373 115.35H224.097V121.074H218.373V115.35ZM224.097 115.35H229.82V121.074H224.097V115.35ZM229.82 115.35H235.544V121.074H229.82V115.35ZM241.267 115.35H246.991V121.074H241.267V115.35ZM264.161 115.35H269.885V121.074H264.161V115.35ZM281.332 115.35H287.055V121.074H281.332V115.35ZM298.502 115.35H304.226V121.074H298.502V115.35ZM18.0495 121.074H23.773V126.797H18.0495V121.074ZM52.3907 121.074H58.1142V126.797H52.3907V121.074ZM58.1142 121.074H63.8377V126.797H58.1142V121.074ZM63.8377 121.074H69.5613V126.797H63.8377V121.074ZM92.4554 121.074H98.1789V126.797H92.4554V121.074ZM103.902 121.074H109.626V126.797H103.902V121.074ZM109.626 121.074H115.349V126.797H109.626V121.074ZM121.073 121.074H126.797V126.797H121.073V121.074ZM138.244 121.074H143.967V126.797H138.244V121.074ZM143.967 121.074H149.691V126.797H143.967V121.074ZM149.691 121.074H155.414V126.797H149.691V121.074ZM155.414 121.074H161.138V126.797H155.414V121.074ZM161.138 121.074H166.861V126.797H161.138V121.074ZM195.479 121.074H201.202V126.797H195.479V121.074ZM201.202 121.074H206.926V126.797H201.202V121.074ZM206.926 121.074H212.649V126.797H206.926V121.074ZM212.649 121.074H218.373V126.797H212.649V121.074ZM218.373 121.074H224.097V126.797H218.373V121.074ZM224.097 121.074H229.82V126.797H224.097V121.074ZM235.544 121.074H241.267V126.797H235.544V121.074ZM241.267 121.074H246.991V126.797H241.267V121.074ZM246.991 121.074H252.714V126.797H246.991V121.074ZM252.714 121.074H258.438V126.797H252.714V121.074ZM258.438 121.074H264.161V126.797H258.438V121.074ZM264.161 121.074H269.885V126.797H264.161V121.074ZM269.885 121.074H275.608V126.797H269.885V121.074ZM275.608 121.074H281.332V126.797H275.608V121.074ZM281.332 121.074H287.055V126.797H281.332V121.074ZM287.055 121.074H292.779V126.797H287.055V121.074ZM292.779 121.074H298.502V126.797H292.779V121.074ZM298.502 121.074H304.226V126.797H298.502V121.074ZM304.226 121.074H309.949V126.797H304.226V121.074ZM321.397 121.074H327.12V126.797H321.397V121.074ZM12.326 126.797H18.0495V132.521H12.326V126.797ZM35.2201 126.797H40.9436V132.521H35.2201V126.797ZM58.1142 126.797H63.8377V132.521H58.1142V126.797ZM81.0083 126.797H86.7318V132.521H81.0083V126.797ZM86.7318 126.797H92.4554V132.521H86.7318V126.797ZM103.902 126.797H109.626V132.521H103.902V126.797ZM109.626 126.797H115.349V132.521H109.626V126.797ZM121.073 126.797H126.797V132.521H121.073V126.797ZM138.244 126.797H143.967V132.521H138.244V126.797ZM143.967 126.797H149.691V132.521H143.967V126.797ZM155.414 126.797H161.138V132.521H155.414V126.797ZM161.138 126.797H166.861V132.521H161.138V126.797ZM166.861 126.797H172.585V132.521H166.861V126.797ZM184.032 126.797H189.755V132.521H184.032V126.797ZM189.755 126.797H195.479V132.521H189.755V126.797ZM195.479 126.797H201.202V132.521H195.479V126.797ZM201.202 126.797H206.926V132.521H201.202V126.797ZM206.926 126.797H212.649V132.521H206.926V126.797ZM235.544 126.797H241.267V132.521H235.544V126.797ZM246.991 126.797H252.714V132.521H246.991V126.797ZM252.714 126.797H258.438V132.521H252.714V126.797ZM264.161 126.797H269.885V132.521H264.161V126.797ZM269.885 126.797H275.608V132.521H269.885V126.797ZM275.608 126.797H281.332V132.521H275.608V126.797ZM292.779 126.797H298.502V132.521H292.779V126.797ZM298.502 126.797H304.226V132.521H298.502V126.797ZM304.226 126.797H309.949V132.521H304.226V126.797ZM6.60244 132.521H12.326V138.244H6.60244V132.521ZM12.326 132.521H18.0495V138.244H12.326V132.521ZM18.0495 132.521H23.773V138.244H18.0495V132.521ZM23.773 132.521H29.4966V138.244H23.773V132.521ZM40.9436 132.521H46.6671V138.244H40.9436V132.521ZM52.3907 132.521H58.1142V138.244H52.3907V132.521ZM98.1789 132.521H103.902V138.244H98.1789V132.521ZM103.902 132.521H109.626V138.244H103.902V132.521ZM126.797 132.521H132.52V138.244H126.797V132.521ZM138.244 132.521H143.967V138.244H138.244V132.521ZM143.967 132.521H149.691V138.244H143.967V132.521ZM161.138 132.521H166.861V138.244H161.138V132.521ZM172.585 132.521H178.308V138.244H172.585V132.521ZM178.308 132.521H184.032V138.244H178.308V132.521ZM189.755 132.521H195.479V138.244H189.755V132.521ZM212.649 132.521H218.373V138.244H212.649V132.521ZM224.097 132.521H229.82V138.244H224.097V132.521ZM229.82 132.521H235.544V138.244H229.82V132.521ZM235.544 132.521H241.267V138.244H235.544V132.521ZM241.267 132.521H246.991V138.244H241.267V132.521ZM246.991 132.521H252.714V138.244H246.991V132.521ZM252.714 132.521H258.438V138.244H252.714V132.521ZM264.161 132.521H269.885V138.244H264.161V132.521ZM269.885 132.521H275.608V138.244H269.885V132.521ZM281.332 132.521H287.055V138.244H281.332V132.521ZM287.055 132.521H292.779V138.244H287.055V132.521ZM309.949 132.521H315.673V138.244H309.949V132.521ZM12.326 138.244H18.0495V143.968H12.326V138.244ZM18.0495 138.244H23.773V143.968H18.0495V138.244ZM23.773 138.244H29.4966V143.968H23.773V138.244ZM29.4966 138.244H35.2201V143.968H29.4966V138.244ZM35.2201 138.244H40.9436V143.968H35.2201V138.244ZM46.6671 138.244H52.3907V143.968H46.6671V138.244ZM52.3907 138.244H58.1142V143.968H52.3907V138.244ZM58.1142 138.244H63.8377V143.968H58.1142V138.244ZM81.0083 138.244H86.7318V143.968H81.0083V138.244ZM86.7318 138.244H92.4554V143.968H86.7318V138.244ZM92.4554 138.244H98.1789V143.968H92.4554V138.244ZM109.626 138.244H115.349V143.968H109.626V138.244ZM115.349 138.244H121.073V143.968H115.349V138.244ZM121.073 138.244H126.797V143.968H121.073V138.244ZM126.797 138.244H132.52V143.968H126.797V138.244ZM138.244 138.244H143.967V143.968H138.244V138.244ZM143.967 138.244H149.691V143.968H143.967V138.244ZM149.691 138.244H155.414V143.968H149.691V138.244ZM155.414 138.244H161.138V143.968H155.414V138.244ZM161.138 138.244H166.861V143.968H161.138V138.244ZM172.585 138.244H178.308V143.968H172.585V138.244ZM189.755 138.244H195.479V143.968H189.755V138.244ZM206.926 138.244H212.649V143.968H206.926V138.244ZM224.097 138.244H229.82V143.968H224.097V138.244ZM229.82 138.244H235.544V143.968H229.82V138.244ZM241.267 138.244H246.991V143.968H241.267V138.244ZM252.714 138.244H258.438V143.968H252.714V138.244ZM264.161 138.244H269.885V143.968H264.161V138.244ZM269.885 138.244H275.608V143.968H269.885V138.244ZM298.502 138.244H304.226V143.968H298.502V138.244ZM315.673 138.244H321.397V143.968H315.673V138.244ZM321.397 138.244H327.12V143.968H321.397V138.244ZM0.878906 143.968H6.60244V149.691H0.878906V143.968ZM6.60244 143.968H12.326V149.691H6.60244V143.968ZM12.326 143.968H18.0495V149.691H12.326V143.968ZM18.0495 143.968H23.773V149.691H18.0495V143.968ZM46.6671 143.968H52.3907V149.691H46.6671V143.968ZM63.8377 143.968H69.5613V149.691H63.8377V143.968ZM75.2848 143.968H81.0083V149.691H75.2848V143.968ZM81.0083 143.968H86.7318V149.691H81.0083V143.968ZM92.4554 143.968H98.1789V149.691H92.4554V143.968ZM103.902 143.968H109.626V149.691H103.902V143.968ZM109.626 143.968H115.349V149.691H109.626V143.968ZM115.349 143.968H121.073V149.691H115.349V143.968ZM149.691 143.968H155.414V149.691H149.691V143.968ZM161.138 143.968H166.861V149.691H161.138V143.968ZM166.861 143.968H172.585V149.691H166.861V143.968ZM189.755 143.968H195.479V149.691H189.755V143.968ZM195.479 143.968H201.202V149.691H195.479V143.968ZM201.202 143.968H206.926V149.691H201.202V143.968ZM206.926 143.968H212.649V149.691H206.926V143.968ZM218.373 143.968H224.097V149.691H218.373V143.968ZM224.097 143.968H229.82V149.691H224.097V143.968ZM241.267 143.968H246.991V149.691H241.267V143.968ZM252.714 143.968H258.438V149.691H252.714V143.968ZM258.438 143.968H264.161V149.691H258.438V143.968ZM269.885 143.968H275.608V149.691H269.885V143.968ZM275.608 143.968H281.332V149.691H275.608V143.968ZM287.055 143.968H292.779V149.691H287.055V143.968ZM292.779 143.968H298.502V149.691H292.779V143.968ZM315.673 143.968H321.397V149.691H315.673V143.968ZM12.326 149.691H18.0495V155.415H12.326V149.691ZM23.773 149.691H29.4966V155.415H23.773V149.691ZM29.4966 149.691H35.2201V155.415H29.4966V149.691ZM35.2201 149.691H40.9436V155.415H35.2201V149.691ZM40.9436 149.691H46.6671V155.415H40.9436V149.691ZM46.6671 149.691H52.3907V155.415H46.6671V149.691ZM75.2848 149.691H81.0083V155.415H75.2848V149.691ZM92.4554 149.691H98.1789V155.415H92.4554V149.691ZM109.626 149.691H115.349V155.415H109.626V149.691ZM115.349 149.691H121.073V155.415H115.349V149.691ZM121.073 149.691H126.797V155.415H121.073V149.691ZM132.52 149.691H138.244V155.415H132.52V149.691ZM143.967 149.691H149.691V155.415H143.967V149.691ZM149.691 149.691H155.414V155.415H149.691V149.691ZM155.414 149.691H161.138V155.415H155.414V149.691ZM161.138 149.691H166.861V155.415H161.138V149.691ZM166.861 149.691H172.585V155.415H166.861V149.691ZM172.585 149.691H178.308V155.415H172.585V149.691ZM189.755 149.691H195.479V155.415H189.755V149.691ZM195.479 149.691H201.202V155.415H195.479V149.691ZM212.649 149.691H218.373V155.415H212.649V149.691ZM218.373 149.691H224.097V155.415H218.373V149.691ZM224.097 149.691H229.82V155.415H224.097V149.691ZM229.82 149.691H235.544V155.415H229.82V149.691ZM235.544 149.691H241.267V155.415H235.544V149.691ZM241.267 149.691H246.991V155.415H241.267V149.691ZM252.714 149.691H258.438V155.415H252.714V149.691ZM258.438 149.691H264.161V155.415H258.438V149.691ZM275.608 149.691H281.332V155.415H275.608V149.691ZM281.332 149.691H287.055V155.415H281.332V149.691ZM287.055 149.691H292.779V155.415H287.055V149.691ZM292.779 149.691H298.502V155.415H292.779V149.691ZM298.502 149.691H304.226V155.415H298.502V149.691ZM0.878906 155.415H6.60244V161.138H0.878906V155.415ZM12.326 155.415H18.0495V161.138H12.326V155.415ZM23.773 155.415H29.4966V161.138H23.773V155.415ZM46.6671 155.415H52.3907V161.138H46.6671V155.415ZM63.8377 155.415H69.5613V161.138H63.8377V155.415ZM75.2848 155.415H81.0083V161.138H75.2848V155.415ZM92.4554 155.415H98.1789V161.138H92.4554V155.415ZM103.902 155.415H109.626V161.138H103.902V155.415ZM115.349 155.415H121.073V161.138H115.349V155.415ZM126.797 155.415H132.52V161.138H126.797V155.415ZM149.691 155.415H155.414V161.138H149.691V155.415ZM172.585 155.415H178.308V161.138H172.585V155.415ZM178.308 155.415H184.032V161.138H178.308V155.415ZM184.032 155.415H189.755V161.138H184.032V155.415ZM201.202 155.415H206.926V161.138H201.202V155.415ZM235.544 155.415H241.267V161.138H235.544V155.415ZM241.267 155.415H246.991V161.138H241.267V155.415ZM264.161 155.415H269.885V161.138H264.161V155.415ZM269.885 155.415H275.608V161.138H269.885V155.415ZM275.608 155.415H281.332V161.138H275.608V155.415ZM298.502 155.415H304.226V161.138H298.502V155.415ZM304.226 155.415H309.949V161.138H304.226V155.415ZM309.949 155.415H315.673V161.138H309.949V155.415ZM315.673 155.415H321.397V161.138H315.673V155.415ZM321.397 155.415H327.12V161.138H321.397V155.415ZM12.326 161.138H18.0495V166.862H12.326V161.138ZM23.773 161.138H29.4966V166.862H23.773V161.138ZM35.2201 161.138H40.9436V166.862H35.2201V161.138ZM46.6671 161.138H52.3907V166.862H46.6671V161.138ZM69.5613 161.138H75.2848V166.862H69.5613V161.138ZM92.4554 161.138H98.1789V166.862H92.4554V161.138ZM115.349 161.138H121.073V166.862H115.349V161.138ZM126.797 161.138H132.52V166.862H126.797V161.138ZM138.244 161.138H143.967V166.862H138.244V161.138ZM143.967 161.138H149.691V166.862H143.967V161.138ZM149.691 161.138H155.414V166.862H149.691V161.138ZM161.138 161.138H166.861V166.862H161.138V161.138ZM172.585 161.138H178.308V166.862H172.585V161.138ZM184.032 161.138H189.755V166.862H184.032V161.138ZM206.926 161.138H212.649V166.862H206.926V161.138ZM218.373 161.138H224.097V166.862H218.373V161.138ZM224.097 161.138H229.82V166.862H224.097V161.138ZM246.991 161.138H252.714V166.862H246.991V161.138ZM252.714 161.138H258.438V166.862H252.714V161.138ZM264.161 161.138H269.885V166.862H264.161V161.138ZM275.608 161.138H281.332V166.862H275.608V161.138ZM287.055 161.138H292.779V166.862H287.055V161.138ZM298.502 161.138H304.226V166.862H298.502V161.138ZM304.226 161.138H309.949V166.862H304.226V161.138ZM315.673 161.138H321.397V166.862H315.673V161.138ZM321.397 161.138H327.12V166.862H321.397V161.138ZM23.773 166.862H29.4966V172.585H23.773V166.862ZM46.6671 166.862H52.3907V172.585H46.6671V166.862ZM63.8377 166.862H69.5613V172.585H63.8377V166.862ZM69.5613 166.862H75.2848V172.585H69.5613V166.862ZM75.2848 166.862H81.0083V172.585H75.2848V166.862ZM81.0083 166.862H86.7318V172.585H81.0083V166.862ZM98.1789 166.862H103.902V172.585H98.1789V166.862ZM115.349 166.862H121.073V172.585H115.349V166.862ZM121.073 166.862H126.797V172.585H121.073V166.862ZM132.52 166.862H138.244V172.585H132.52V166.862ZM138.244 166.862H143.967V172.585H138.244V166.862ZM149.691 166.862H155.414V172.585H149.691V166.862ZM172.585 166.862H178.308V172.585H172.585V166.862ZM178.308 166.862H184.032V172.585H178.308V166.862ZM184.032 166.862H189.755V172.585H184.032V166.862ZM189.755 166.862H195.479V172.585H189.755V166.862ZM195.479 166.862H201.202V172.585H195.479V166.862ZM206.926 166.862H212.649V172.585H206.926V166.862ZM212.649 166.862H218.373V172.585H212.649V166.862ZM224.097 166.862H229.82V172.585H224.097V166.862ZM229.82 166.862H235.544V172.585H229.82V166.862ZM241.267 166.862H246.991V172.585H241.267V166.862ZM258.438 166.862H264.161V172.585H258.438V166.862ZM264.161 166.862H269.885V172.585H264.161V166.862ZM275.608 166.862H281.332V172.585H275.608V166.862ZM298.502 166.862H304.226V172.585H298.502V166.862ZM321.397 166.862H327.12V172.585H321.397V166.862ZM0.878906 172.585H6.60244V178.309H0.878906V172.585ZM18.0495 172.585H23.773V178.309H18.0495V172.585ZM23.773 172.585H29.4966V178.309H23.773V172.585ZM29.4966 172.585H35.2201V178.309H29.4966V172.585ZM35.2201 172.585H40.9436V178.309H35.2201V172.585ZM40.9436 172.585H46.6671V178.309H40.9436V172.585ZM46.6671 172.585H52.3907V178.309H46.6671V172.585ZM52.3907 172.585H58.1142V178.309H52.3907V172.585ZM58.1142 172.585H63.8377V178.309H58.1142V172.585ZM69.5613 172.585H75.2848V178.309H69.5613V172.585ZM75.2848 172.585H81.0083V178.309H75.2848V172.585ZM86.7318 172.585H92.4554V178.309H86.7318V172.585ZM92.4554 172.585H98.1789V178.309H92.4554V172.585ZM109.626 172.585H115.349V178.309H109.626V172.585ZM126.797 172.585H132.52V178.309H126.797V172.585ZM132.52 172.585H138.244V178.309H132.52V172.585ZM149.691 172.585H155.414V178.309H149.691V172.585ZM155.414 172.585H161.138V178.309H155.414V172.585ZM161.138 172.585H166.861V178.309H161.138V172.585ZM166.861 172.585H172.585V178.309H166.861V172.585ZM172.585 172.585H178.308V178.309H172.585V172.585ZM184.032 172.585H189.755V178.309H184.032V172.585ZM189.755 172.585H195.479V178.309H189.755V172.585ZM212.649 172.585H218.373V178.309H212.649V172.585ZM229.82 172.585H235.544V178.309H229.82V172.585ZM252.714 172.585H258.438V178.309H252.714V172.585ZM275.608 172.585H281.332V178.309H275.608V172.585ZM281.332 172.585H287.055V178.309H281.332V172.585ZM287.055 172.585H292.779V178.309H287.055V172.585ZM292.779 172.585H298.502V178.309H292.779V172.585ZM298.502 172.585H304.226V178.309H298.502V172.585ZM321.397 172.585H327.12V178.309H321.397V172.585ZM6.60244 178.309H12.326V184.032H6.60244V178.309ZM40.9436 178.309H46.6671V184.032H40.9436V178.309ZM46.6671 178.309H52.3907V184.032H46.6671V178.309ZM58.1142 178.309H63.8377V184.032H58.1142V178.309ZM63.8377 178.309H69.5613V184.032H63.8377V178.309ZM86.7318 178.309H92.4554V184.032H86.7318V178.309ZM109.626 178.309H115.349V184.032H109.626V178.309ZM132.52 178.309H138.244V184.032H132.52V178.309ZM149.691 178.309H155.414V184.032H149.691V178.309ZM155.414 178.309H161.138V184.032H155.414V178.309ZM166.861 178.309H172.585V184.032H166.861V178.309ZM184.032 178.309H189.755V184.032H184.032V178.309ZM212.649 178.309H218.373V184.032H212.649V178.309ZM224.097 178.309H229.82V184.032H224.097V178.309ZM229.82 178.309H235.544V184.032H229.82V178.309ZM235.544 178.309H241.267V184.032H235.544V178.309ZM246.991 178.309H252.714V184.032H246.991V178.309ZM258.438 178.309H264.161V184.032H258.438V178.309ZM269.885 178.309H275.608V184.032H269.885V178.309ZM281.332 178.309H287.055V184.032H281.332V178.309ZM292.779 178.309H298.502V184.032H292.779V178.309ZM298.502 178.309H304.226V184.032H298.502V178.309ZM304.226 178.309H309.949V184.032H304.226V178.309ZM309.949 178.309H315.673V184.032H309.949V178.309ZM321.397 178.309H327.12V184.032H321.397V178.309ZM12.326 184.032H18.0495V189.756H12.326V184.032ZM18.0495 184.032H23.773V189.756H18.0495V184.032ZM29.4966 184.032H35.2201V189.756H29.4966V184.032ZM35.2201 184.032H40.9436V189.756H35.2201V184.032ZM40.9436 184.032H46.6671V189.756H40.9436V184.032ZM46.6671 184.032H52.3907V189.756H46.6671V184.032ZM52.3907 184.032H58.1142V189.756H52.3907V184.032ZM92.4554 184.032H98.1789V189.756H92.4554V184.032ZM103.902 184.032H109.626V189.756H103.902V184.032ZM115.349 184.032H121.073V189.756H115.349V184.032ZM121.073 184.032H126.797V189.756H121.073V184.032ZM126.797 184.032H132.52V189.756H126.797V184.032ZM132.52 184.032H138.244V189.756H132.52V184.032ZM143.967 184.032H149.691V189.756H143.967V184.032ZM149.691 184.032H155.414V189.756H149.691V184.032ZM155.414 184.032H161.138V189.756H155.414V184.032ZM166.861 184.032H172.585V189.756H166.861V184.032ZM172.585 184.032H178.308V189.756H172.585V184.032ZM201.202 184.032H206.926V189.756H201.202V184.032ZM206.926 184.032H212.649V189.756H206.926V184.032ZM212.649 184.032H218.373V189.756H212.649V184.032ZM229.82 184.032H235.544V189.756H229.82V184.032ZM258.438 184.032H264.161V189.756H258.438V184.032ZM264.161 184.032H269.885V189.756H264.161V184.032ZM275.608 184.032H281.332V189.756H275.608V184.032ZM287.055 184.032H292.779V189.756H287.055V184.032ZM292.779 184.032H298.502V189.756H292.779V184.032ZM304.226 184.032H309.949V189.756H304.226V184.032ZM315.673 184.032H321.397V189.756H315.673V184.032ZM321.397 184.032H327.12V189.756H321.397V184.032ZM0.878906 189.756H6.60244V195.479H0.878906V189.756ZM12.326 189.756H18.0495V195.479H12.326V189.756ZM18.0495 189.756H23.773V195.479H18.0495V189.756ZM23.773 189.756H29.4966V195.479H23.773V189.756ZM46.6671 189.756H52.3907V195.479H46.6671V189.756ZM63.8377 189.756H69.5613V195.479H63.8377V189.756ZM92.4554 189.756H98.1789V195.479H92.4554V189.756ZM121.073 189.756H126.797V195.479H121.073V189.756ZM138.244 189.756H143.967V195.479H138.244V189.756ZM155.414 189.756H161.138V195.479H155.414V189.756ZM161.138 189.756H166.861V195.479H161.138V189.756ZM178.308 189.756H184.032V195.479H178.308V189.756ZM189.755 189.756H195.479V195.479H189.755V189.756ZM195.479 189.756H201.202V195.479H195.479V189.756ZM206.926 189.756H212.649V195.479H206.926V189.756ZM218.373 189.756H224.097V195.479H218.373V189.756ZM229.82 189.756H235.544V195.479H229.82V189.756ZM241.267 189.756H246.991V195.479H241.267V189.756ZM246.991 189.756H252.714V195.479H246.991V189.756ZM258.438 189.756H264.161V195.479H258.438V189.756ZM264.161 189.756H269.885V195.479H264.161V189.756ZM275.608 189.756H281.332V195.479H275.608V189.756ZM292.779 189.756H298.502V195.479H292.779V189.756ZM298.502 189.756H304.226V195.479H298.502V189.756ZM304.226 189.756H309.949V195.479H304.226V189.756ZM12.326 195.479H18.0495V201.203H12.326V195.479ZM18.0495 195.479H23.773V201.203H18.0495V195.479ZM35.2201 195.479H40.9436V201.203H35.2201V195.479ZM40.9436 195.479H46.6671V201.203H40.9436V195.479ZM52.3907 195.479H58.1142V201.203H52.3907V195.479ZM63.8377 195.479H69.5613V201.203H63.8377V195.479ZM86.7318 195.479H92.4554V201.203H86.7318V195.479ZM121.073 195.479H126.797V201.203H121.073V195.479ZM126.797 195.479H132.52V201.203H126.797V195.479ZM132.52 195.479H138.244V201.203H132.52V195.479ZM138.244 195.479H143.967V201.203H138.244V195.479ZM143.967 195.479H149.691V201.203H143.967V195.479ZM155.414 195.479H161.138V201.203H155.414V195.479ZM166.861 195.479H172.585V201.203H166.861V195.479ZM172.585 195.479H178.308V201.203H172.585V195.479ZM184.032 195.479H189.755V201.203H184.032V195.479ZM195.479 195.479H201.202V201.203H195.479V195.479ZM224.097 195.479H229.82V201.203H224.097V195.479ZM235.544 195.479H241.267V201.203H235.544V195.479ZM246.991 195.479H252.714V201.203H246.991V195.479ZM258.438 195.479H264.161V201.203H258.438V195.479ZM264.161 195.479H269.885V201.203H264.161V195.479ZM269.885 195.479H275.608V201.203H269.885V195.479ZM275.608 195.479H281.332V201.203H275.608V195.479ZM281.332 195.479H287.055V201.203H281.332V195.479ZM287.055 195.479H292.779V201.203H287.055V195.479ZM315.673 195.479H321.397V201.203H315.673V195.479ZM321.397 195.479H327.12V201.203H321.397V195.479ZM0.878906 201.203H6.60244V206.926H0.878906V201.203ZM18.0495 201.203H23.773V206.926H18.0495V201.203ZM23.773 201.203H29.4966V206.926H23.773V201.203ZM40.9436 201.203H46.6671V206.926H40.9436V201.203ZM46.6671 201.203H52.3907V206.926H46.6671V201.203ZM52.3907 201.203H58.1142V206.926H52.3907V201.203ZM58.1142 201.203H63.8377V206.926H58.1142V201.203ZM63.8377 201.203H69.5613V206.926H63.8377V201.203ZM75.2848 201.203H81.0083V206.926H75.2848V201.203ZM92.4554 201.203H98.1789V206.926H92.4554V201.203ZM109.626 201.203H115.349V206.926H109.626V201.203ZM121.073 201.203H126.797V206.926H121.073V201.203ZM126.797 201.203H132.52V206.926H126.797V201.203ZM149.691 201.203H155.414V206.926H149.691V201.203ZM172.585 201.203H178.308V206.926H172.585V201.203ZM178.308 201.203H184.032V206.926H178.308V201.203ZM184.032 201.203H189.755V206.926H184.032V201.203ZM201.202 201.203H206.926V206.926H201.202V201.203ZM235.544 201.203H241.267V206.926H235.544V201.203ZM241.267 201.203H246.991V206.926H241.267V201.203ZM252.714 201.203H258.438V206.926H252.714V201.203ZM258.438 201.203H264.161V206.926H258.438V201.203ZM275.608 201.203H281.332V206.926H275.608V201.203ZM287.055 201.203H292.779V206.926H287.055V201.203ZM292.779 201.203H298.502V206.926H292.779V201.203ZM298.502 201.203H304.226V206.926H298.502V201.203ZM309.949 201.203H315.673V206.926H309.949V201.203ZM315.673 201.203H321.397V206.926H315.673V201.203ZM0.878906 206.926H6.60244V212.65H0.878906V206.926ZM18.0495 206.926H23.773V212.65H18.0495V206.926ZM29.4966 206.926H35.2201V212.65H29.4966V206.926ZM35.2201 206.926H40.9436V212.65H35.2201V206.926ZM40.9436 206.926H46.6671V212.65H40.9436V206.926ZM58.1142 206.926H63.8377V212.65H58.1142V206.926ZM86.7318 206.926H92.4554V212.65H86.7318V206.926ZM92.4554 206.926H98.1789V212.65H92.4554V206.926ZM98.1789 206.926H103.902V212.65H98.1789V206.926ZM103.902 206.926H109.626V212.65H103.902V206.926ZM115.349 206.926H121.073V212.65H115.349V206.926ZM126.797 206.926H132.52V212.65H126.797V206.926ZM132.52 206.926H138.244V212.65H132.52V206.926ZM138.244 206.926H143.967V212.65H138.244V206.926ZM155.414 206.926H161.138V212.65H155.414V206.926ZM178.308 206.926H184.032V212.65H178.308V206.926ZM184.032 206.926H189.755V212.65H184.032V206.926ZM189.755 206.926H195.479V212.65H189.755V206.926ZM195.479 206.926H201.202V212.65H195.479V206.926ZM206.926 206.926H212.649V212.65H206.926V206.926ZM212.649 206.926H218.373V212.65H212.649V206.926ZM229.82 206.926H235.544V212.65H229.82V206.926ZM235.544 206.926H241.267V212.65H235.544V206.926ZM246.991 206.926H252.714V212.65H246.991V206.926ZM252.714 206.926H258.438V212.65H252.714V206.926ZM269.885 206.926H275.608V212.65H269.885V206.926ZM281.332 206.926H287.055V212.65H281.332V206.926ZM287.055 206.926H292.779V212.65H287.055V206.926ZM292.779 206.926H298.502V212.65H292.779V206.926ZM304.226 206.926H309.949V212.65H304.226V206.926ZM321.397 206.926H327.12V212.65H321.397V206.926ZM6.60244 212.65H12.326V218.373H6.60244V212.65ZM18.0495 212.65H23.773V218.373H18.0495V212.65ZM23.773 212.65H29.4966V218.373H23.773V212.65ZM29.4966 212.65H35.2201V218.373H29.4966V212.65ZM46.6671 212.65H52.3907V218.373H46.6671V212.65ZM58.1142 212.65H63.8377V218.373H58.1142V212.65ZM75.2848 212.65H81.0083V218.373H75.2848V212.65ZM81.0083 212.65H86.7318V218.373H81.0083V212.65ZM86.7318 212.65H92.4554V218.373H86.7318V212.65ZM103.902 212.65H109.626V218.373H103.902V212.65ZM115.349 212.65H121.073V218.373H115.349V212.65ZM126.797 212.65H132.52V218.373H126.797V212.65ZM138.244 212.65H143.967V218.373H138.244V212.65ZM143.967 212.65H149.691V218.373H143.967V212.65ZM149.691 212.65H155.414V218.373H149.691V212.65ZM155.414 212.65H161.138V218.373H155.414V212.65ZM161.138 212.65H166.861V218.373H161.138V212.65ZM166.861 212.65H172.585V218.373H166.861V212.65ZM189.755 212.65H195.479V218.373H189.755V212.65ZM212.649 212.65H218.373V218.373H212.649V212.65ZM218.373 212.65H224.097V218.373H218.373V212.65ZM224.097 212.65H229.82V218.373H224.097V212.65ZM235.544 212.65H241.267V218.373H235.544V212.65ZM241.267 212.65H246.991V218.373H241.267V212.65ZM258.438 212.65H264.161V218.373H258.438V212.65ZM275.608 212.65H281.332V218.373H275.608V212.65ZM281.332 212.65H287.055V218.373H281.332V212.65ZM292.779 212.65H298.502V218.373H292.779V212.65ZM309.949 212.65H315.673V218.373H309.949V212.65ZM315.673 212.65H321.397V218.373H315.673V212.65ZM12.326 218.373H18.0495V224.097H12.326V218.373ZM29.4966 218.373H35.2201V224.097H29.4966V218.373ZM35.2201 218.373H40.9436V224.097H35.2201V218.373ZM40.9436 218.373H46.6671V224.097H40.9436V218.373ZM52.3907 218.373H58.1142V224.097H52.3907V218.373ZM58.1142 218.373H63.8377V224.097H58.1142V218.373ZM63.8377 218.373H69.5613V224.097H63.8377V218.373ZM81.0083 218.373H86.7318V224.097H81.0083V218.373ZM92.4554 218.373H98.1789V224.097H92.4554V218.373ZM98.1789 218.373H103.902V224.097H98.1789V218.373ZM115.349 218.373H121.073V224.097H115.349V218.373ZM121.073 218.373H126.797V224.097H121.073V218.373ZM126.797 218.373H132.52V224.097H126.797V218.373ZM132.52 218.373H138.244V224.097H132.52V218.373ZM166.861 218.373H172.585V224.097H166.861V218.373ZM172.585 218.373H178.308V224.097H172.585V218.373ZM178.308 218.373H184.032V224.097H178.308V218.373ZM189.755 218.373H195.479V224.097H189.755V218.373ZM206.926 218.373H212.649V224.097H206.926V218.373ZM218.373 218.373H224.097V224.097H218.373V218.373ZM235.544 218.373H241.267V224.097H235.544V218.373ZM252.714 218.373H258.438V224.097H252.714V218.373ZM258.438 218.373H264.161V224.097H258.438V218.373ZM269.885 218.373H275.608V224.097H269.885V218.373ZM275.608 218.373H281.332V224.097H275.608V218.373ZM298.502 218.373H304.226V224.097H298.502V218.373ZM315.673 218.373H321.397V224.097H315.673V218.373ZM0.878906 224.097H6.60244V229.821H0.878906V224.097ZM12.326 224.097H18.0495V229.821H12.326V224.097ZM18.0495 224.097H23.773V229.821H18.0495V224.097ZM40.9436 224.097H46.6671V229.821H40.9436V224.097ZM46.6671 224.097H52.3907V229.821H46.6671V224.097ZM52.3907 224.097H58.1142V229.821H52.3907V224.097ZM63.8377 224.097H69.5613V229.821H63.8377V224.097ZM81.0083 224.097H86.7318V229.821H81.0083V224.097ZM98.1789 224.097H103.902V229.821H98.1789V224.097ZM103.902 224.097H109.626V229.821H103.902V224.097ZM115.349 224.097H121.073V229.821H115.349V224.097ZM121.073 224.097H126.797V229.821H121.073V224.097ZM126.797 224.097H132.52V229.821H126.797V224.097ZM132.52 224.097H138.244V229.821H132.52V224.097ZM143.967 224.097H149.691V229.821H143.967V224.097ZM166.861 224.097H172.585V229.821H166.861V224.097ZM172.585 224.097H178.308V229.821H172.585V224.097ZM178.308 224.097H184.032V229.821H178.308V224.097ZM184.032 224.097H189.755V229.821H184.032V224.097ZM189.755 224.097H195.479V229.821H189.755V224.097ZM206.926 224.097H212.649V229.821H206.926V224.097ZM218.373 224.097H224.097V229.821H218.373V224.097ZM241.267 224.097H246.991V229.821H241.267V224.097ZM246.991 224.097H252.714V229.821H246.991V224.097ZM252.714 224.097H258.438V229.821H252.714V224.097ZM258.438 224.097H264.161V229.821H258.438V224.097ZM269.885 224.097H275.608V229.821H269.885V224.097ZM275.608 224.097H281.332V229.821H275.608V224.097ZM281.332 224.097H287.055V229.821H281.332V224.097ZM292.779 224.097H298.502V229.821H292.779V224.097ZM298.502 224.097H304.226V229.821H298.502V224.097ZM304.226 224.097H309.949V229.821H304.226V224.097ZM309.949 224.097H315.673V229.821H309.949V224.097ZM0.878906 229.821H6.60244V235.544H0.878906V229.821ZM6.60244 229.821H12.326V235.544H6.60244V229.821ZM12.326 229.821H18.0495V235.544H12.326V229.821ZM18.0495 229.821H23.773V235.544H18.0495V229.821ZM29.4966 229.821H35.2201V235.544H29.4966V229.821ZM35.2201 229.821H40.9436V235.544H35.2201V229.821ZM52.3907 229.821H58.1142V235.544H52.3907V229.821ZM58.1142 229.821H63.8377V235.544H58.1142V229.821ZM63.8377 229.821H69.5613V235.544H63.8377V229.821ZM75.2848 229.821H81.0083V235.544H75.2848V229.821ZM86.7318 229.821H92.4554V235.544H86.7318V229.821ZM92.4554 229.821H98.1789V235.544H92.4554V229.821ZM103.902 229.821H109.626V235.544H103.902V229.821ZM109.626 229.821H115.349V235.544H109.626V229.821ZM126.797 229.821H132.52V235.544H126.797V229.821ZM138.244 229.821H143.967V235.544H138.244V229.821ZM149.691 229.821H155.414V235.544H149.691V229.821ZM178.308 229.821H184.032V235.544H178.308V229.821ZM184.032 229.821H189.755V235.544H184.032V229.821ZM195.479 229.821H201.202V235.544H195.479V229.821ZM212.649 229.821H218.373V235.544H212.649V229.821ZM218.373 229.821H224.097V235.544H218.373V229.821ZM241.267 229.821H246.991V235.544H241.267V229.821ZM252.714 229.821H258.438V235.544H252.714V229.821ZM258.438 229.821H264.161V235.544H258.438V229.821ZM264.161 229.821H269.885V235.544H264.161V229.821ZM269.885 229.821H275.608V235.544H269.885V229.821ZM281.332 229.821H287.055V235.544H281.332V229.821ZM287.055 229.821H292.779V235.544H287.055V229.821ZM298.502 229.821H304.226V235.544H298.502V229.821ZM304.226 229.821H309.949V235.544H304.226V229.821ZM315.673 229.821H321.397V235.544H315.673V229.821ZM321.397 229.821H327.12V235.544H321.397V229.821ZM0.878906 235.544H6.60244V241.268H0.878906V235.544ZM23.773 235.544H29.4966V241.268H23.773V235.544ZM40.9436 235.544H46.6671V241.268H40.9436V235.544ZM52.3907 235.544H58.1142V241.268H52.3907V235.544ZM63.8377 235.544H69.5613V241.268H63.8377V235.544ZM69.5613 235.544H75.2848V241.268H69.5613V235.544ZM98.1789 235.544H103.902V241.268H98.1789V235.544ZM103.902 235.544H109.626V241.268H103.902V235.544ZM109.626 235.544H115.349V241.268H109.626V235.544ZM115.349 235.544H121.073V241.268H115.349V235.544ZM121.073 235.544H126.797V241.268H121.073V235.544ZM132.52 235.544H138.244V241.268H132.52V235.544ZM149.691 235.544H155.414V241.268H149.691V235.544ZM155.414 235.544H161.138V241.268H155.414V235.544ZM166.861 235.544H172.585V241.268H166.861V235.544ZM184.032 235.544H189.755V241.268H184.032V235.544ZM195.479 235.544H201.202V241.268H195.479V235.544ZM201.202 235.544H206.926V241.268H201.202V235.544ZM224.097 235.544H229.82V241.268H224.097V235.544ZM229.82 235.544H235.544V241.268H229.82V235.544ZM241.267 235.544H246.991V241.268H241.267V235.544ZM246.991 235.544H252.714V241.268H246.991V235.544ZM258.438 235.544H264.161V241.268H258.438V235.544ZM292.779 235.544H298.502V241.268H292.779V235.544ZM298.502 235.544H304.226V241.268H298.502V235.544ZM309.949 235.544H315.673V241.268H309.949V235.544ZM321.397 235.544H327.12V241.268H321.397V235.544ZM0.878906 241.268H6.60244V246.991H0.878906V241.268ZM18.0495 241.268H23.773V246.991H18.0495V241.268ZM29.4966 241.268H35.2201V246.991H29.4966V241.268ZM35.2201 241.268H40.9436V246.991H35.2201V241.268ZM40.9436 241.268H46.6671V246.991H40.9436V241.268ZM92.4554 241.268H98.1789V246.991H92.4554V241.268ZM132.52 241.268H138.244V246.991H132.52V241.268ZM155.414 241.268H161.138V246.991H155.414V241.268ZM218.373 241.268H224.097V246.991H218.373V241.268ZM224.097 241.268H229.82V246.991H224.097V241.268ZM235.544 241.268H241.267V246.991H235.544V241.268ZM246.991 241.268H252.714V246.991H246.991V241.268ZM252.714 241.268H258.438V246.991H252.714V241.268ZM258.438 241.268H264.161V246.991H258.438V241.268ZM264.161 241.268H269.885V246.991H264.161V241.268ZM269.885 241.268H275.608V246.991H269.885V241.268ZM275.608 241.268H281.332V246.991H275.608V241.268ZM287.055 241.268H292.779V246.991H287.055V241.268ZM292.779 241.268H298.502V246.991H292.779V241.268ZM304.226 241.268H309.949V246.991H304.226V241.268ZM315.673 241.268H321.397V246.991H315.673V241.268ZM321.397 241.268H327.12V246.991H321.397V241.268ZM18.0495 246.991H23.773V252.715H18.0495V246.991ZM23.773 246.991H29.4966V252.715H23.773V246.991ZM29.4966 246.991H35.2201V252.715H29.4966V246.991ZM40.9436 246.991H46.6671V252.715H40.9436V246.991ZM46.6671 246.991H52.3907V252.715H46.6671V246.991ZM52.3907 246.991H58.1142V252.715H52.3907V246.991ZM69.5613 246.991H75.2848V252.715H69.5613V246.991ZM103.902 246.991H109.626V252.715H103.902V246.991ZM115.349 246.991H121.073V252.715H115.349V246.991ZM121.073 246.991H126.797V252.715H121.073V246.991ZM132.52 246.991H138.244V252.715H132.52V246.991ZM138.244 246.991H143.967V252.715H138.244V246.991ZM143.967 246.991H149.691V252.715H143.967V246.991ZM149.691 246.991H155.414V252.715H149.691V246.991ZM155.414 246.991H161.138V252.715H155.414V246.991ZM166.861 246.991H172.585V252.715H166.861V246.991ZM184.032 246.991H189.755V252.715H184.032V246.991ZM189.755 246.991H195.479V252.715H189.755V246.991ZM195.479 246.991H201.202V252.715H195.479V246.991ZM201.202 246.991H206.926V252.715H201.202V246.991ZM218.373 246.991H224.097V252.715H218.373V246.991ZM229.82 246.991H235.544V252.715H229.82V246.991ZM235.544 246.991H241.267V252.715H235.544V246.991ZM241.267 246.991H246.991V252.715H241.267V246.991ZM246.991 246.991H252.714V252.715H246.991V246.991ZM264.161 246.991H269.885V252.715H264.161V246.991ZM269.885 246.991H275.608V252.715H269.885V246.991ZM275.608 246.991H281.332V252.715H275.608V246.991ZM292.779 246.991H298.502V252.715H292.779V246.991ZM298.502 246.991H304.226V252.715H298.502V246.991ZM304.226 246.991H309.949V252.715H304.226V246.991ZM309.949 246.991H315.673V252.715H309.949V246.991ZM321.397 246.991H327.12V252.715H321.397V246.991ZM6.60244 252.715H12.326V258.438H6.60244V252.715ZM12.326 252.715H18.0495V258.438H12.326V252.715ZM18.0495 252.715H23.773V258.438H18.0495V252.715ZM23.773 252.715H29.4966V258.438H23.773V252.715ZM35.2201 252.715H40.9436V258.438H35.2201V252.715ZM46.6671 252.715H52.3907V258.438H46.6671V252.715ZM52.3907 252.715H58.1142V258.438H52.3907V252.715ZM69.5613 252.715H75.2848V258.438H69.5613V252.715ZM86.7318 252.715H92.4554V258.438H86.7318V252.715ZM92.4554 252.715H98.1789V258.438H92.4554V252.715ZM109.626 252.715H115.349V258.438H109.626V252.715ZM138.244 252.715H143.967V258.438H138.244V252.715ZM149.691 252.715H155.414V258.438H149.691V252.715ZM161.138 252.715H166.861V258.438H161.138V252.715ZM178.308 252.715H184.032V258.438H178.308V252.715ZM184.032 252.715H189.755V258.438H184.032V252.715ZM195.479 252.715H201.202V258.438H195.479V252.715ZM201.202 252.715H206.926V258.438H201.202V252.715ZM206.926 252.715H212.649V258.438H206.926V252.715ZM212.649 252.715H218.373V258.438H212.649V252.715ZM224.097 252.715H229.82V258.438H224.097V252.715ZM229.82 252.715H235.544V258.438H229.82V252.715ZM241.267 252.715H246.991V258.438H241.267V252.715ZM246.991 252.715H252.714V258.438H246.991V252.715ZM258.438 252.715H264.161V258.438H258.438V252.715ZM275.608 252.715H281.332V258.438H275.608V252.715ZM292.779 252.715H298.502V258.438H292.779V252.715ZM304.226 252.715H309.949V258.438H304.226V252.715ZM18.0495 258.438H23.773V264.162H18.0495V258.438ZM29.4966 258.438H35.2201V264.162H29.4966V258.438ZM40.9436 258.438H46.6671V264.162H40.9436V258.438ZM46.6671 258.438H52.3907V264.162H46.6671V258.438ZM52.3907 258.438H58.1142V264.162H52.3907V258.438ZM75.2848 258.438H81.0083V264.162H75.2848V258.438ZM98.1789 258.438H103.902V264.162H98.1789V258.438ZM109.626 258.438H115.349V264.162H109.626V258.438ZM132.52 258.438H138.244V264.162H132.52V258.438ZM138.244 258.438H143.967V264.162H138.244V258.438ZM161.138 258.438H166.861V264.162H161.138V258.438ZM178.308 258.438H184.032V264.162H178.308V258.438ZM189.755 258.438H195.479V264.162H189.755V258.438ZM195.479 258.438H201.202V264.162H195.479V258.438ZM201.202 258.438H206.926V264.162H201.202V258.438ZM206.926 258.438H212.649V264.162H206.926V258.438ZM212.649 258.438H218.373V264.162H212.649V258.438ZM218.373 258.438H224.097V264.162H218.373V258.438ZM224.097 258.438H229.82V264.162H224.097V258.438ZM229.82 258.438H235.544V264.162H229.82V258.438ZM241.267 258.438H246.991V264.162H241.267V258.438ZM264.161 258.438H269.885V264.162H264.161V258.438ZM269.885 258.438H275.608V264.162H269.885V258.438ZM287.055 258.438H292.779V264.162H287.055V258.438ZM292.779 258.438H298.502V264.162H292.779V258.438ZM298.502 258.438H304.226V264.162H298.502V258.438ZM304.226 258.438H309.949V264.162H304.226V258.438ZM309.949 258.438H315.673V264.162H309.949V258.438ZM0.878906 264.162H6.60244V269.885H0.878906V264.162ZM12.326 264.162H18.0495V269.885H12.326V264.162ZM29.4966 264.162H35.2201V269.885H29.4966V264.162ZM35.2201 264.162H40.9436V269.885H35.2201V264.162ZM40.9436 264.162H46.6671V269.885H40.9436V264.162ZM75.2848 264.162H81.0083V269.885H75.2848V264.162ZM81.0083 264.162H86.7318V269.885H81.0083V264.162ZM98.1789 264.162H103.902V269.885H98.1789V264.162ZM103.902 264.162H109.626V269.885H103.902V264.162ZM109.626 264.162H115.349V269.885H109.626V264.162ZM126.797 264.162H132.52V269.885H126.797V264.162ZM138.244 264.162H143.967V269.885H138.244V264.162ZM143.967 264.162H149.691V269.885H143.967V264.162ZM149.691 264.162H155.414V269.885H149.691V264.162ZM161.138 264.162H166.861V269.885H161.138V264.162ZM172.585 264.162H178.308V269.885H172.585V264.162ZM189.755 264.162H195.479V269.885H189.755V264.162ZM195.479 264.162H201.202V269.885H195.479V264.162ZM201.202 264.162H206.926V269.885H201.202V264.162ZM206.926 264.162H212.649V269.885H206.926V264.162ZM212.649 264.162H218.373V269.885H212.649V264.162ZM224.097 264.162H229.82V269.885H224.097V264.162ZM229.82 264.162H235.544V269.885H229.82V264.162ZM235.544 264.162H241.267V269.885H235.544V264.162ZM246.991 264.162H252.714V269.885H246.991V264.162ZM252.714 264.162H258.438V269.885H252.714V264.162ZM258.438 264.162H264.161V269.885H258.438V264.162ZM264.161 264.162H269.885V269.885H264.161V264.162ZM269.885 264.162H275.608V269.885H269.885V264.162ZM275.608 264.162H281.332V269.885H275.608V264.162ZM287.055 264.162H292.779V269.885H287.055V264.162ZM292.779 264.162H298.502V269.885H292.779V264.162ZM298.502 264.162H304.226V269.885H298.502V264.162ZM304.226 264.162H309.949V269.885H304.226V264.162ZM309.949 264.162H315.673V269.885H309.949V264.162ZM315.673 264.162H321.397V269.885H315.673V264.162ZM321.397 264.162H327.12V269.885H321.397V264.162ZM0.878906 269.885H6.60244V275.609H0.878906V269.885ZM6.60244 269.885H12.326V275.609H6.60244V269.885ZM12.326 269.885H18.0495V275.609H12.326V269.885ZM18.0495 269.885H23.773V275.609H18.0495V269.885ZM23.773 269.885H29.4966V275.609H23.773V269.885ZM40.9436 269.885H46.6671V275.609H40.9436V269.885ZM46.6671 269.885H52.3907V275.609H46.6671V269.885ZM69.5613 269.885H75.2848V275.609H69.5613V269.885ZM75.2848 269.885H81.0083V275.609H75.2848V269.885ZM81.0083 269.885H86.7318V275.609H81.0083V269.885ZM92.4554 269.885H98.1789V275.609H92.4554V269.885ZM98.1789 269.885H103.902V275.609H98.1789V269.885ZM103.902 269.885H109.626V275.609H103.902V269.885ZM132.52 269.885H138.244V275.609H132.52V269.885ZM143.967 269.885H149.691V275.609H143.967V269.885ZM155.414 269.885H161.138V275.609H155.414V269.885ZM161.138 269.885H166.861V275.609H161.138V269.885ZM166.861 269.885H172.585V275.609H166.861V269.885ZM172.585 269.885H178.308V275.609H172.585V269.885ZM189.755 269.885H195.479V275.609H189.755V269.885ZM195.479 269.885H201.202V275.609H195.479V269.885ZM201.202 269.885H206.926V275.609H201.202V269.885ZM212.649 269.885H218.373V275.609H212.649V269.885ZM218.373 269.885H224.097V275.609H218.373V269.885ZM235.544 269.885H241.267V275.609H235.544V269.885ZM241.267 269.885H246.991V275.609H241.267V269.885ZM252.714 269.885H258.438V275.609H252.714V269.885ZM258.438 269.885H264.161V275.609H258.438V269.885ZM264.161 269.885H269.885V275.609H264.161V269.885ZM275.608 269.885H281.332V275.609H275.608V269.885ZM287.055 269.885H292.779V275.609H287.055V269.885ZM298.502 269.885H304.226V275.609H298.502V269.885ZM304.226 269.885H309.949V275.609H304.226V269.885ZM309.949 269.885H315.673V275.609H309.949V269.885ZM35.2201 275.609H40.9436V281.332H35.2201V275.609ZM46.6671 275.609H52.3907V281.332H46.6671V275.609ZM58.1142 275.609H63.8377V281.332H58.1142V275.609ZM69.5613 275.609H75.2848V281.332H69.5613V275.609ZM86.7318 275.609H92.4554V281.332H86.7318V275.609ZM98.1789 275.609H103.902V281.332H98.1789V275.609ZM109.626 275.609H115.349V281.332H109.626V275.609ZM126.797 275.609H132.52V281.332H126.797V275.609ZM132.52 275.609H138.244V281.332H132.52V275.609ZM138.244 275.609H143.967V281.332H138.244V275.609ZM149.691 275.609H155.414V281.332H149.691V275.609ZM155.414 275.609H161.138V281.332H155.414V275.609ZM161.138 275.609H166.861V281.332H161.138V275.609ZM166.861 275.609H172.585V281.332H166.861V275.609ZM172.585 275.609H178.308V281.332H172.585V275.609ZM206.926 275.609H212.649V281.332H206.926V275.609ZM212.649 275.609H218.373V281.332H212.649V275.609ZM218.373 275.609H224.097V281.332H218.373V275.609ZM229.82 275.609H235.544V281.332H229.82V275.609ZM235.544 275.609H241.267V281.332H235.544V275.609ZM252.714 275.609H258.438V281.332H252.714V275.609ZM264.161 275.609H269.885V281.332H264.161V275.609ZM269.885 275.609H275.608V281.332H269.885V275.609ZM275.608 275.609H281.332V281.332H275.608V275.609ZM281.332 275.609H287.055V281.332H281.332V275.609ZM287.055 275.609H292.779V281.332H287.055V275.609ZM292.779 275.609H298.502V281.332H292.779V275.609ZM298.502 275.609H304.226V281.332H298.502V275.609ZM304.226 275.609H309.949V281.332H304.226V275.609ZM321.397 275.609H327.12V281.332H321.397V275.609ZM46.6671 281.332H52.3907V287.056H46.6671V281.332ZM58.1142 281.332H63.8377V287.056H58.1142V281.332ZM63.8377 281.332H69.5613V287.056H63.8377V281.332ZM75.2848 281.332H81.0083V287.056H75.2848V281.332ZM81.0083 281.332H86.7318V287.056H81.0083V281.332ZM86.7318 281.332H92.4554V287.056H86.7318V281.332ZM92.4554 281.332H98.1789V287.056H92.4554V281.332ZM103.902 281.332H109.626V287.056H103.902V281.332ZM121.073 281.332H126.797V287.056H121.073V281.332ZM126.797 281.332H132.52V287.056H126.797V281.332ZM132.52 281.332H138.244V287.056H132.52V281.332ZM138.244 281.332H143.967V287.056H138.244V281.332ZM149.691 281.332H155.414V287.056H149.691V281.332ZM172.585 281.332H178.308V287.056H172.585V281.332ZM178.308 281.332H184.032V287.056H178.308V281.332ZM189.755 281.332H195.479V287.056H189.755V281.332ZM201.202 281.332H206.926V287.056H201.202V281.332ZM206.926 281.332H212.649V287.056H206.926V281.332ZM218.373 281.332H224.097V287.056H218.373V281.332ZM224.097 281.332H229.82V287.056H224.097V281.332ZM229.82 281.332H235.544V287.056H229.82V281.332ZM241.267 281.332H246.991V287.056H241.267V281.332ZM246.991 281.332H252.714V287.056H246.991V281.332ZM252.714 281.332H258.438V287.056H252.714V281.332ZM275.608 281.332H281.332V287.056H275.608V281.332ZM298.502 281.332H304.226V287.056H298.502V281.332ZM304.226 281.332H309.949V287.056H304.226V281.332ZM0.878906 287.056H6.60244V292.779H0.878906V287.056ZM6.60244 287.056H12.326V292.779H6.60244V287.056ZM12.326 287.056H18.0495V292.779H12.326V287.056ZM18.0495 287.056H23.773V292.779H18.0495V287.056ZM23.773 287.056H29.4966V292.779H23.773V287.056ZM29.4966 287.056H35.2201V292.779H29.4966V287.056ZM35.2201 287.056H40.9436V292.779H35.2201V287.056ZM52.3907 287.056H58.1142V292.779H52.3907V287.056ZM69.5613 287.056H75.2848V292.779H69.5613V287.056ZM75.2848 287.056H81.0083V292.779H75.2848V287.056ZM81.0083 287.056H86.7318V292.779H81.0083V287.056ZM86.7318 287.056H92.4554V292.779H86.7318V287.056ZM92.4554 287.056H98.1789V292.779H92.4554V287.056ZM103.902 287.056H109.626V292.779H103.902V287.056ZM115.349 287.056H121.073V292.779H115.349V287.056ZM121.073 287.056H126.797V292.779H121.073V287.056ZM126.797 287.056H132.52V292.779H126.797V287.056ZM138.244 287.056H143.967V292.779H138.244V287.056ZM143.967 287.056H149.691V292.779H143.967V287.056ZM149.691 287.056H155.414V292.779H149.691V287.056ZM161.138 287.056H166.861V292.779H161.138V287.056ZM172.585 287.056H178.308V292.779H172.585V287.056ZM184.032 287.056H189.755V292.779H184.032V287.056ZM189.755 287.056H195.479V292.779H189.755V287.056ZM201.202 287.056H206.926V292.779H201.202V287.056ZM212.649 287.056H218.373V292.779H212.649V287.056ZM218.373 287.056H224.097V292.779H218.373V287.056ZM235.544 287.056H241.267V292.779H235.544V287.056ZM246.991 287.056H252.714V292.779H246.991V287.056ZM252.714 287.056H258.438V292.779H252.714V287.056ZM258.438 287.056H264.161V292.779H258.438V287.056ZM275.608 287.056H281.332V292.779H275.608V287.056ZM287.055 287.056H292.779V292.779H287.055V287.056ZM298.502 287.056H304.226V292.779H298.502V287.056ZM0.878906 292.779H6.60244V298.503H0.878906V292.779ZM35.2201 292.779H40.9436V298.503H35.2201V292.779ZM46.6671 292.779H52.3907V298.503H46.6671V292.779ZM52.3907 292.779H58.1142V298.503H52.3907V292.779ZM58.1142 292.779H63.8377V298.503H58.1142V292.779ZM69.5613 292.779H75.2848V298.503H69.5613V292.779ZM81.0083 292.779H86.7318V298.503H81.0083V292.779ZM86.7318 292.779H92.4554V298.503H86.7318V292.779ZM92.4554 292.779H98.1789V298.503H92.4554V292.779ZM98.1789 292.779H103.902V298.503H98.1789V292.779ZM109.626 292.779H115.349V298.503H109.626V292.779ZM115.349 292.779H121.073V298.503H115.349V292.779ZM132.52 292.779H138.244V298.503H132.52V292.779ZM143.967 292.779H149.691V298.503H143.967V292.779ZM149.691 292.779H155.414V298.503H149.691V292.779ZM172.585 292.779H178.308V298.503H172.585V292.779ZM189.755 292.779H195.479V298.503H189.755V292.779ZM212.649 292.779H218.373V298.503H212.649V292.779ZM218.373 292.779H224.097V298.503H218.373V292.779ZM224.097 292.779H229.82V298.503H224.097V292.779ZM264.161 292.779H269.885V298.503H264.161V292.779ZM269.885 292.779H275.608V298.503H269.885V292.779ZM275.608 292.779H281.332V298.503H275.608V292.779ZM298.502 292.779H304.226V298.503H298.502V292.779ZM304.226 292.779H309.949V298.503H304.226V292.779ZM309.949 292.779H315.673V298.503H309.949V292.779ZM0.878906 298.503H6.60244V304.226H0.878906V298.503ZM12.326 298.503H18.0495V304.226H12.326V298.503ZM18.0495 298.503H23.773V304.226H18.0495V298.503ZM23.773 298.503H29.4966V304.226H23.773V298.503ZM35.2201 298.503H40.9436V304.226H35.2201V298.503ZM46.6671 298.503H52.3907V304.226H46.6671V298.503ZM58.1142 298.503H63.8377V304.226H58.1142V298.503ZM63.8377 298.503H69.5613V304.226H63.8377V298.503ZM69.5613 298.503H75.2848V304.226H69.5613V298.503ZM75.2848 298.503H81.0083V304.226H75.2848V298.503ZM81.0083 298.503H86.7318V304.226H81.0083V298.503ZM86.7318 298.503H92.4554V304.226H86.7318V298.503ZM92.4554 298.503H98.1789V304.226H92.4554V298.503ZM109.626 298.503H115.349V304.226H109.626V298.503ZM132.52 298.503H138.244V304.226H132.52V298.503ZM138.244 298.503H143.967V304.226H138.244V298.503ZM143.967 298.503H149.691V304.226H143.967V298.503ZM149.691 298.503H155.414V304.226H149.691V298.503ZM155.414 298.503H161.138V304.226H155.414V298.503ZM161.138 298.503H166.861V304.226H161.138V298.503ZM166.861 298.503H172.585V304.226H166.861V298.503ZM172.585 298.503H178.308V304.226H172.585V298.503ZM178.308 298.503H184.032V304.226H178.308V298.503ZM184.032 298.503H189.755V304.226H184.032V298.503ZM206.926 298.503H212.649V304.226H206.926V298.503ZM235.544 298.503H241.267V304.226H235.544V298.503ZM241.267 298.503H246.991V304.226H241.267V298.503ZM246.991 298.503H252.714V304.226H246.991V298.503ZM252.714 298.503H258.438V304.226H252.714V298.503ZM264.161 298.503H269.885V304.226H264.161V298.503ZM275.608 298.503H281.332V304.226H275.608V298.503ZM281.332 298.503H287.055V304.226H281.332V298.503ZM287.055 298.503H292.779V304.226H287.055V298.503ZM292.779 298.503H298.502V304.226H292.779V298.503ZM298.502 298.503H304.226V304.226H298.502V298.503ZM304.226 298.503H309.949V304.226H304.226V298.503ZM315.673 298.503H321.397V304.226H315.673V298.503ZM0.878906 304.226H6.60244V309.95H0.878906V304.226ZM12.326 304.226H18.0495V309.95H12.326V304.226ZM18.0495 304.226H23.773V309.95H18.0495V304.226ZM23.773 304.226H29.4966V309.95H23.773V304.226ZM35.2201 304.226H40.9436V309.95H35.2201V304.226ZM46.6671 304.226H52.3907V309.95H46.6671V304.226ZM58.1142 304.226H63.8377V309.95H58.1142V304.226ZM69.5613 304.226H75.2848V309.95H69.5613V304.226ZM75.2848 304.226H81.0083V309.95H75.2848V304.226ZM81.0083 304.226H86.7318V309.95H81.0083V304.226ZM86.7318 304.226H92.4554V309.95H86.7318V304.226ZM103.902 304.226H109.626V309.95H103.902V304.226ZM121.073 304.226H126.797V309.95H121.073V304.226ZM138.244 304.226H143.967V309.95H138.244V304.226ZM143.967 304.226H149.691V309.95H143.967V304.226ZM149.691 304.226H155.414V309.95H149.691V304.226ZM155.414 304.226H161.138V309.95H155.414V304.226ZM161.138 304.226H166.861V309.95H161.138V304.226ZM172.585 304.226H178.308V309.95H172.585V304.226ZM178.308 304.226H184.032V309.95H178.308V304.226ZM184.032 304.226H189.755V309.95H184.032V304.226ZM189.755 304.226H195.479V309.95H189.755V304.226ZM195.479 304.226H201.202V309.95H195.479V304.226ZM206.926 304.226H212.649V309.95H206.926V304.226ZM224.097 304.226H229.82V309.95H224.097V304.226ZM241.267 304.226H246.991V309.95H241.267V304.226ZM258.438 304.226H264.161V309.95H258.438V304.226ZM264.161 304.226H269.885V309.95H264.161V304.226ZM269.885 304.226H275.608V309.95H269.885V304.226ZM281.332 304.226H287.055V309.95H281.332V304.226ZM287.055 304.226H292.779V309.95H287.055V304.226ZM292.779 304.226H298.502V309.95H292.779V304.226ZM309.949 304.226H315.673V309.95H309.949V304.226ZM0.878906 309.95H6.60244V315.673H0.878906V309.95ZM12.326 309.95H18.0495V315.673H12.326V309.95ZM18.0495 309.95H23.773V315.673H18.0495V309.95ZM23.773 309.95H29.4966V315.673H23.773V309.95ZM35.2201 309.95H40.9436V315.673H35.2201V309.95ZM52.3907 309.95H58.1142V315.673H52.3907V309.95ZM58.1142 309.95H63.8377V315.673H58.1142V309.95ZM63.8377 309.95H69.5613V315.673H63.8377V309.95ZM69.5613 309.95H75.2848V315.673H69.5613V309.95ZM92.4554 309.95H98.1789V315.673H92.4554V309.95ZM103.902 309.95H109.626V315.673H103.902V309.95ZM109.626 309.95H115.349V315.673H109.626V309.95ZM115.349 309.95H121.073V315.673H115.349V309.95ZM138.244 309.95H143.967V315.673H138.244V309.95ZM149.691 309.95H155.414V315.673H149.691V309.95ZM161.138 309.95H166.861V315.673H161.138V309.95ZM178.308 309.95H184.032V315.673H178.308V309.95ZM184.032 309.95H189.755V315.673H184.032V309.95ZM189.755 309.95H195.479V315.673H189.755V309.95ZM206.926 309.95H212.649V315.673H206.926V309.95ZM212.649 309.95H218.373V315.673H212.649V309.95ZM229.82 309.95H235.544V315.673H229.82V309.95ZM235.544 309.95H241.267V315.673H235.544V309.95ZM246.991 309.95H252.714V315.673H246.991V309.95ZM252.714 309.95H258.438V315.673H252.714V309.95ZM275.608 309.95H281.332V315.673H275.608V309.95ZM298.502 309.95H304.226V315.673H298.502V309.95ZM304.226 309.95H309.949V315.673H304.226V309.95ZM309.949 309.95H315.673V315.673H309.949V309.95ZM315.673 309.95H321.397V315.673H315.673V309.95ZM321.397 309.95H327.12V315.673H321.397V309.95ZM0.878906 315.673H6.60244V321.397H0.878906V315.673ZM35.2201 315.673H40.9436V321.397H35.2201V315.673ZM46.6671 315.673H52.3907V321.397H46.6671V315.673ZM52.3907 315.673H58.1142V321.397H52.3907V315.673ZM75.2848 315.673H81.0083V321.397H75.2848V315.673ZM103.902 315.673H109.626V321.397H103.902V315.673ZM109.626 315.673H115.349V321.397H109.626V315.673ZM115.349 315.673H121.073V321.397H115.349V315.673ZM126.797 315.673H132.52V321.397H126.797V315.673ZM132.52 315.673H138.244V321.397H132.52V315.673ZM138.244 315.673H143.967V321.397H138.244V315.673ZM172.585 315.673H178.308V321.397H172.585V315.673ZM184.032 315.673H189.755V321.397H184.032V315.673ZM201.202 315.673H206.926V321.397H201.202V315.673ZM212.649 315.673H218.373V321.397H212.649V315.673ZM218.373 315.673H224.097V321.397H218.373V315.673ZM235.544 315.673H241.267V321.397H235.544V315.673ZM246.991 315.673H252.714V321.397H246.991V315.673ZM258.438 315.673H264.161V321.397H258.438V315.673ZM264.161 315.673H269.885V321.397H264.161V315.673ZM269.885 315.673H275.608V321.397H269.885V315.673ZM287.055 315.673H292.779V321.397H287.055V315.673ZM304.226 315.673H309.949V321.397H304.226V315.673ZM309.949 315.673H315.673V321.397H309.949V315.673ZM315.673 315.673H321.397V321.397H315.673V315.673ZM321.397 315.673H327.12V321.397H321.397V315.673ZM0.878906 321.397H6.60244V327.121H0.878906V321.397ZM6.60244 321.397H12.326V327.121H6.60244V321.397ZM12.326 321.397H18.0495V327.121H12.326V321.397ZM18.0495 321.397H23.773V327.121H18.0495V321.397ZM23.773 321.397H29.4966V327.121H23.773V321.397ZM29.4966 321.397H35.2201V327.121H29.4966V321.397ZM35.2201 321.397H40.9436V327.121H35.2201V321.397ZM58.1142 321.397H63.8377V327.121H58.1142V321.397ZM69.5613 321.397H75.2848V327.121H69.5613V321.397ZM75.2848 321.397H81.0083V327.121H75.2848V321.397ZM103.902 321.397H109.626V327.121H103.902V321.397ZM121.073 321.397H126.797V327.121H121.073V321.397ZM126.797 321.397H132.52V327.121H126.797V321.397ZM132.52 321.397H138.244V327.121H132.52V321.397ZM143.967 321.397H149.691V327.121H143.967V321.397ZM149.691 321.397H155.414V327.121H149.691V321.397ZM155.414 321.397H161.138V327.121H155.414V321.397ZM166.861 321.397H172.585V327.121H166.861V321.397ZM172.585 321.397H178.308V327.121H172.585V321.397ZM178.308 321.397H184.032V327.121H178.308V321.397ZM195.479 321.397H201.202V327.121H195.479V321.397ZM201.202 321.397H206.926V327.121H201.202V321.397ZM206.926 321.397H212.649V327.121H206.926V321.397ZM246.991 321.397H252.714V327.121H246.991V321.397ZM258.438 321.397H264.161V327.121H258.438V321.397ZM269.885 321.397H275.608V327.121H269.885V321.397ZM275.608 321.397H281.332V327.121H275.608V321.397ZM281.332 321.397H287.055V327.121H281.332V321.397ZM287.055 321.397H292.779V327.121H287.055V321.397ZM292.779 321.397H298.502V327.121H292.779V321.397ZM304.226 321.397H309.949V327.121H304.226V321.397Z" fill="black"/>
</svg>
