<svg width="284" height="2506" viewBox="0 0 284 2506" fill="none" xmlns="http://www.w3.org/2000/svg">
<rect y="167" width="284" height="38" fill="#D9D9D9"/>
<rect y="267" width="284" height="38" fill="#D9D9D9"/>
<rect y="367" width="284" height="38" fill="#D9D9D9"/>
<rect y="467" width="284" height="38" fill="#D9D9D9"/>
<rect y="567" width="284" height="38" fill="#D9D9D9"/>
<rect y="667" width="284" height="38" fill="#D9D9D9"/>
<rect y="767" width="284" height="38" fill="#D9D9D9"/>
<rect y="867" width="284" height="38" fill="#D9D9D9"/>
<rect y="967" width="284" height="38" fill="#D9D9D9"/>
<rect y="1067" width="284" height="38" fill="#D9D9D9"/>
<rect y="1167" width="284" height="38" fill="#D9D9D9"/>
<rect y="67" width="284" height="38" fill="#D9D9D9"/>
<rect x="45" width="18" height="1296" fill="#9D9D9D"/>
<rect x="224" width="18" height="1296" fill="#9D9D9D"/>
<circle cx="54" cy="78" r="4" fill="#525252"/>
<circle cx="54" cy="94" r="4" fill="#525252"/>
<circle cx="54" cy="176" r="4" fill="#525252"/>
<circle cx="54" cy="192" r="4" fill="#525252"/>
<circle cx="233" cy="176" r="4" fill="#525252"/>
<circle cx="233" cy="192" r="4" fill="#525252"/>
<circle cx="54" cy="278" r="4" fill="#525252"/>
<circle cx="54" cy="294" r="4" fill="#525252"/>
<circle cx="233" cy="278" r="4" fill="#525252"/>
<circle cx="233" cy="294" r="4" fill="#525252"/>
<circle cx="54" cy="378" r="4" fill="#525252"/>
<circle cx="54" cy="394" r="4" fill="#525252"/>
<circle cx="233" cy="378" r="4" fill="#525252"/>
<circle cx="233" cy="394" r="4" fill="#525252"/>
<circle cx="54" cy="478" r="4" fill="#525252"/>
<circle cx="54" cy="494" r="4" fill="#525252"/>
<circle cx="233" cy="478" r="4" fill="#525252"/>
<circle cx="233" cy="494" r="4" fill="#525252"/>
<circle cx="54" cy="578" r="4" fill="#525252"/>
<circle cx="54" cy="594" r="4" fill="#525252"/>
<circle cx="233" cy="578" r="4" fill="#525252"/>
<circle cx="233" cy="594" r="4" fill="#525252"/>
<circle cx="54" cy="678" r="4" fill="#525252"/>
<circle cx="54" cy="694" r="4" fill="#525252"/>
<circle cx="233" cy="678" r="4" fill="#525252"/>
<circle cx="233" cy="694" r="4" fill="#525252"/>
<circle cx="54" cy="778" r="4" fill="#525252"/>
<circle cx="54" cy="794" r="4" fill="#525252"/>
<circle cx="233" cy="778" r="4" fill="#525252"/>
<circle cx="233" cy="794" r="4" fill="#525252"/>
<circle cx="54" cy="878" r="4" fill="#525252"/>
<circle cx="54" cy="894" r="4" fill="#525252"/>
<circle cx="233" cy="878" r="4" fill="#525252"/>
<circle cx="233" cy="894" r="4" fill="#525252"/>
<circle cx="54" cy="978" r="4" fill="#525252"/>
<circle cx="54" cy="994" r="4" fill="#525252"/>
<circle cx="233" cy="978" r="4" fill="#525252"/>
<circle cx="233" cy="994" r="4" fill="#525252"/>
<circle cx="54" cy="1078" r="4" fill="#525252"/>
<circle cx="54" cy="1094" r="4" fill="#525252"/>
<circle cx="233" cy="1078" r="4" fill="#525252"/>
<circle cx="233" cy="1094" r="4" fill="#525252"/>
<circle cx="54" cy="1178" r="4" fill="#525252"/>
<circle cx="54" cy="1194" r="4" fill="#525252"/>
<circle cx="233" cy="1178" r="4" fill="#525252"/>
<circle cx="233" cy="1194" r="4" fill="#525252"/>
<circle cx="233" cy="78" r="4" fill="#525252"/>
<circle cx="233" cy="94" r="4" fill="#525252"/>
<rect y="1377" width="284" height="38" fill="#D9D9D9"/>
<rect y="1477" width="284" height="38" fill="#D9D9D9"/>
<rect y="1577" width="284" height="38" fill="#D9D9D9"/>
<rect y="1677" width="284" height="38" fill="#D9D9D9"/>
<rect y="1777" width="284" height="38" fill="#D9D9D9"/>
<rect y="1877" width="284" height="38" fill="#D9D9D9"/>
<rect y="1977" width="284" height="38" fill="#D9D9D9"/>
<rect y="2077" width="284" height="38" fill="#D9D9D9"/>
<rect y="2177" width="284" height="38" fill="#D9D9D9"/>
<rect y="2277" width="284" height="38" fill="#D9D9D9"/>
<rect y="2377" width="284" height="38" fill="#D9D9D9"/>
<rect y="1277" width="284" height="38" fill="#D9D9D9"/>
<rect x="45" y="1210" width="18" height="1296" fill="#9D9D9D"/>
<rect x="224" y="1210" width="18" height="1296" fill="#9D9D9D"/>
<circle cx="54" cy="1288" r="4" fill="#525252"/>
<circle cx="54" cy="1304" r="4" fill="#525252"/>
<circle cx="54" cy="1386" r="4" fill="#525252"/>
<circle cx="54" cy="1402" r="4" fill="#525252"/>
<circle cx="233" cy="1386" r="4" fill="#525252"/>
<circle cx="233" cy="1402" r="4" fill="#525252"/>
<circle cx="54" cy="1488" r="4" fill="#525252"/>
<circle cx="54" cy="1504" r="4" fill="#525252"/>
<circle cx="233" cy="1488" r="4" fill="#525252"/>
<circle cx="233" cy="1504" r="4" fill="#525252"/>
<circle cx="54" cy="1588" r="4" fill="#525252"/>
<circle cx="54" cy="1604" r="4" fill="#525252"/>
<circle cx="233" cy="1588" r="4" fill="#525252"/>
<circle cx="233" cy="1604" r="4" fill="#525252"/>
<circle cx="54" cy="1688" r="4" fill="#525252"/>
<circle cx="54" cy="1704" r="4" fill="#525252"/>
<circle cx="233" cy="1688" r="4" fill="#525252"/>
<circle cx="233" cy="1704" r="4" fill="#525252"/>
<circle cx="54" cy="1788" r="4" fill="#525252"/>
<circle cx="54" cy="1804" r="4" fill="#525252"/>
<circle cx="233" cy="1788" r="4" fill="#525252"/>
<circle cx="233" cy="1804" r="4" fill="#525252"/>
<circle cx="54" cy="1888" r="4" fill="#525252"/>
<circle cx="54" cy="1904" r="4" fill="#525252"/>
<circle cx="233" cy="1888" r="4" fill="#525252"/>
<circle cx="233" cy="1904" r="4" fill="#525252"/>
<circle cx="54" cy="1988" r="4" fill="#525252"/>
<circle cx="54" cy="2004" r="4" fill="#525252"/>
<circle cx="233" cy="1988" r="4" fill="#525252"/>
<circle cx="233" cy="2004" r="4" fill="#525252"/>
<circle cx="54" cy="2088" r="4" fill="#525252"/>
<circle cx="54" cy="2104" r="4" fill="#525252"/>
<circle cx="233" cy="2088" r="4" fill="#525252"/>
<circle cx="233" cy="2104" r="4" fill="#525252"/>
<circle cx="54" cy="2188" r="4" fill="#525252"/>
<circle cx="54" cy="2204" r="4" fill="#525252"/>
<circle cx="233" cy="2188" r="4" fill="#525252"/>
<circle cx="233" cy="2204" r="4" fill="#525252"/>
<circle cx="54" cy="2288" r="4" fill="#525252"/>
<circle cx="54" cy="2304" r="4" fill="#525252"/>
<circle cx="233" cy="2288" r="4" fill="#525252"/>
<circle cx="233" cy="2304" r="4" fill="#525252"/>
<circle cx="54" cy="2388" r="4" fill="#525252"/>
<circle cx="54" cy="2404" r="4" fill="#525252"/>
<circle cx="233" cy="2388" r="4" fill="#525252"/>
<circle cx="233" cy="2404" r="4" fill="#525252"/>
<circle cx="233" cy="1288" r="4" fill="#525252"/>
<circle cx="233" cy="1304" r="4" fill="#525252"/>
</svg>
