<svg width="1200" height="284" viewBox="0 0 1200 284" fill="none" xmlns="http://www.w3.org/2000/svg">
<rect x="131.5" y="283.5" width="283" height="37" transform="rotate(-90 131.5 283.5)" fill="#222831" stroke="#EEEEEE"/>
<rect x="231.5" y="283.5" width="283" height="37" transform="rotate(-90 231.5 283.5)" fill="#222831" stroke="#EEEEEE"/>
<rect x="331.5" y="283.5" width="283" height="37" transform="rotate(-90 331.5 283.5)" fill="#222831" stroke="#EEEEEE"/>
<rect x="431.5" y="283.5" width="283" height="37" transform="rotate(-90 431.5 283.5)" fill="#222831" stroke="#EEEEEE"/>
<rect x="531.5" y="283.5" width="283" height="37" transform="rotate(-90 531.5 283.5)" fill="#222831" stroke="#EEEEEE"/>
<rect x="631.5" y="283.5" width="283" height="37" transform="rotate(-90 631.5 283.5)" fill="#222831" stroke="#EEEEEE"/>
<rect x="731.5" y="283.5" width="283" height="37" transform="rotate(-90 731.5 283.5)" fill="#222831" stroke="#EEEEEE"/>
<rect x="831.5" y="283.5" width="283" height="37" transform="rotate(-90 831.5 283.5)" fill="#222831" stroke="#EEEEEE"/>
<rect x="931.5" y="283.5" width="283" height="37" transform="rotate(-90 931.5 283.5)" fill="#222831" stroke="#EEEEEE"/>
<rect x="1031.5" y="283.5" width="283" height="37" transform="rotate(-90 1031.5 283.5)" fill="#222831" stroke="#EEEEEE"/>
<rect x="1131.5" y="283.5" width="283" height="37" transform="rotate(-90 1131.5 283.5)" fill="#222831" stroke="#EEEEEE"/>
<rect x="31.5" y="283.5" width="283" height="37" transform="rotate(-90 31.5 283.5)" fill="#222831" stroke="#EEEEEE"/>
<rect y="239" width="18" height="1200" transform="rotate(-90 0 239)" fill="#9D9D9D"/>
<rect y="60" width="18" height="1200" transform="rotate(-90 0 60)" fill="#9D9D9D"/>
<circle cx="42" cy="230" r="4" transform="rotate(-90 42 230)" fill="#525252"/>
<circle cx="58" cy="230" r="4" transform="rotate(-90 58 230)" fill="#525252"/>
<circle cx="140" cy="230" r="4" transform="rotate(-90 140 230)" fill="#525252"/>
<circle cx="156" cy="230" r="4" transform="rotate(-90 156 230)" fill="#525252"/>
<circle cx="140" cy="51" r="4" transform="rotate(-90 140 51)" fill="#525252"/>
<circle cx="156" cy="51" r="4" transform="rotate(-90 156 51)" fill="#525252"/>
<circle cx="242" cy="230" r="4" transform="rotate(-90 242 230)" fill="#525252"/>
<circle cx="258" cy="230" r="4" transform="rotate(-90 258 230)" fill="#525252"/>
<circle cx="242" cy="51" r="4" transform="rotate(-90 242 51)" fill="#525252"/>
<circle cx="258" cy="51" r="4" transform="rotate(-90 258 51)" fill="#525252"/>
<circle cx="342" cy="230" r="4" transform="rotate(-90 342 230)" fill="#525252"/>
<circle cx="358" cy="230" r="4" transform="rotate(-90 358 230)" fill="#525252"/>
<circle cx="342" cy="51" r="4" transform="rotate(-90 342 51)" fill="#525252"/>
<circle cx="358" cy="51" r="4" transform="rotate(-90 358 51)" fill="#525252"/>
<circle cx="442" cy="230" r="4" transform="rotate(-90 442 230)" fill="#525252"/>
<circle cx="458" cy="230" r="4" transform="rotate(-90 458 230)" fill="#525252"/>
<circle cx="442" cy="51" r="4" transform="rotate(-90 442 51)" fill="#525252"/>
<circle cx="458" cy="51" r="4" transform="rotate(-90 458 51)" fill="#525252"/>
<circle cx="542" cy="230" r="4" transform="rotate(-90 542 230)" fill="#525252"/>
<circle cx="558" cy="230" r="4" transform="rotate(-90 558 230)" fill="#525252"/>
<circle cx="542" cy="51" r="4" transform="rotate(-90 542 51)" fill="#525252"/>
<circle cx="558" cy="51" r="4" transform="rotate(-90 558 51)" fill="#525252"/>
<circle cx="642" cy="230" r="4" transform="rotate(-90 642 230)" fill="#525252"/>
<circle cx="658" cy="230" r="4" transform="rotate(-90 658 230)" fill="#525252"/>
<circle cx="642" cy="51" r="4" transform="rotate(-90 642 51)" fill="#525252"/>
<circle cx="658" cy="51" r="4" transform="rotate(-90 658 51)" fill="#525252"/>
<circle cx="742" cy="230" r="4" transform="rotate(-90 742 230)" fill="#525252"/>
<circle cx="758" cy="230" r="4" transform="rotate(-90 758 230)" fill="#525252"/>
<circle cx="742" cy="51" r="4" transform="rotate(-90 742 51)" fill="#525252"/>
<circle cx="758" cy="51" r="4" transform="rotate(-90 758 51)" fill="#525252"/>
<circle cx="842" cy="230" r="4" transform="rotate(-90 842 230)" fill="#525252"/>
<circle cx="858" cy="230" r="4" transform="rotate(-90 858 230)" fill="#525252"/>
<circle cx="842" cy="51" r="4" transform="rotate(-90 842 51)" fill="#525252"/>
<circle cx="858" cy="51" r="4" transform="rotate(-90 858 51)" fill="#525252"/>
<circle cx="942" cy="230" r="4" transform="rotate(-90 942 230)" fill="#525252"/>
<circle cx="958" cy="230" r="4" transform="rotate(-90 958 230)" fill="#525252"/>
<circle cx="942" cy="51" r="4" transform="rotate(-90 942 51)" fill="#525252"/>
<circle cx="958" cy="51" r="4" transform="rotate(-90 958 51)" fill="#525252"/>
<circle cx="1042" cy="230" r="4" transform="rotate(-90 1042 230)" fill="#525252"/>
<circle cx="1058" cy="230" r="4" transform="rotate(-90 1058 230)" fill="#525252"/>
<circle cx="1042" cy="51" r="4" transform="rotate(-90 1042 51)" fill="#525252"/>
<circle cx="1058" cy="51" r="4" transform="rotate(-90 1058 51)" fill="#525252"/>
<circle cx="1142" cy="230" r="4" transform="rotate(-90 1142 230)" fill="#525252"/>
<circle cx="1158" cy="230" r="4" transform="rotate(-90 1158 230)" fill="#525252"/>
<circle cx="1142" cy="51" r="4" transform="rotate(-90 1142 51)" fill="#525252"/>
<circle cx="1158" cy="51" r="4" transform="rotate(-90 1158 51)" fill="#525252"/>
<circle cx="42" cy="51" r="4" transform="rotate(-90 42 51)" fill="#525252"/>
<circle cx="58" cy="51" r="4" transform="rotate(-90 58 51)" fill="#525252"/>
</svg>
