<svg width="35" height="24" viewBox="0 0 35 24" fill="none" xmlns="http://www.w3.org/2000/svg">
<path fill-rule="evenodd" clip-rule="evenodd" d="M31.3744 20.75C31.7832 20.75 32.1754 20.9124 32.4645 21.2016C32.7536 21.4907 32.916 21.8828 32.916 22.2917C32.916 22.7006 32.7536 23.0927 32.4645 23.3818C32.1754 23.6709 31.7832 23.8333 31.3744 23.8333H2.08269C1.67382 23.8333 1.28169 23.6709 0.992569 23.3818C0.70345 23.0927 0.541025 22.7006 0.541025 22.2917C0.541025 21.8828 0.70345 21.4907 0.992569 21.2016C1.28169 20.9124 1.67382 20.75 2.08269 20.75H31.3744ZM17.4994 0.708344C22.4697 0.708344 26.6599 2.36564 29.6292 4.69972C32.5445 6.99064 34.4577 10.0894 34.4577 13.0417C34.4577 14.3398 34.0599 15.4467 33.3585 16.3408C32.6755 17.2134 31.7644 17.8054 30.8363 18.2124C29.0079 19.011 26.8326 19.2083 25.2077 19.2083H3.61511C3.21069 19.2081 2.81029 19.1282 2.43681 18.973C2.06333 18.8179 1.72412 18.5906 1.43858 18.3042C1.15304 18.0178 0.926795 17.678 0.77278 17.304C0.618766 16.9301 0.540012 16.5294 0.541025 16.125V3.79168C0.541025 2.0943 1.91311 0.708344 3.62128 0.708344H17.4994ZM31.0922 11.5H3.62436V16.125H25.2077C26.6661 16.125 28.345 15.9369 29.6014 15.3866C30.2135 15.1183 30.6513 14.7961 30.9319 14.4384C31.194 14.1054 31.3744 13.6707 31.3744 13.0417C31.3744 12.5699 31.2819 12.0488 31.0922 11.5ZM9.79103 3.79168H3.62436V8.41668H9.79103V3.79168ZM17.4994 3.79168H12.8744V8.41668H19.041V3.85334C18.5384 3.81326 18.0235 3.79168 17.4994 3.79168ZM22.1244 4.38213V8.41668H29.1405C28.7016 7.95033 28.228 7.51794 27.7237 7.12322C26.2406 5.95772 24.3474 4.97259 22.1244 4.38213Z" fill="#25F321"/>
</svg>
