<svg width="169" height="138" viewBox="0 0 169 138" fill="none" xmlns="http://www.w3.org/2000/svg">
<path d="M15.9807 56.062L12.5067 54.4659L11.7033 53.7886L11.4743 53.3665L10.8908 51.9796L10.6439 51.5255L9.02793 49.9743L8.74073 49.4594L8.60611 48.9943L8.38623 48.5965L7.81614 48.2946L7.40318 48.2486L6.59522 48.3623L6.24072 48.3478L5.60328 48.2128L5.28471 48.071L5.0557 47.68L4.68324 46.8099L4.48562 46.5859L3.96031 46.3159L3.82114 46.0813L3.86593 45.7649L4.20247 45.0005L4.25181 44.5525L3.39451 41.5319L3.64578 40.9018L4.64681 39.8978L4.90263 39.4844L4.76346 38.1131L4.08126 37.0795L2.52811 35.3503L2.09718 34.0182L1.6617 30.9698L1 29.3847L1.87754 28.7398L3.52458 28.191L9.41989 23.7128L18.4504 18.3759L27.1909 12.6003L36.9245 9.43684L36.944 9.43152L37.3198 12.1099L37.1401 13.8339L37.1087 15.4529L37.7236 17.1966L38.7785 18.3567L39.0889 18.5005L39.1426 18.6419L37.7059 19.5488L38.4488 21.3474L37.3962 22.0959L38.5766 22.4863L39.5886 24.2942L38.0313 27.2699L36.1305 28.5139L41.0432 32.0274L40.1028 32.7073L41.4003 34.9461L40.2648 36.6456L41.0075 37.6541L39.6655 38.2633L41.757 39.3141L40.8839 39.2985L41.5441 39.9571L41.2433 40.2686L40.2154 40.1172L40.5565 40.9098L39.9727 41.4863L40.3275 42.4328L41.3326 41.8118L42.0107 42.0947L42.3564 43.3866L41.3326 44.4392L44.0217 46.7643L43.4604 47.4713L44.4617 48.8494L44.3537 49.3484L41.643 51.3677L39.6947 52.8166L37.7267 54.8823L37.5538 55.4067L37.1275 55.2702L36.8739 55.2508L35.8033 54.4606L35.8658 53.5201L34.9417 52.1979L33.0968 52.4781L31.3103 51.4529L29.3723 52.4523L28.8399 52.6428L28.1183 51.3418L27.3822 50.6425L26.2556 50.2983L22.8034 51.3848L22.7662 51.1543L22.3955 48.8525L21.7181 48.4068L19.191 49.4332L19.1505 49.7385L20.0407 50.7988L18.4008 51.4742L18.2122 52.1093L16.9757 52.3538L16.3585 51.7826L16.0713 51.8681L14.9154 52.5812L15.7975 55.414L15.9807 56.062Z" fill="#F37021" stroke="#222831" stroke-width="0.5" stroke-linejoin="round"/>
<path d="M22.8023 51.3842L20.527 52.1003L19.526 52.7281L18.736 53.5826L17.4298 55.8552L16.8551 56.2979L16.1773 56.1526L15.9796 56.0617L15.7962 55.413L14.9141 52.5798L16.0699 51.8668L16.3571 51.7816L16.9743 52.3528L18.2109 52.1079L18.3994 51.4728L20.0394 50.7978L19.1492 49.7372L19.1897 49.4318L21.7168 48.4054L22.3942 48.8511L22.7649 51.1534L22.8023 51.3842ZM70.9168 105.403L70.9472 105.406L71.2625 105.434L71.2085 104.443L70.9708 103.41L70.7643 103.322L70.9438 102.526L71.1636 102.019L71.4781 101.631L72.2725 100.887L73.278 100.167L74.3196 99.6466L74.3329 99.2024L74.0321 98.664L73.772 98.0273L73.0399 95.1056L72.6091 94.885L72.1424 94.9584L71.2758 95.3539L70.6608 95.0425L70.7643 93.8172L71.599 91.0981L71.8321 89.8641L72.0295 89.31L72.4919 88.6472L73.5153 87.8436L73.9416 87.3523L74.045 86.6434L73.78 86.2011L73.2411 85.7273L72.6577 85.3584L72.2672 85.2181L71.7241 85.4497L71.7017 85.8851L71.7557 86.3517L71.437 86.6681L70.638 86.2924L69.4485 83.7323L68.5506 82.9276L67.6261 82.3899L66.1852 80.787L65.3414 80.3827L64.4211 80.4812L61.6605 81.6483L60.6775 81.659L59.9009 81.2863L59.1556 80.7626L58.2581 80.3051L56.4536 80.0834L54.5594 80.2279L53.9711 80.4458L53.6209 80.8467L52.8397 82.1792L52.6515 82.7451L52.5348 82.9489L52.3374 83.0858L52.2655 83.0227L52.2028 83.0615L52.032 83.5007L50.5063 82.067L50.1245 79.2852L50.1199 76.1071L49.7518 73.4721L49.0471 72.1852L48.1854 71.3566L47.2335 70.8804L46.2505 70.6724L43.4451 70.6546L42.9062 70.2526L43.328 69.4939L43.3953 68.9433L43.1127 68.5869L42.4887 68.3964L41.8692 68.4455L41.425 68.7387L40.9941 69.1726L40.4062 69.6278L38.5029 70.3229L37.448 70.45L36.6894 70.2347L34.7906 69.2433L34.2205 68.7919L33.5383 67.9127L33.3138 67.1357L33.2466 64.9563L32.0975 61.1059L31.7473 59.1242L32.3533 57.9803L31.8596 56.3473L31.514 55.713L30.9305 55.5217L30.3201 55.4369L29.9745 55.0327L29.4403 53.7279L28.8378 52.6418L29.3702 52.4513L31.3083 51.4519L33.0947 52.4771L34.9396 52.1969L35.8637 53.5191L35.8012 54.4596L36.8719 55.2502L37.1254 55.2696L37.5518 55.4057L37.7246 54.8813L39.6928 52.816L41.641 51.3667L43.2276 52.0284L44.9579 51.5104L45.2427 53.6713L48.1135 53.7218L49.3301 54.5695L51.0961 51.1324L52.3419 50.4331L52.7998 51.358L54.6781 50.5555L55.4094 52.7084L57.1492 52.5072L57.728 53.0837L60.1767 52.5429L60.6364 53.7245L60.3314 54.8635L60.5398 55.6282L61.1551 56.4337L62.0796 56.7664L64.7124 56.841L65.5874 56.1378L66.4134 56.4086L67.4326 55.8739L67.7376 56.3413L68.3548 55.1825L69.5287 55.5795L70.0801 55.5963L69.288 55.8301L69.1153 56.7124L69.1644 59.2444L69.5884 60.4514L70.3494 60.7735L71.3571 60.6199L72.7239 58.7348L73.2019 58.5439L74.0412 59.652L73.8214 61.085L76.1397 61.6725L75.902 63.1013L77.3113 63.3964L78.4047 65.0982L79.6858 64.9692L79.5645 66.7091L80.651 65.4906L83.113 65.2256L83.5663 65.699L85.5259 65.6849L85.7347 66.0363L85.6134 67.7225L87.0452 66.9741L86.9939 67.6096L87.6312 67.8975L90.2457 66.787L89.4714 70.1545L91.0287 69.7628L90.6903 70.3941L91.2265 71.1295L90.6477 72.7252L90.0594 72.829L90.4792 73.3101L90.0685 73.7261L91.9494 74.8575L91.3033 76.2821L90.6096 76.4916L91.5098 77.5458L90.4549 79.2962L90.7287 81.8514L87.7928 82.3309L86.9984 81.3099L85.791 81.4224L84.9042 82.9565L82.4962 82.6177L82.1417 83.8878L81.3606 83.849L80.7993 84.8713L79.3428 84.9694L77.6171 86.2369L78.3328 87.2127L79.9174 88.1512L80.2521 88.1338L81.0553 87.204L81.971 87.4055L82.5928 87.8828L82.0676 90.0573L82.4201 91.0304L80.8358 92.2519L82.4988 95.1603L81.933 96.3172L81.9691 99.0283L82.16 100.133L82.8624 100.38L83.2104 103.896L84.4805 106.485L83.8968 107.915L83.7736 108.192L83.7705 108.199L77.2535 106.405L74.5759 106.793L73.9321 106.886L73.3483 106.719L70.9168 105.403Z" fill="#F37021" stroke="#222831" stroke-width="0.5" stroke-linejoin="round"/>
<path d="M107.257 117.402L106.46 117.441L104.575 118.109L103.6 118.265L102.465 118.102L102.074 117.591L102.083 115.072L101.975 114.672L101.549 113.966L101.459 113.628L101.54 113.218L101.926 112.765L102.07 112.413L102.303 111.588L102.523 111.024L102.635 110.442L102.559 109.564L101.881 108.323L99.825 107.475L99.2462 106.53L99.4344 105.452L101.104 101.279L101.145 100.556L101.078 99.9927L101.127 99.3808L101.944 97.5798L102.209 97.5166L102.676 98.0274L102.774 96.8416L103.008 95.4418L103.066 94.2549L102.666 93.7259L101.307 94.0096L100.817 93.8031L100.62 92.7942L99.4481 93.3335L94.8158 98.0376L94.5644 98.5693L94.4477 99.2371L94.5507 99.6428L94.7127 99.982L94.7572 100.447L94.4252 102.606L94.1199 103.678L93.7206 104.45L93.249 104.76L91.44 105.05L85.3846 108.061L84.0966 108.288L83.7726 108.198L83.7756 108.192L83.8992 107.914L84.4826 106.485L83.2124 103.895L82.8645 100.379L82.1621 100.133L81.9712 99.0275L81.9354 96.3168L82.5009 95.1596L80.8379 92.2512L82.4226 91.0297L82.07 90.0565L82.5952 87.882L81.9734 87.4048L81.0577 87.2032L80.2542 88.133L79.9195 88.1505L78.3352 87.2119L77.6191 86.2361L79.3453 84.9686L80.8018 84.8705L81.3627 83.8483L82.1438 83.8871L82.4982 82.6169L84.9066 82.9558L85.7931 81.4217L87.0009 81.3091L87.7953 82.3302L90.7307 81.8506L90.4569 79.2955L91.5118 77.545L90.6117 76.4909L91.3053 76.2813L91.9518 74.8568L90.0709 73.7254L90.4816 73.3094L90.0618 72.8283L90.6497 72.7245L91.2289 71.1288L90.6923 70.3933L91.0312 69.762L89.4735 70.1537L90.2481 66.7863L90.093 65.6241L90.8292 65.0426L91.5967 64.9365L93.1767 65.5001L94.1507 65.2811L93.6479 63.1515L94.1282 62.3365L94.5481 62.3331L95.762 63.1868L95.9593 62.432L97.0815 62.119L97.3576 63.4945L99.1058 62.8069L99.593 63.5352L99.4249 62.7377L99.6493 62.5293L104.304 61.2968L104.348 60.8758L105.5 60.9762L106.494 59.6334L107.872 59.9487L107.722 61.5972L109.834 63.6059L110.947 66.8882L110.13 67.5062L112.554 67.6404L113.205 69.2502L113.799 69.3593L114.832 68.8722L114.244 69.4403L114.547 70.5199L115.406 70.3929L115.189 70.9892L115.669 71.8038L117.139 71.2113L118.079 72.1636L118.883 73.9787L118.205 75.3177L118.739 76.1946L120.894 76.781L120.844 78.0409L121.446 78.8768L123.827 77.272L125.672 77.904L126.053 78.7821L125.142 80.0028L125.759 80.8117L123.398 82.5747L123.733 82.9276L124.274 82.1457L125.28 82.0754L125.726 83.16L125.683 84.1909L124.489 85.4394L121.419 87.4264L120.964 86.8298L120.488 86.8769L119.518 87.5348L119.628 88.3346L118.378 88.2539L117.57 88.8206L119.242 89.7519L118.771 90.425L119.294 90.4284L119.229 91.1206L120.771 92.9201L120.367 94.1423L119.13 94.5416L120.237 95.5745L120.017 96.2989L118.852 96.1837L117.676 97.0127L116.752 97.2052L112.683 97.4904L111.76 97.1683L111.507 95.2714L110.867 97.8752L111.244 98.2616L110.786 99.4051L109.368 100.885L108.948 101.03L108.551 100.614L108.246 101.663L107.422 101.642L108.48 102.676L109.04 104.881L109.501 105.113L111.348 104.741L111.747 105.652L113.015 106.309L112.854 107.813L113.794 108.756L111.615 109.625L110.508 110.674L111.233 111.399L107.976 113.746L107.79 114.334L108.161 115.625L107.6 115.788L107.404 116.936L107.263 117.381L107.257 117.402Z" fill="#F37021" stroke="#222831" stroke-width="0.5" stroke-linejoin="round"/>
<path d="M125.618 130.037L125.284 129.736L123.937 129.241L123.444 128.943L123.174 128.898L123.012 129.078L122.829 129.445L122.6 129.785L122.29 129.882L121.567 129.74L121.356 129.477L121.253 128.86L121.387 127.911L121.738 127.686L121.935 127.443L121.635 126.437L120.795 125.404L119.889 124.502L118.951 124.526L116.989 125.074L115.988 124.78L115.198 124.19L114.552 123.562L112.702 120.875L112.186 120.378L110.638 119.93L109.771 119.437L108.155 117.835L107.37 117.396L107.256 117.402L107.262 117.382L107.404 116.937L107.599 115.79L108.16 115.626L107.79 114.335L107.976 113.747L111.233 111.4L110.508 110.676L111.614 109.626L113.793 108.757L112.853 107.814L113.015 106.311L111.747 105.653L111.347 104.742L109.5 105.113L109.04 104.882L108.479 102.677L107.422 101.643L108.245 101.664L108.551 100.615L108.948 101.031L109.368 100.886L110.786 99.4061L111.244 98.2626L110.867 97.8762L111.506 95.2728L111.76 97.1693L112.682 97.4914L116.751 97.2062L117.676 97.0137L118.852 96.1847L120.016 96.2999L120.236 95.5755L119.13 94.543L120.366 94.1437L120.77 92.9211L119.228 91.1219L119.294 90.4294L118.771 90.426L119.242 89.7529L117.57 88.8215L118.378 88.2549L119.628 88.3359L119.518 87.5358L120.488 86.8779L120.963 86.8307L121.419 87.4274L124.489 85.4404L125.683 84.1919L125.726 83.161L125.279 82.0768L124.273 82.1471L123.732 82.929L123.398 82.5757L125.759 80.8127L125.142 80.0038L126.053 78.7831L125.671 77.905L127.119 76.5337L126.248 74.9806L126.513 74.5086L127.09 74.4767L128.975 75.9564L130.719 74.8045L131.116 76.1465L131.85 76.2945L131.716 76.9071L131.956 77.1254L132.676 77.2361L134.153 76.5337L136.505 78.7374L137.946 78.6458L137.739 79.4585L139.932 79.4657L139.178 81.1606L139.225 81.9094L139.925 83.1005L141.097 83.3922L139.929 85.8895L142.542 85.4857L143.254 85.7104L143.543 86.3634L143.826 85.6998L146.577 85.3172L146.86 84.6502L145.347 84.4285L146.317 82.057L145.514 81.3713L145.895 80.1232L151.161 81.28L151.237 81.8634L152.624 82.5806L152.384 88.9003L152.577 89.6525L153.528 89.8438L152.922 90.5328L153.104 91.2672L153.143 91.4197L153.057 93.5025V93.5075L152.673 93.3204L152.408 92.8229L152.265 92.1746L151.986 91.8699L151.318 92.4058L150.393 92.5043L150.025 93.131L149.845 94.0593L149.499 95.0328L148.853 95.7082L147.237 96.503L146.519 97.1609L146.362 97.5914L146.277 98.6893L146.169 99.151L145.904 99.5354L145.271 100.088L145.011 100.507L145.06 101.29V101.926L144.952 102.461L144.638 102.796L143.758 103.187L143.489 103.547L143.44 104.479L143.745 104.856L143.92 105.229L143.444 106.157L143.085 106.496L142.443 106.646L142.138 106.851L141.797 107.305L141.635 107.657L141.532 107.999L141.357 108.428L139.853 111.045L139.678 111.686L140.19 111.934L141.15 112.668L141.554 113.281L140.414 113.163L140.419 113.553L140.356 113.755L140.275 113.911L140.198 114.155L140.616 114.545L140.1 114.893L139.907 115.536L139.969 116.34L140.234 117.185L140.692 117.95L141.132 118.166L141.599 118.246L142.151 118.586L142.438 119.013L143.461 121.042L143.529 121.359L143.623 122.296L143.605 122.452L143.883 122.678L144.49 122.862L144.75 123.008L144.992 123.052L145.271 122.959L145.553 122.98L145.805 123.379L145.822 123.531L145.863 123.893L145.701 124.17L145.49 124.409L145.423 124.78L145.4 125.217L145.27 125.433L145.208 125.672L145.36 126.164L145.656 126.39L146.527 126.49L146.841 126.757L147.084 127.711L146.841 128.293L146.41 128.695L146.065 129.104L145.508 130.649L145.162 131.32L144.673 131.784L145.409 132.189L144.996 133.234L144 134.303L142.967 134.798L142.46 134.674L141.508 134.086L141.041 134.017L140.574 134.266L140.014 135.009L139.475 135.244L138.537 135.082L137.603 134.619L136.624 134.394L135.543 134.947L135.026 135.656L134.928 136.137L134.784 136.406L134.142 136.493L133.77 136.392L132.41 135.756L131.592 136.123L130.502 136.983L129.377 137.641L128.439 137.393L128.17 136.798L128.215 136.2L128.354 135.571L128.363 134.873L128.183 134.26L126.092 130.464L125.618 130.037Z" fill="#F37021" stroke="#222831" stroke-width="0.5" stroke-linejoin="round"/>
<path d="M157.161 95.564L156.515 95.2735L156.416 94.738L156.466 94.0972L156.277 93.4736L155.716 92.9305L155.38 92.9761L155.101 93.2777L154.724 93.5124L153.737 93.6698L153.247 93.5998L153.056 93.5066L153.057 93.5017L153.142 91.4189L153.104 91.2664L152.922 90.532L153.528 89.8429L152.576 89.6517L152.383 88.8994L152.623 82.5798L151.236 81.8626L151.16 81.2792L145.895 80.1224L145.513 81.3705L146.317 82.0562L145.347 84.4276L146.86 84.6493L146.577 85.3164L143.825 85.6989L143.542 86.3625L143.253 85.7096L142.541 85.4848L139.929 85.8887L141.096 83.3913L139.924 83.0997L139.224 81.9086L139.177 81.1598L139.931 79.4649L137.739 79.4576L137.945 78.645L136.504 78.7366L134.152 76.5328L132.676 77.2352L131.955 77.1246L131.715 76.9063L131.85 76.2936L131.116 76.1457L130.719 74.8037L128.975 75.9556L127.09 74.4759L126.513 74.5078L126.248 74.9797L127.119 76.5328L125.671 77.9042L123.826 77.2725L121.445 78.8769L120.843 78.0414L120.893 76.7812L118.738 76.1948L118.204 75.3178L118.882 73.9792L118.078 72.1637L117.138 71.2115L115.668 71.804L115.188 70.9894L115.405 70.3931L114.546 70.5201L114.243 69.4405L114.831 68.8723L113.798 69.3595L113.204 69.2503L112.553 67.6406L110.129 67.5067L110.946 66.8887L109.833 63.6061L107.721 61.5974L107.871 59.9488L108.706 58.3878L108.661 56.3562L109.348 55.8657L108.28 54.3308L109.316 53.7707L109.458 52.5055L110.52 53.1299L110.498 54.3464L111.213 55.2751L111.873 55.5942L113.019 55.3994L115.913 56.2566L116.465 55.577L115.985 54.4525L118.571 54.7822L118.885 54.1316L119.199 54.9104L120.597 54.0483L121.978 54.8066L122.191 54.0304L123.053 53.2573L125.055 52.58L125.643 52.8352L126.179 54.1821L127.346 54.6366L128.314 54.5411L128.657 53.3269L129.512 54.2574L130.206 54.089L131.38 53.066L131.297 51.9483L135.056 50.8234L137.182 48.6782L137.434 48.8551L138.372 49.3061L139.05 49.5088L138.974 50.318L138.525 51.8936L139.315 52.348L139.786 52.4435L140.24 52.3514L140.454 52.0293L140.564 52.1997L141.214 52.8523L142.33 52.5541L144.168 54.9971L145.725 54.7743L146.769 55.3127L147.148 55.1515L148.158 53.5999L147.338 52.5511L147.812 52.7021L150.963 52.8051L151.838 52.6416L151.766 52.7694L151.739 52.8937L151.744 53.0181L151.807 53.1459L152.529 53.5254L152.552 54.1848L152.39 54.9081L152.561 55.482L153.136 55.5493L154.854 55.0743L155.577 55.1416L156.412 55.9782L159.056 60.0291L158.477 60.401L158.984 61.3844L159.877 61.8548L162.876 61.9294L162.975 62.3393L162.669 62.9478L162.176 63.5487V63.7962L161.206 64.3758L159.837 65.5174L159.038 66.775L159.761 67.6896L159.42 68.2155L159.478 68.5262L159.829 68.6746L160.336 68.7133L159.99 69.3028L160.34 69.6272L160.713 70.4068L161.058 70.6855L161.489 70.7068L162.957 70.2516L163.051 70.1565L163.159 70.1216L163.258 70.1565L163.357 70.2516L164.021 70.5692L165.901 71.0034L166.692 71.0491L166.207 71.5252L166.099 72.0721L166.225 72.6851L166.462 73.3761L166.835 73.9925L167.145 74.0526L167.311 74.2853L167.279 75.4232L166.97 77.0291L166.669 77.9407L166.727 78.7465L168.236 81.3773L168.277 81.8097L168.325 82.3265L167.782 82.9065L166.629 83.1172L166.045 83.0118L165.552 82.8186L165.067 82.776L164.479 83.1172L164.048 83.6442L163.76 84.2976L163.671 84.9825L163.864 85.5936L163.065 86.3169L161.198 86.8432L160.296 87.2714L159.869 87.9312L158.886 88.6294L158.437 89.2185L159.016 89.8639L159.259 90.6351L159.232 91.3995L158.971 92.0406L158.648 92.2509L157.782 92.3213L157.409 92.5525L157.328 92.7765L157.184 93.5367L157.09 93.8694L157.53 94.2269L157.683 94.6437L157.557 95.0989L157.161 95.564Z" fill="#F37021" stroke="#222831" stroke-width="0.5" stroke-linejoin="round"/>
<path d="M39.0871 18.4995L40.0918 18.9653L41.4787 19.1286L43.5346 18.8059L43.6604 18.1498L43.5483 17.2712L43.6289 16.4696L44.1046 15.9782L44.742 15.8185L45.4379 15.7773L47.1659 15.3878L48.2387 15.3251L49.3477 15.5063L54.6576 17.2768L55.4791 17.8183L55.7034 18.7272L55.6315 19.498L55.7034 20.2219L56.3499 20.9922L56.8888 21.2303L62.0284 21.1658L63.0023 20.8522L64.9817 19.2953L70.3635 16.5771L72.5183 14.878L74.2284 12.5351L74.4711 11.8435L74.7939 10.2246L74.8171 9.93359L74.8472 9.95154L75.6671 10.7271L76.0135 11.4177L76.3208 12.6849L77.0384 13.5614L77.8267 14.2512L78.3568 14.9324L78.5162 15.3732L78.5797 15.797L78.4629 16.2859L78.1682 16.7735L78.0104 16.8912L77.732 17.587L78.6546 20.5658L78.2751 20.8095L79.3277 22.3318L79.5567 23.2052L79.6624 23.6992L79.4669 25.2164L78.9216 26.2968L77.1935 26.8653H75.4339L74.5722 27.0334L73.7957 27.5803L73.248 28.2271L73.102 28.5314L73.1606 28.8242L73.2142 29.4425L73.3424 30.0852L73.5937 30.8675L73.7283 31.6672L73.5108 32.351L73.4119 32.4027L73.9394 32.8632L74.4174 33.0793L75.2678 32.3742L75.6359 32.8024L74.6262 36.1132L73.6295 36.5692L72.2224 36.0809L71.5603 37.4606L72.1775 39.3863L72.1551 40.264L71.1496 40.9763L69.1611 40.1325L69.5471 41.4639L68.3956 42.3218L69.0242 42.8804L68.9812 43.606L66.9524 46.5609L68.0632 46.7689L68.4496 47.7797L67.8187 49.71L66.5173 50.8193L65.7765 51.1175L65.1661 50.5459L64.4234 51.481L63.2989 50.5938L62.7646 50.8973L62.2079 52.118L63.1145 53.3597L63.0536 53.7285L61.6489 54.0902L60.6369 53.7247L60.1771 52.5432L57.7285 53.0843L57.1497 52.5078L55.4098 52.709L54.6785 50.5562L52.8003 51.3582L52.3424 50.4337L51.0966 51.1327L49.3305 54.5697L48.114 53.7225L45.2432 53.6719L44.9584 51.5107L43.2281 52.0287L41.6415 51.3669L44.3522 49.348L44.4598 48.8491L43.4589 47.4709L44.0198 46.7639L41.3312 44.4388L42.3545 43.3858L42.0089 42.0944L41.3312 41.8114L40.3257 42.4324L39.9713 41.4859L40.5546 40.909L40.2139 40.1169L41.2414 40.2682L41.5422 39.9568L40.8824 39.2977L41.7556 39.3137L39.664 38.263L41.006 37.6537L40.2629 36.6448L41.3989 34.9457L40.1013 32.7069L41.0418 32.0266L36.1289 28.5135L38.0297 27.2696L39.5872 24.2934L38.575 22.4859L37.3946 22.0954L38.4472 21.3469L37.7043 19.5483L39.1407 18.6414L39.0871 18.4995Z" fill="#F37021" stroke="#222831" stroke-width="0.5" stroke-linejoin="round"/>
<path d="M77.408 9.86753L77.7977 9.88119L79.3687 10.7385L80.2084 11.0259L82.2327 11.157L83.0583 10.7167L83.2739 9.51782L83.0092 8.83463L82.0353 7.66935L81.6987 7.04336L81.7299 6.33811L82.0129 5.7946L82.1026 5.29787L81.5774 4.71994L83.8485 3.3892L86.1782 2.52811L87.462 2.31557L88.0093 2.4165L88.3549 2.99849L88.2968 4.16374L87.9286 5.03167L87.8476 5.71212L88.6782 6.30951L89.2528 6.36344L90.5051 6.13317L91.892 6.48414L92.5655 6.43908L93.1489 6.21589L93.598 5.88112L96.9555 1.74092L98.3877 1L99.0159 1.06123L99.8058 1.36413L100.533 1.84542L100.982 2.4365L101.076 3.48865L100.807 4.48816L100.614 5.54308L100.928 6.75411L99.0338 5.86697L98.5444 5.93908L98.2976 6.7759L99.2175 7.17516L102.256 7.27944L103.055 7.49529L104.734 8.27032L105.672 8.01123L106.767 6.94087L107.768 5.58054L108.446 4.45348L108.747 3.59646L108.895 2.94814L109.155 2.52834L109.824 2.35527L109.945 2.52104L111.247 3.3892L112.099 5.02231L111.947 6.18151L111.462 7.29511L111.31 8.80223L111.588 9.47808L113.082 11.1388L113.312 11.7425L113.756 13.2762L113.967 13.7304L114.717 14.1469L116.395 13.9997L117.199 14.0804L117.962 15.0531L117.984 17.525L118.748 17.7203L119.028 17.65L118.505 18.0845L118.031 20.7333L119.798 22.397L119.939 25.1962L118.85 26.1675L117.445 25.7541L116.462 27.1935L114.286 27.308L112.531 29.5452L109.054 30.2419L109.049 31.1885L107.799 32.9446L107.198 32.2217L106.383 32.2734L104.707 32.9515L103.54 33.99L103.008 33.7261L100.748 34.6662L100.191 34.2897L99.4502 32.6625L98.0321 33.7478L97.0715 33.5424L95.3792 35.4454L95.8706 34.354L94.7035 33.7151L91.5368 34.5681L90.969 35.9748L90.3024 35.9626L88.9178 35.1457L88.1298 35.8839L86.6642 34.7586L85.8766 35.9554L84.9069 34.9605L82.2696 35.6059L82.0589 34.5825L81.2462 34.3308L81.6615 33.2835L80.308 34.1935L80.0251 34.0543L80.3194 33.5653L78.1784 32.5982L77.1235 32.4145L75.6354 32.8016L75.2673 32.3734L74.417 33.0785L73.939 32.8625L73.4115 32.402L73.5104 32.3502L73.7279 31.6665L73.5933 30.8667L73.3419 30.0845L73.2141 29.4418L73.1601 28.8234L73.1016 28.5306L73.2476 28.2264L73.7952 27.5795L74.5718 27.0323L75.4335 26.8646H77.1931L78.9211 26.296L79.4665 25.2156L79.6619 23.6984L79.5566 23.2045L79.3273 22.331L78.2746 20.8087L78.6542 20.565L77.7316 17.5863L78.0099 16.8904L78.1681 16.7727L78.0841 16.9122L78.5895 16.6579L78.9394 16.2682L79.5649 14.9316L78.1016 14.3013L77.7624 14.0242L77.5928 13.4078L77.6247 11.9032L77.4905 11.179L77.1688 10.6216L76.5356 9.83692L77.408 9.86753Z" fill="#F37021" stroke="#222831" stroke-width="0.5" stroke-linejoin="round"/>
<path d="M132.576 20.4364L133.313 21.0684L135.773 21.8134L136.361 22.2289L136.779 22.7104L137.25 23.0488L137.995 23.0416L139.813 22.6657L140.37 22.7246L141.079 23.1507L141.986 24.407L142.564 24.8953L143.898 24.5557L144.638 24.6147L145.025 25.4966L145.132 25.8293L144.521 26.4355L144.382 27.2257L145.37 28.2875L144.971 28.5571L144.531 28.7359L144.064 28.8074L143.588 28.7556L143.696 29.2557L143.763 29.4668L143.884 29.7451L143.561 30.6936L143.323 31.1849L142.995 31.6329L142.488 31.1971L142.134 31.4169L141.914 32.0862L141.811 33.0019L142.399 33.8047L141.712 35.4883L140.002 38.2298L140.972 37.9658L141.389 37.9765L141.811 38.2298L141.313 39.0706L140.563 40.6731L140.002 41.52L139.796 41.6873L139.293 41.8687L138.79 42.0718L135.657 45.5823L135.752 47.1213L136.456 48.1694L137.182 48.6782L135.056 50.823L131.297 51.9483L131.38 53.0656L130.206 54.0886L129.513 54.257L128.658 53.3265L128.314 54.5407L127.347 54.6366L126.179 54.1817L125.643 52.8351L125.055 52.5796L123.053 53.2572L122.191 54.03L121.978 54.8065L120.598 54.0479L119.199 54.9104L118.885 54.1315L118.571 54.7818L115.986 54.4521L116.465 55.5766L115.914 56.2566L113.02 55.399L113.86 53.5968L113.02 53.0968L113.604 51.7064L113.249 50.4427L115.213 48.4048L114.252 48.0636L114.558 45.7484L115.283 43.7268L116.129 44.0151L116.337 43.796L116.717 41.8908L116.084 41.3394L114.562 41.3196L114.412 40.7731L112.736 41.5687L112.009 40.7697L111.288 41.0831L111.003 40.8621L110.431 39.3558L112.177 37.8008L112.217 36.277L114.031 35.4426L113.753 33.8196L114.179 33.7089L114.404 34.2584L115.503 33.8089L114.327 32.2919L113.36 31.8493L112.141 32.0101L112.148 33.7412L111.374 34.2265L110.476 33.6663L109.605 34.0055L108.905 32.6422L107.801 32.9456L109.051 31.1891L109.055 30.2429L112.532 29.5463L114.287 27.309L116.464 27.1945L117.447 25.7552L118.852 26.1681L119.94 25.1969L119.799 22.3979L118.033 20.7342L118.506 18.0854L119.03 17.6509L120.387 17.3106L125.527 17.5277L126.433 17.1924L128.256 15.9026L129.113 15.4882L130.051 15.596L131.07 16.2417L131.873 17.2964L132.183 18.6411L132.322 20.218L132.576 20.4364ZM140.453 52.0301L140.921 51.3265L141.308 51.0284L141.743 51.1949L142.632 52.178L143.076 52.4902L146.842 52.3944L147.337 52.5522L148.157 53.6006L147.148 55.1526L146.768 55.3138L145.725 54.775L144.167 54.9982L142.329 52.5552L141.214 52.8534L140.563 52.2008L140.453 52.0301Z" fill="#F37021" stroke="#222831" stroke-width="0.5" stroke-linejoin="round"/>
<path d="M86.0337 49.5185L82.502 51.4165L81.5817 51.6329L80.6279 51.4607L79.4273 50.648L78.2804 48.2141L77.4905 48.626L75.8633 47.7167L76.3797 46.6648L77.4814 46.4804L77.7571 45.3239L77.3133 44.5428L78.137 42.9137L79.7304 42.1094L81.5862 42.4227L82.713 41.3051L83.4603 41.8888L84.1422 43.0624L84.1201 43.7248L83.4398 44.4257L85.1861 45.5457L85.8748 47.7243L84.9545 47.8449L84.5886 48.4488L86.0337 49.5185Z" fill="#F37021" stroke="#222831" stroke-width="0.5" stroke-linejoin="round"/>
<path d="M69.5313 55.5799L68.3573 55.1829L67.7401 56.3416L67.4351 55.8738L66.4159 56.4089L65.59 56.1378L64.7149 56.8413L62.0822 56.7668L61.1577 56.4336L60.5424 55.6286L60.334 54.8638L60.639 53.7248L61.6509 54.0899L63.0561 53.7283L63.1166 53.3594L62.2099 52.1177L62.7667 50.8974L63.301 50.5939L64.4255 51.4811L65.1682 50.5456L65.7786 51.1172L66.5194 50.8191L67.8207 49.7097L68.4516 47.7794L68.0653 46.7686L66.9544 46.5606L68.9833 43.6057L69.0262 42.8801L68.398 42.3215L69.5491 41.4636L69.1631 40.1322L71.1517 40.976L72.1572 40.2641L72.1796 39.3861L71.5628 37.4603L72.2245 36.0806L73.6315 36.5693L74.6283 36.1129L75.6379 32.8025L77.126 32.415L78.1809 32.5991L80.3219 33.5661L80.0276 34.0548L80.3105 34.194L81.664 33.2843L81.2487 34.3316L82.0614 34.583L82.2721 35.6064L84.9094 34.961L85.8791 35.9559L86.6667 34.7595L88.1323 35.8847L88.9203 35.1466L90.3049 35.9631L90.9716 35.9756L91.5393 34.5686L94.706 33.716L95.8731 34.3545L95.3818 35.4463L97.074 33.5429L98.0347 33.7483L99.4528 32.6633L100.194 34.2906L100.75 34.6667L103.01 33.7266L103.542 33.9905L104.709 32.9523L106.386 32.2739L107.2 32.2226L107.802 32.9455L108.906 32.642L109.606 34.005L110.477 33.6661L111.375 34.2263L112.149 33.7411L112.142 32.01L113.361 31.8491L114.328 32.2918L115.504 33.8084L114.405 34.2582L114.18 33.7087L113.754 33.8194L114.032 35.4425L112.219 36.2764L112.178 37.8003L110.432 39.3556L111.004 40.862L111.289 41.0825L112.01 40.7692L112.737 41.5685L114.413 40.773L114.564 41.3194L116.085 41.3388L116.718 41.8906L116.339 43.7959L116.13 44.0149L115.284 43.7267L114.559 45.7483L114.254 48.0631L115.214 48.4042L113.25 50.4426L113.605 51.7059L113.021 53.0966L113.861 53.5967L113.021 55.3989L111.875 55.5936L111.215 55.2745L110.499 54.3458L110.521 53.1293L109.46 52.5049L107.824 51.1997L105.692 52.892L105.034 52.9951L104.484 52.5304L104.636 51.294L101.36 51.6329L101.546 50.8875L100.505 50.7921L99.576 49.2405L97.7559 48.6084L96.5934 49.0275L96.2161 49.9037L96.0457 49.3899L95.2829 49.8231L93.016 49.2336L92.8365 50.9909L93.6305 52.0618L92.787 53.0453L91.337 53.1221L91.1081 51.6302L90.0828 52.7509L88.1821 53.1993L88.0855 54.0485L86.7028 53.2506L86.4895 52.9065L86.6777 52.1155L86.0476 52.0234L85.0915 52.325L83.516 53.5609L81.4286 53.8853L81.1772 54.9205L80.3581 54.8604L79.5279 53.7149L79.2111 54.0766L79.6728 54.7615L78.724 54.7786L78.6099 55.824L78.3087 56.1857L77.6736 56.3945L76.4731 55.994L75.6227 56.6143L74.2088 55.4449L73.028 55.4696L72.0879 54.158L71.6727 53.9842L71.2418 54.1511L70.925 54.906L69.8678 54.8885L69.5313 55.5799ZM86.035 49.5185L84.5907 48.4483L84.9569 47.8444L85.8772 47.7235L85.1881 45.5448L83.4422 44.4249L84.1222 43.7244L84.1442 43.0619L83.4624 41.8884L82.7151 41.3046L81.5887 42.4223L79.7325 42.1089L78.1391 42.9132L77.3154 44.542L77.7592 45.3235L77.4839 46.4796L76.3818 46.6644L75.8653 47.7159L77.4926 48.6255L78.2825 48.2133L79.4294 50.6475L80.63 51.4602L81.5841 51.6325L82.504 51.4161L86.035 49.5185Z" fill="#F37021" stroke="#222831" stroke-width="0.5" stroke-linejoin="round"/>
<path d="M69.529 55.5796L69.8655 54.8882L70.9227 54.9061L71.2391 54.1508L71.67 53.9843L72.0853 54.1581L73.0257 55.4697L74.2062 55.445L75.6201 56.614L76.4704 55.9941L77.6714 56.3945L78.3064 56.1854L78.6072 55.8241L78.7217 54.7787L79.6701 54.7616L79.2089 54.0767L79.5253 53.715L80.3558 54.8605L81.1749 54.9206L81.4259 53.8854L83.5133 53.561L85.0889 52.3247L86.0449 52.0231L86.6751 52.1152L86.4868 52.9065L86.7002 53.2507L88.0829 54.0486L88.1791 53.1994L90.0802 52.7506L91.1054 51.6299L91.3344 53.1222L92.7844 53.0454L93.6275 52.0619L92.8335 50.991L93.0133 49.2337L95.2799 49.8232L96.0431 49.39L96.2131 49.9034L96.5907 49.0276L97.7532 48.6085L99.5733 49.2406L100.502 50.7918L101.543 50.8876L101.358 51.633L104.633 51.2941L104.482 52.5304L105.031 52.9948L105.689 52.8917L107.821 51.1994L109.457 52.5046L109.315 53.7702L108.278 54.3303L109.347 55.8652L108.66 56.3558L108.705 58.3873L107.87 59.9483L106.492 59.6331L105.498 60.9759L104.346 60.8751L104.301 61.2965L99.6471 62.529L99.4223 62.7374L99.5908 63.5348L99.1037 62.8066L97.3555 63.4942L97.0794 62.1187L95.9571 62.4316L95.7598 63.1865L94.5455 62.3324L94.1261 62.3362L93.6458 63.1511L94.1485 65.2808L93.1746 65.4998L91.5945 64.9362L90.8271 65.0423L90.0908 65.6238L90.2456 66.7859L87.6311 67.8964L86.9937 67.6085L87.0455 66.973L85.6133 67.7214L85.7346 66.0352L85.5258 65.6839L83.5666 65.6979L83.1129 65.2245L80.6509 65.4895L79.5648 66.708L79.6857 64.9682L78.4045 65.0971L77.3112 63.3953L75.9019 63.1002L76.1399 61.6714L73.8213 61.0839L74.0415 59.651L73.2022 58.5428L72.7242 58.7337L71.357 60.6188L70.3497 60.7724L69.5887 60.4503L69.1647 59.2433L69.1152 56.7113L69.2879 55.8291L70.0804 55.5952L69.529 55.5796Z" fill="#F37021" stroke="#222831" stroke-width="0.5" stroke-linejoin="round"/>
</svg>
